<?xml version="1.0" standalone="no"?>
<!DOCTYPE svg PUBLIC "-//W3C//DTD SVG 1.1//EN" "http://www.w3.org/Graphics/SVG/1.1/DTD/svg11.dtd" >
<svg xmlns="http://www.w3.org/2000/svg" xmlns:xlink="http://www.w3.org/1999/xlink" version="1.1">
<metadata></metadata>
<defs>
<font id="bellotaitalic" horiz-adv-x="1247" >
<font-face units-per-em="2048" ascent="1638" descent="-410" />
<missing-glyph horiz-adv-x="595" />
<glyph unicode="&#xfb01;" horiz-adv-x="1054" d="M-41 -532l209 1482q34 232 115 350q106 144 268 144q157 0 229 -105l-94 -79q-36 77 -133 77q-62 0 -112.5 -33t-78.5 -90q-58 -89 -81 -266l-5 -28h551l-106 -760v-13q0 -20 8 -36q25 -19 43 -19q44 0 70 33l90 -66q-32 -37 -72 -61q-40 -18 -88 -18q-80 0 -125 57 q-41 44 -41 108q0 3 1 11t1 12l92 645h-438l-190 -1345h-113z" />
<glyph unicode="&#xfb02;" horiz-adv-x="1097" d="M-20 -537l208 1483q29 222 115 350q105 144 293 144q112 0 183.5 -47.5t86.5 -130.5q11 -46 11 -78q0 -14 -3 -29l-139 -993v-12q0 -22 10 -37q22 -19 43 -19q40 0 70 33l88 -66q-32 -37 -72 -61q-46 -18 -83 -18q-85 0 -127 57q-41 41 -41 102q0 19 2 29l139 991 q2 10 2 31q0 141 -166 141q-122 0 -188 -82q-75 -75 -97 -223l-75 -514h303l-15 -106h-303l-133 -945h-112z" />
<glyph horiz-adv-x="0" />
<glyph horiz-adv-x="682" />
<glyph unicode=" "  horiz-adv-x="595" />
<glyph unicode="&#x09;" horiz-adv-x="595" />
<glyph unicode="&#xa0;" horiz-adv-x="595" />
<glyph unicode="!" horiz-adv-x="387" d="M-57 72q0 38 27 66t63 28t60 -24t24 -60q0 -37 -27.5 -63.5t-64.5 -26.5q-35 0 -58.5 23t-23.5 57zM76 285l145 1157h144l-183 -1157h-106z" />
<glyph unicode="&#x22;" horiz-adv-x="643" d="M195 1008l34 393h148l-76 -393h-106zM420 1008l35 393h147l-76 -393h-106z" />
<glyph unicode="#" horiz-adv-x="1220" d="M41 377l14 106h234l57 402h-233l14 106h233l43 314h115l-43 -314h342l43 314h115l-43 -314h233l-14 -106h-233l-58 -402h234l-15 -106h-233l-45 -316h-111l45 316h-346l-45 -316h-111l46 316h-238zM403 483h342l58 402h-342z" />
<glyph unicode="$" horiz-adv-x="1110" d="M0 133l78 94q167 -113 325 -131l86 563q-77 26 -128.5 54.5t-88.5 72.5q-77 77 -77 199q0 164 122 270q110 84 265 101l28 180h119l-29 -180q115 -10 211 -56q95 -36 172 -94l-79 -94q-51 36 -132 80q-80 34 -180 49l-76 -496q102 -33 155.5 -59t98.5 -68 q101 -82 101 -212q0 -30 -6 -64q-20 -163 -156 -266q-119 -79 -293 -92l-22 -127h-119l22 125q-241 19 -397 151zM322 997q0 -72 38 -120q46 -48 144 -93l69 461q-113 -11 -174.5 -70.5t-74.5 -146.5q-2 -10 -2 -31zM522 94q122 6 205 68q62 40 88.5 103t26.5 128 q0 84 -56 137q-63 51 -184 91z" />
<glyph unicode="%" horiz-adv-x="1509" d="M31 737q0 15 4 51q19 132 106 198.5t197 66.5t176 -63.5t66 -170.5q0 -6 -5 -51q-19 -130 -107 -197t-198 -67q-109 0 -174 62.5t-65 170.5zM141 733q0 -60 33.5 -94.5t95.5 -34.5q86 0 142.5 61.5t56.5 153.5q0 61 -34.5 97t-96.5 36q-88 0 -142.5 -63.5t-54.5 -155.5z M297 23l592 1024h123l-590 -1024h-125zM729 240q0 15 4 51q10 68 40 120t72.5 82.5t90.5 46t100 15.5q111 0 176.5 -63t65.5 -170q0 -16 -4 -52q-19 -130 -107 -197t-198 -67q-109 0 -174.5 63t-65.5 171zM840 236q0 -60 33.5 -95t95.5 -35q86 0 142 61.5t56 154.5 q0 61 -34.5 97t-96.5 36q-88 0 -142 -63.5t-54 -155.5z" />
<glyph unicode="&#x26;" horiz-adv-x="1302" d="M53 287q0 51 14 106t44.5 116.5t89.5 119t139 96.5q-72 98 -72 211q0 82 35 152.5t90 115t120 69.5t128 25q106 0 182 -50.5t97 -127.5l-86 -65q-26 74 -73.5 102.5t-115.5 28.5q-86 0 -156.5 -56t-82.5 -141q-3 -21 -3 -39q0 -40 10 -75t33.5 -70.5t39.5 -54.5t49 -56 q98 -99 346 -368q108 151 133 327l10 78h109l-13 -90q-31 -219 -164 -391l162 -172l-82 -84l-159 166q-89 -87 -207.5 -133.5t-241.5 -46.5q-77 0 -143 18.5t-118.5 55t-83 96.5t-30.5 137zM172 297q0 -106 73.5 -158.5t182.5 -52.5q97 0 198.5 39t178.5 111l-264 280 l-131 125q-110 -49 -174 -143.5t-64 -200.5z" />
<glyph unicode="'" horiz-adv-x="395" d="M182 1008l35 393h148l-76 -393h-107z" />
<glyph unicode="(" horiz-adv-x="757" d="M53 440q0 75 13 168q40 290 198 531q183 260 455 399l45 -92q-107 -58 -206 -152.5t-169 -203.5q-77 -110 -130.5 -240t-70.5 -256q-8 -57 -8 -131q0 -183 62 -354q100 -236 282 -353l-61 -84q-240 143 -340 406q-70 168 -70 362z" />
<glyph unicode=")" horiz-adv-x="757" d="M-139 1446l45 92q271 -138 454 -399q159 -243 199 -531q12 -86 12 -168q0 -196 -69 -362q-100 -263 -340 -406l-62 84q184 118 283 353q61 168 61 354q0 74 -8 131q-17 126 -70 256t-130 240q-70 109 -169 203.5t-206 152.5z" />
<glyph unicode="*" horiz-adv-x="774" d="M145 1151l56 117l202 -84l21 237h123l-47 -239l231 86l19 -117l-224 -59l113 -166l-104 -70l-97 193l-157 -197l-93 74l164 168z" />
<glyph unicode="+" horiz-adv-x="884" d="M37 549l14 104h324l45 328h115l-46 -328h324l-14 -104h-324l-47 -330h-115l47 330h-323z" />
<glyph unicode="," horiz-adv-x="393" d="M-43 -135q51 47 66 84q18 35 26 96l8 70q3 27 21.5 43t46.5 16q34 0 50 -22t13 -50l-6 -41q-11 -79 -43 -151q-35 -63 -116 -117z" />
<glyph unicode="-" horiz-adv-x="892" d="M119 567l16 117h608l-16 -117h-608z" />
<glyph unicode="." horiz-adv-x="421" d="M35 72q0 38 27 66t63 28t60 -24t24 -60q0 -37 -27.5 -63.5t-64.5 -26.5q-35 0 -58.5 23t-23.5 57z" />
<glyph unicode="/" horiz-adv-x="700" d="M-61 -143l684 1679h129l-682 -1679h-131z" />
<glyph unicode="0" horiz-adv-x="1339" d="M96 543q0 60 10 135q19 136 73 258t135.5 216.5t194.5 150t241 55.5q116 0 207.5 -44.5t149.5 -122.5t88 -180t30 -220q0 -53 -11 -136q-26 -185 -110.5 -336.5t-224 -245t-308.5 -93.5q-116 0 -208 44.5t-149.5 122t-87.5 178.5t-30 218zM225 539q0 -126 36 -224.5 t116.5 -160.5t197.5 -62q107 0 199 50t155.5 134.5t104.5 187.5t58 216q8 55 8 123q0 127 -36.5 224.5t-116.5 157.5t-195 60q-105 0 -196.5 -48.5t-156 -130.5t-107.5 -185.5t-59 -218.5q-8 -55 -8 -123z" />
<glyph unicode="1" horiz-adv-x="743" d="M190 1149q57 0 132.5 29.5t129.5 60.5t179 108q27 16 41 25l18 -2l-192 -1370h-125l166 1171q-167 -129 -330 -129z" />
<glyph unicode="2" horiz-adv-x="1101" d="M18 0l5 31q11 81 46.5 154t95.5 138.5t125.5 120.5t158.5 119q16 11 69 46t75.5 50.5t69 50.5t68.5 57.5t55 60t48.5 70t27.5 74.5t12 85q0 93 -64 148t-177 55q-126 0 -224.5 -66t-150.5 -186l-90 53q147 301 465 301q172 0 264 -79t92 -220q0 -31 -6 -68 q-10 -70 -39 -132.5t-64.5 -107t-94.5 -94.5t-106.5 -83t-125 -86.5t-127.5 -90.5q-105 -74 -168 -140t-92 -144h762l-17 -117h-893z" />
<glyph unicode="3" horiz-adv-x="1144" d="M16 174l80 86q76 -83 153 -123.5t191 -40.5q163 0 279 77.5t137 219.5q2 14 2 43q0 117 -83.5 181t-207.5 71h-229l16 115h219q107 0 205.5 86t98.5 196q0 81 -69 126.5t-167 45.5q-140 0 -307 -104l-45 100l18 15q93 56 167.5 82t164.5 26q161 0 266 -76t105 -200 q0 -108 -73.5 -206.5t-186.5 -131.5q48 -9 100 -51q63 -43 100 -119t37 -166q0 -34 -6 -68q-17 -120 -94.5 -209t-186 -131.5t-233.5 -42.5q-261 0 -451 199z" />
<glyph unicode="4" horiz-adv-x="1099" d="M6 258l12 102l557 992h142l-547 -977h504l63 454h127l-63 -454h172l-17 -117h-172l-39 -264h-127l39 264h-651z" />
<glyph unicode="5" horiz-adv-x="1064" d="M37 137l35 105q94 -75 163.5 -107.5t159.5 -32.5q175 0 285.5 105.5t134.5 271.5q4 40 4 60q0 71 -26 120t-77 76.5t-115.5 39t-151.5 11.5q-161 0 -275 -43l-10 11l80 569l686 14l-17 -116l-561 -9l-49 -327q117 16 178 16q211 0 334 -101.5t123 -277.5q0 -36 -6 -73 q-29 -203 -177 -332t-341 -129q-124 0 -226 48t-151 101z" />
<glyph unicode="6" horiz-adv-x="1169" d="M61 399q0 24 9 103q22 152 102.5 303t204.5 272q131 122 287.5 187t326.5 65l-8 -108q-231 0 -422 -134q-196 -129 -348 -428q85 101 189 150t210 49q178 0 295 -118t117 -291q0 -45 -4 -68q-17 -124 -93 -229t-192 -166.5t-246 -61.5q-195 0 -311.5 133t-116.5 342z M180 332q0 -125 86.5 -212t222.5 -87q109 0 208 56.5t160 153.5t61 208q0 128 -87.5 213.5t-220.5 85.5q-112 0 -212.5 -61t-159 -158t-58.5 -199z" />
<glyph unicode="7" horiz-adv-x="997" d="M139 1212l17 115l856 10l-2 -16l-707 -1321h-131l662 1221z" />
<glyph unicode="8" horiz-adv-x="1138" d="M59 309q0 43 4 66q17 126 92.5 217t200.5 174q-131 78 -131 223q0 108 57.5 194.5t153.5 133.5t209 47q153 0 251.5 -83t98.5 -210q0 -60 -21 -114t-57 -95.5t-73 -71.5t-80 -55q99 -42 157 -121t58 -194q0 -43 -4 -66q-26 -181 -164.5 -284t-337.5 -103 q-189 0 -301.5 91.5t-112.5 250.5zM184 315q0 -113 75.5 -175t211.5 -62q158 0 259 82t122 219q4 32 4 45q0 36 -10 67t-25 53.5t-43 43.5t-53 35t-66 29.5t-70.5 24.5t-78.5 23l-43 13l-14 -13q-139 -105 -195.5 -173.5t-69.5 -161.5q-4 -32 -4 -50zM352 989 q0 -61 38.5 -96.5t109.5 -58.5l133 -43l24 -7q51 34 81.5 58t65 59.5t50.5 77t16 90.5q0 81 -59.5 131.5t-159.5 50.5q-127 0 -213 -75t-86 -187z" />
<glyph unicode="9" horiz-adv-x="1167" d="M117 809q0 42 4 65q27 188 180.5 321.5t351.5 133.5q194 0 308 -131.5t114 -339.5q0 -61 -8 -110q-23 -158 -102 -306t-197 -264q-270 -254 -618 -254l8 109q231 0 432 147q200 137 334 408q-15 -16 -84 -76q-168 -117 -322 -117q-169 0 -285 120.5t-116 293.5zM223 809 q0 -130 85.5 -217.5t219.5 -87.5q112 0 213 61t160.5 158.5t59.5 202.5q0 126 -89.5 210.5t-222.5 84.5q-105 0 -202.5 -52.5t-160.5 -148.5t-63 -211z" />
<glyph unicode=":" horiz-adv-x="440" d="M-37 72q0 38 27 66t63 28t60 -24t24 -60q0 -37 -27.5 -63.5t-64.5 -26.5q-35 0 -58.5 23t-23.5 57zM76 879q0 38 27 66t63 28t60 -24t24 -60q0 -37 -27.5 -63.5t-64.5 -26.5q-35 0 -58.5 23t-23.5 57z" />
<glyph unicode=";" horiz-adv-x="407" d="M-115 -135q51 47 66 84q18 35 26 96l9 70q3 28 21 43.5t46 15.5q34 0 50.5 -22t13.5 -50l-6 -41q-11 -79 -43 -151q-34 -62 -117 -117zM76 879q0 38 27 66t63 28t60 -24t24 -60q0 -37 -27.5 -63.5t-64.5 -26.5q-35 0 -58.5 23t-23.5 57z" />
<glyph unicode="&#x3c;" horiz-adv-x="796" d="M29 543l596 379l53 -97l-440 -278l368 -283l-84 -100z" />
<glyph unicode="=" horiz-adv-x="940" d="M92 383l14 106h721l-14 -106h-721zM139 711l15 106h720l-14 -106h-721z" />
<glyph unicode="&#x3e;" horiz-adv-x="796" d="M68 260l438 279l-369 282l84 101l494 -379l-596 -379z" />
<glyph unicode="?" horiz-adv-x="948" d="M150 1157q0 98 82 168t194 98q70 17 127 17q123 0 220.5 -66.5t129.5 -179.5q17 -56 17 -113q0 -11 -5 -61q-14 -98 -55 -168q-29 -47 -73.5 -89t-76.5 -63.5t-87 -54.5q-18 -10 -53 -28.5t-48.5 -25.5t-37.5 -21.5t-36 -23.5t-27.5 -22.5t-27.5 -27.5q-47 -44 -57 -113 q0 -5 -1 -18t-1 -19q0 -7 1 -21.5t1 -21.5l-109 -16q-2 16 -2 49q0 40 4 63q12 84 54 144q29 37 73.5 71.5t76 52.5t83.5 46q89 42 143 83t89 95q67 87 67 192q0 42 -10 76q-27 76 -96 124t-158 48q-60 0 -124.5 -20t-113 -57.5t-55.5 -82.5q-6 -49 64 -49l22 -106 q-6 0 -16 -1t-11 -1q-84 0 -125.5 39t-41.5 104zM190 100q0 41 31.5 73t71.5 32q39 0 65.5 -26.5t26.5 -65.5q0 -41 -31 -72t-71 -31t-66.5 26t-26.5 64z" />
<glyph unicode="@" horiz-adv-x="1439" d="M74 377q0 63 8 115q39 281 227 455.5t465 174.5q244 0 389.5 -137.5t145.5 -363.5q0 -47 -6 -97q-22 -156 -110 -251t-218 -95q-71 0 -119.5 31t-58.5 92q-88 -94 -195 -94q-99 0 -162 75.5t-63 190.5q0 82 30 152t77.5 113.5t103.5 68t110 24.5q23 0 79 -5t59 -5h94 l-60 -428q1 -61 28 -92t73 -31q88 0 148.5 79t76.5 194q6 40 6 80q0 180 -115 291.5t-309 111.5q-234 0 -394.5 -153t-193.5 -392q-8 -70 -8 -100q0 -193 117 -299.5t334 -106.5q105 0 212.5 25t182.5 66l21 -97q-201 -92 -435 -92q-244 0 -392 131t-148 369zM479 471 q0 -31 5.5 -58t18 -51.5t36.5 -38.5t57 -14q97 0 158 105q9 12 18 30l45 275q-88 10 -110 10q-99 0 -163.5 -74t-64.5 -184z" />
<glyph unicode="A" horiz-adv-x="1658" d="M-20 150l118 16q7 -53 56 -53q50 0 71 43l715 1249h39l412 -1405h-127l-129 465h-607l-198 -365q-28 -52 -77 -80t-101 -28q-69 0 -119 45.5t-53 112.5zM596 582h506l-156 548l-14 68l-29 -68z" />
<glyph unicode="B" horiz-adv-x="1320" d="M129 1212q11 83 78 150q77 61 160 61h454q164 0 266.5 -88.5t102.5 -232.5q0 -111 -53.5 -197.5t-141.5 -132.5q-2 0 -65 -18l57 -23q170 -96 170 -301q0 -19 -4 -65q-14 -100 -63.5 -174.5t-128 -120t-177.5 -68t-219 -22.5q-136 0 -241 10l-111 12l188 1307 q-84 0 -112 -31q-19 -12 -31 -34.5t-14 -39.5zM348 102q58 -3 104.5 -5t63 -3t30.5 -1.5t27 -0.5q421 0 461 291q4 36 4 51q0 120 -84 186t-217 66h-198l16 113h176q136 0 223 71q115 81 115 238q0 94 -60.5 144.5t-166.5 56.5h-320z" />
<glyph unicode="C" horiz-adv-x="1515" d="M100 588q0 52 9 108q21 151 98 291t188 242.5t252 163.5t285 61q79 0 156.5 -16t150 -58t102.5 -104q29 -50 29 -107q0 -88 -58.5 -150.5t-140.5 -62.5q-62 0 -116 41l80 84q20 -14 39 -14q35 0 61.5 32t26.5 75q0 25 -23 63q-47 54 -132.5 79t-172.5 25 q-168 0 -325.5 -91.5t-262.5 -243.5t-129 -326q-6 -46 -6 -90q0 -223 144 -372.5t372 -149.5q150 0 289 67t235 184l86 -67q-121 -146 -282.5 -221.5t-329.5 -75.5q-182 0 -325.5 84.5t-221.5 228.5t-78 320z" />
<glyph unicode="D" horiz-adv-x="1650" d="M127 1202q13 88 82 152q72 59 158 59h612q266 -25 412.5 -183.5t146.5 -422.5q0 -59 -10 -141q-50 -354 -293 -519t-684 -165q-146 0 -238 8l-59 4l-39 6l186 1298q-84 0 -120 -36q-32 -25 -39 -68zM350 102q255 -10 344 -10q287 0 480.5 160t234.5 448q8 52 8 113 q0 217 -123 346t-344 139h-428z" />
<glyph unicode="E" horiz-adv-x="1327" d="M125 1190q12 86 78 149q75 62 157 62h949l-17 -115h-792l-68 -487h547l-16 -117h-547l-80 -565h792l-16 -117h-917l184 1286q-69 0 -98 -33q-15 -11 -27.5 -31t-15.5 -40z" />
<glyph unicode="F" d="M125 1188q11 84 80 149q75 62 157 62h949l-17 -115h-792l-68 -487h547l-16 -117h-547l-96 -682h-125l184 1286q-69 0 -98 -33q-15 -11 -27.5 -31t-15.5 -40z" />
<glyph unicode="G" horiz-adv-x="1536" d="M96 575q0 37 8 107q27 199 149.5 374t301.5 278.5t365 103.5q54 0 110.5 -8.5t116 -29t106 -50.5t76 -77.5t29.5 -105.5q0 -94 -59 -156.5t-142 -62.5q-65 0 -113 39l78 84q19 -12 37 -12q36 0 63 32t27 76q0 43 -33.5 75.5t-86 49.5t-105.5 25t-102 8 q-124 0 -246.5 -54.5t-218 -144.5t-162 -211.5t-84.5 -250.5q-6 -46 -6 -89q0 -223 142 -375.5t358 -152.5q192 0 340.5 119t199.5 297l21 158h116l-137 -990q-13 -88 -76.5 -137t-134.5 -49q-50 0 -89 23.5t-58 62.5l102 63q16 -28 47 -28q36 0 60.5 22.5t31.5 51.5l76 526 q-100 -114 -229 -171.5t-268 -57.5q-133 0 -248 51t-194 137.5t-124 203t-45 246.5z" />
<glyph unicode="H" horiz-adv-x="1433" d="M141 1329q70 82 164 82q72 0 123 -46.5t51 -119.5q0 -18 -2 -28l-59 -431h756l86 615h124l-196 -1401h-125l94 670h-756l-94 -670h-127l172 1225q3 28 -9.5 43.5t-37.5 15.5q-41 0 -63 -31z" />
<glyph unicode="I" horiz-adv-x="417" d="M39 0l197 1401h124l-196 -1401h-125z" />
<glyph unicode="J" horiz-adv-x="958" d="M35 311q0 20 4 60l115 -19q-4 -32 -4 -47q0 -92 54.5 -144t155.5 -52q72 0 129.5 26.5t91.5 71t54 93t27 101.5l122 861q-44 -25 -108 -25q-60 0 -96 12q-32 8 -91 35t-92 27q-25 0 -55 -8t-67 -22t-52 -19l-41 106q91 35 133.5 46t81.5 11q29 0 59.5 -8t121.5 -41 q70 -24 102 -24q34 0 82 28q39 19 45 31l113 -4l-144 -1020q-10 -79 -41 -148t-81.5 -125.5t-127.5 -89t-172 -32.5q-69 0 -124 18t-91 47.5t-60 71t-34 86.5t-10 96z" />
<glyph unicode="K" horiz-adv-x="1316" d="M39 2l197 1399h124l-90 -639h84q79 3 138 33q26 10 45.5 22t30.5 22.5t30 32.5q90 90 168 215q68 93 205 316l157 -4q-99 -149 -169.5 -252.5t-94.5 -140.5q-20 -25 -66 -87.5t-65 -87.5q-72 -80 -133 -122l328 -580q13 -29 47 -29q33 0 58 21.5t30 52.5l115 -6 q-11 -89 -74.5 -136.5t-132.5 -47.5q-46 0 -85 22t-59 60l-342 598q-55 -16 -95 -20q-32 -3 -95 -3h-33l-94 -639h-129z" />
<glyph unicode="L" horiz-adv-x="1048" d="M39 0l197 1401h124l-180 -1284h670l-16 -117h-795z" />
<glyph unicode="M" horiz-adv-x="2142" d="M-27 100l107 39q10 -20 21.5 -29.5t31.5 -9.5q53 0 74 47l434 1254h121l264 -1170l10 -79l35 79l596 1170h117l90 -1401h-117l-71 1153v78l-33 -80l-578 -1151h-121l-252 1149l-12 82l-22 -82l-349 -1022q-22 -61 -73 -101t-113 -40q-60 0 -104 32.5t-56 81.5z" />
<glyph unicode="N" horiz-adv-x="1597" d="M-20 156q0 16 2 24l114 -8q-4 -32 12.5 -49t41.5 -17q33 0 58 22.5t30 49.5l172 1223h75l189 -256l579 -836l25 -45l156 1135h120l-196 -1399h-35l-801 1153l-24 43l-138 -1026q-8 -58 -46.5 -100t-83.5 -60t-87 -18q-67 0 -115 48t-48 116z" />
<glyph unicode="O" horiz-adv-x="1656" d="M98 578q0 32 8 102l5 39q20 145 94 278.5t181 232t247.5 157.5t286.5 59q135 0 253 -50t200 -136t128.5 -202.5t46.5 -246.5q0 -47 -6 -100l-6 -39q-21 -148 -94.5 -282.5t-180.5 -232t-245 -155t-283 -57.5q-181 0 -327 84.5t-227 229t-81 319.5zM213 582 q0 -226 146.5 -375.5t367.5 -149.5q124 0 244 50.5t213 135t157 199t82 238.5l4 39q7 54 7 90q0 112 -40 209.5t-108.5 166.5t-164 108.5t-203.5 39.5q-125 0 -245.5 -51.5t-212.5 -136.5t-155 -199t-80 -235l-6 -39q-6 -46 -6 -90z" />
<glyph unicode="P" d="M125 1190q12 86 78 149q75 62 157 62h471q164 0 253.5 -98.5t89.5 -260.5q0 -33 -7 -84q-16 -109 -63.5 -193.5t-117 -135.5t-151.5 -77t-173 -26q-54 0 -158 11l6 112q95 -6 141 -6q350 0 398 330q6 38 6 69q0 234 -260 244h-275l-180 -1288h-125l184 1288 q-55 0 -75.5 -6.5t-40.5 -26.5q-39 -27 -45 -71z" />
<glyph unicode="Q" horiz-adv-x="1599" d="M100 584q0 60 9 125q29 204 137 366t276.5 254t368.5 92q278 0 442 -169t164 -439q0 -66 -8 -123q-28 -204 -137 -365.5t-279 -252.5q-168 -90 -367 -90h-4h-57l-145 -175l151 -55q112 -41 215 -41q53 0 99.5 15.5t113.5 58.5l45 -94q-85 -55 -133 -70.5t-108 -15.5 q-136 0 -267 45l-194 67l-103 -125l-81 68l292 340q-209 51 -319.5 208t-110.5 376zM225 582q0 -219 127 -354.5t353 -135.5q131 0 246.5 47.5t200.5 130t142 196t76 245.5q8 74 8 106q0 221 -128.5 356.5t-354.5 135.5q-260 0 -442.5 -173t-219.5 -442q-8 -52 -8 -112z" />
<glyph unicode="R" horiz-adv-x="1474" d="M125 1190q11 82 78 149q74 62 157 62h484q94 0 157 -39q83 -41 129 -126.5t46 -195.5q0 -40 -5 -71q-23 -160 -129 -263t-245 -114h-58l25 -10q15 -7 36 -24.5t31 -33.5l254 -401q19 -31 43 -31q31 0 59.5 24.5t33.5 53.5l114 -12q-12 -79 -71.5 -128.5t-133.5 -49.5 q-96 0 -143 81l-213 336q-47 81 -99.5 120.5t-148.5 47.5l13 115h174q153 0 247.5 101.5t94.5 260.5q0 109 -61 176.5t-167 67.5h-311l-180 -1286h-125l180 1286h-35q-42 0 -77 -31t-41 -73z" />
<glyph unicode="S" horiz-adv-x="1144" d="M18 297l109 37q36 -128 131 -200.5t217 -72.5q165 0 282 113.5t117 263.5q0 75 -42 122.5t-125 96.5q-26 14 -77 39t-85.5 43t-81 45.5t-77.5 55.5t-60 62.5t-43.5 77.5t-14.5 91q0 161 124 268t290 107q74 0 129 -19q81 -26 123.5 -78.5t42.5 -121.5q0 -85 -57 -144 t-140 -59q-4 0 -12 1t-12 1l18 107q8 -2 16 -2q24 0 45 23q27 31 27 73q0 51 -54.5 78.5t-125.5 27.5q-119 0 -210 -75.5t-91 -176.5q0 -48 26 -90.5t73.5 -76.5t92.5 -59t106 -55t91 -48q215 -118 215 -312q0 -125 -69 -238.5t-187 -183t-252 -69.5q-164 0 -293 97.5 t-166 250.5z" />
<glyph unicode="T" horiz-adv-x="1282" d="M152 1221q9 73 65 129q66 51 135 51h955l-17 -117h-489l-180 -1284h-125l180 1284h-326q-32 0 -56.5 -22.5t-27.5 -49.5z" />
<glyph unicode="U" horiz-adv-x="1533" d="M145 1333q33 39 81 62.5t93 23.5q85 0 133 -43t48 -121q0 -27 -2 -41l-95 -669q-6 -47 -6 -88q0 -163 91 -263t268 -100q89 0 166.5 27t132.5 72t97 105t65.5 124t33.5 131l119 850h125l-121 -858q-15 -107 -60.5 -205t-119 -179.5t-186 -130t-248.5 -48.5 q-119 0 -213 37t-153 102.5t-89.5 150.5t-30.5 185q0 38 7 96l94 670q1 8 1 15q0 58 -52 58q-54 0 -82 -36z" />
<glyph unicode="V" horiz-adv-x="1267" d="M137 1278q27 63 81 99t116 36q60 0 99 -29t48 -75l226 -1133l565 1227h123l-654 -1403h-118l-244 1251q-9 39 -51 39q-24 0 -46 -13t-34 -36z" />
<glyph unicode="W" horiz-adv-x="2170" d="M139 1288q27 63 80.5 98t110.5 35q65 0 112 -37t54 -94l198 -1085v-23l2 -20l17 43l553 1198h120l218 -1198l4 -58l2 13q0 10 4 18l8 27l553 1198h123l-653 -1403h-121l-226 1210l-563 -1210h-121l-233 1257q-12 48 -53 48q-53 0 -78 -54z" />
<glyph unicode="X" horiz-adv-x="1368" d="M18 0l531 719l-334 682h137l287 -592l457 592h149l-528 -682l264 -588q13 -27 43 -27q31 0 54.5 20.5t33.5 49.5l117 -14q-16 -82 -77 -128t-136 -46q-66 0 -102.5 36t-67.5 113l-217 492l-461 -627h-150z" />
<glyph unicode="Y" horiz-adv-x="1294" d="M133 1255q19 79 79 122.5t128 43.5q108 0 154 -100l233 -571l457 653h147l-553 -791l-84 -612h-135l94 608l-268 660q-15 32 -51 32q-29 0 -53.5 -18.5t-28.5 -46.5z" />
<glyph unicode="Z" horiz-adv-x="1206" d="M-14 25l929 1261h-639l17 109h833l-893 -1211l62 -12q29 -6 172 -49t211 -43q136 0 264 108l72 -79q-90 -75 -168.5 -106.5t-165.5 -31.5q-80 0 -163 22t-178.5 54.5t-170.5 46.5l-94 -125z" />
<glyph unicode="[" horiz-adv-x="686" d="M-12 -356l266 1892h487l-16 -117h-363l-233 -1659h363l-17 -116h-487z" />
<glyph unicode="\" horiz-adv-x="700" d="M174 1536h129l213 -1679h-131z" />
<glyph unicode="]" horiz-adv-x="688" d="M-96 -356l16 116h363l233 1659h-362l16 117h487l-266 -1892h-487z" />
<glyph unicode="^" horiz-adv-x="929" d="M86 743l430 517h41l287 -517l-109 -71l-221 401l-336 -397z" />
<glyph unicode="_" horiz-adv-x="1185" d="M0 -272l16 112h902l-17 -112h-901z" />
<glyph unicode="`" horiz-adv-x="532" d="M156 1386l88 101l291 -256l-54 -70z" />
<glyph unicode="a" horiz-adv-x="1255" d="M76 408q0 34 8 104q33 237 185 382.5t380 145.5q118 0 248 -18h117l-121 -862q-4 -32 12 -50t41 -18q45 0 72 35l86 -68q-60 -79 -156 -79q-72 0 -120 47q-46 45 -46 109v5q-115 -161 -327 -161q-186 0 -282.5 119.5t-96.5 308.5zM193 412q0 -91 26.5 -162.5t87.5 -117.5 t150 -46q97 0 178 48t127 124q39 55 51 131l78 529q-31 0 -124 8t-128 8q-179 0 -296 -122t-144 -312q-6 -44 -6 -88z" />
<glyph unicode="b" horiz-adv-x="1110" d="M43 20l205 1467h112l-86 -598q61 77 147 114t179 37q173 0 273 -117t100 -311q0 -58 -8 -110q-12 -87 -40 -162.5t-76 -142.5t-112.5 -114.5t-155 -75t-198.5 -27.5t-197 12q-88 10 -143 28zM166 104l102 -12q59 -6 113 -6q112 0 199 35t141 96.5t85.5 135.5t43.5 163 q8 70 8 96q0 152 -73 237t-189 85q-113 0 -209 -70q-116 -74 -141 -196z" />
<glyph unicode="c" horiz-adv-x="1064" d="M74 387q0 60 8 109q22 155 91 280t180 199t245 74q140 0 237 -76t97 -199q0 -27 -2 -41l-115 8q2 10 2 33q0 85 -59.5 129.5t-149.5 44.5q-71 0 -134 -28t-109 -74.5t-82 -108t-57 -127t-31 -133.5q-7 -54 -7 -86q0 -142 75.5 -219.5t215.5 -77.5q85 0 165.5 26.5 t176.5 74.5l47 -91q-188 -116 -387 -116q-201 0 -304 106t-103 293z" />
<glyph unicode="d" horiz-adv-x="1255" d="M76 406q0 57 8 106q33 236 185 382t380 146q118 0 248 -18l70 467h112l-186 -1329q-5 -28 11 -48t44 -20q43 0 70 35l86 -68q-60 -79 -156 -79q-72 0 -120 47q-46 45 -46 109v5q-115 -161 -325 -161q-124 0 -211.5 57.5t-128.5 152t-41 216.5zM193 412q0 -146 66.5 -236 t197.5 -90q94 0 174.5 46t130.5 126q39 55 51 131l78 524q-13 1 -46.5 7t-71.5 10t-79 4q-117 0 -207.5 -31.5t-148 -90t-91 -133.5t-46.5 -169q-8 -70 -8 -98z" />
<glyph unicode="e" horiz-adv-x="1069" d="M72 375q0 55 8 104q11 81 37 158.5t71 151t102.5 129t137.5 89t172 33.5q144 0 238 -75t94 -201q0 -170 -134.5 -262t-359.5 -92l-245 -4v-21q-1 -142 63 -218q68 -81 219 -81q89 0 167 25.5t179 74.5l45 -90q-185 -116 -391 -116q-201 0 -302 107.5t-101 287.5zM201 512 l243 4q101 0 177.5 20.5t129.5 70.5t64 128q2 12 2 35q0 83 -59.5 126.5t-149.5 43.5q-89 0 -165 -43t-124.5 -109.5t-78.5 -137.5t-39 -138z" />
<glyph unicode="f" horiz-adv-x="817" d="M-41 -532l221 1564q15 107 40.5 189t69.5 152.5t114 108.5t163 38q125 0 193.5 -66.5t68.5 -187.5q0 -16 -4 -62q-26 -172 -147 -263t-309 -91h-103l-47 -334h303l-14 -106h-303l-133 -942h-113zM281 956h94q140 0 229.5 72t106.5 195q2 14 2 41q0 72 -38 110.5 t-110 38.5q-54 0 -97.5 -22.5t-71.5 -58t-49.5 -87.5t-33.5 -102.5t-20 -112.5z" />
<glyph unicode="g" horiz-adv-x="1112" d="M82 440q0 52 6 95q14 99 61 190t118 161.5t170.5 113t209.5 42.5q57 0 131 -6l127 -14h109l-176 -1255q-23 -157 -119.5 -249.5t-231.5 -92.5q-130 0 -197 81.5t-67 198.5q0 80 34 155.5t97 129.5q-70 15 -127 69q-76 64 -110.5 166.5t-34.5 214.5zM184 426 q0 -140 70 -240t190 -100q59 0 119 29q54 22 115 69t96 105q36 48 39 82l78 551l-55 4l-138 8h-63q-118 0 -216.5 -64t-155.5 -161.5t-73 -208.5q-6 -38 -6 -74zM330 -293q0 -73 42 -123.5t126 -50.5q95 0 152 64.5t79 169.5l53 372q-6 -5 -12 -10.5t-28 -24.5t-64 -53 q-18 -13 -39.5 -25t-65.5 -35.5t-96 -53.5q-57 -29 -92 -74t-45 -81.5t-10 -74.5z" />
<glyph unicode="h" horiz-adv-x="1214" d="M39 6l209 1487h112l-90 -625q151 179 365 179q149 0 225 -67t76 -194q0 -32 -6 -73l-78 -549q-4 -32 12 -49t43 -17q42 0 68 33l88 -68q-62 -77 -156 -77q-74 0 -121 45.5t-47 113.5q0 19 2 27l76 543q4 36 4 53q0 172 -200 172q-106 0 -188.5 -51.5t-176.5 -157.5 l-104 -725h-113z" />
<glyph unicode="i" horiz-adv-x="485" d="M37 141q0 19 2 27l121 856h112l-120 -864q-4 -31 12 -49.5t41 -18.5q44 0 67 33l90 -66q-67 -79 -157 -79q-73 0 -120.5 46.5t-47.5 114.5zM168 1356q0 38 27 66t63 28t60 -24t24 -60q0 -37 -27.5 -63.5t-64.5 -26.5q-35 0 -58.5 23t-23.5 57z" />
<glyph unicode="j" horiz-adv-x="499" d="M-133 -449l98 58q17 -29 47 -29q34 0 59.5 22t30.5 54l193 1370h113l-193 -1378q-11 -77 -69 -128.5t-134 -51.5q-101 0 -145 83zM301 1356q0 38 27 66t63 28t60 -24t24 -60q0 -37 -27.5 -63.5t-64.5 -26.5q-35 0 -58.5 23t-23.5 57z" />
<glyph unicode="k" horiz-adv-x="1196" d="M39 2l209 1487h112l-92 -647q65 99 158 152t197 53q130 0 206 -73.5t76 -195.5q0 -17 -4 -53q-16 -106 -75 -171.5t-154 -113.5l143 -301q13 -20 47 -20t56.5 19t27.5 50l113 -14q-15 -71 -72 -121.5t-127 -50.5q-49 0 -90.5 24t-56.5 64l-154 322h-350l-57 -410h-113z M227 514l234 4q98 0 168 31q79 30 124.5 90t45.5 143q0 72 -47 116t-131 44q-110 0 -201.5 -71.5t-147.5 -200.5q-32 -67 -45 -156z" />
<glyph unicode="l" horiz-adv-x="534" d="M59 145q0 17 2 25l185 1317h112l-186 -1325q-4 -32 12 -50t41 -18q40 0 70 33l88 -66q-30 -37 -73.5 -58t-86.5 -21q-70 0 -117 47.5t-47 115.5z" />
<glyph unicode="m" horiz-adv-x="1835" d="M106 0l103 727q6 41 6 76q0 108 -55 166l78 63q78 -67 84 -180q135 188 344 188q106 0 173 -48.5t87 -141.5q146 190 346 190q131 0 206.5 -73t75.5 -195q0 -17 -4 -57l-77 -557q-4 -32 13 -50t42 -18q37 0 67 33l88 -66q-68 -80 -157 -80q-76 0 -122 48t-46 116 q0 4 1 12.5t1 12.5l78 555q2 16 2 43q0 89 -41 129.5t-127 40.5q-196 0 -334 -205l-104 -729h-113l96 692q6 38 6 68q0 174 -166 174q-101 0 -193.5 -58.5t-139.5 -144.5l-105 -731h-113z" />
<glyph unicode="n" d="M72 0l102 727q6 41 6 76q0 108 -55 166l78 63q83 -63 86 -188q86 105 179 150.5t202 45.5q145 0 221 -65t76 -195q0 -29 -2 -43l-82 -583q-4 -32 13.5 -50t43.5 -18q38 0 68 33l88 -66q-68 -80 -158 -80q-76 0 -122 47t-46 115q0 19 2 27l74 530q6 38 6 68 q0 90 -46.5 132t-143.5 42q-110 0 -195.5 -52.5t-177.5 -156.5l-105 -725h-112z" />
<glyph unicode="o" d="M78 424q0 44 6 90q33 228 192 377t383 149q204 0 325.5 -123t121.5 -323q0 -44 -6 -94q-32 -231 -193 -375.5t-383 -144.5q-206 0 -326 123t-120 321zM193 422q0 -154 88.5 -245t244.5 -91q186 0 310 123t151 315q6 40 6 78q0 154 -88 243t-243 89q-189 0 -312.5 -122.5 t-150.5 -311.5q-6 -40 -6 -78z" />
<glyph unicode="p" horiz-adv-x="1142" d="M-4 -535l178 1262q6 41 6 76q0 108 -55 166l78 63q74 -63 84 -170q111 178 338 178q126 0 214 -58t128.5 -152.5t40.5 -217.5q0 -25 -9 -104q-35 -237 -186 -382.5t-381 -145.5q-114 0 -244 18l-79 -533h-113zM195 104q187 -18 227 -18q196 0 315 116t146 310q6 49 6 94 q0 146 -66.5 237t-191.5 91q-119 0 -222.5 -75.5t-129.5 -190.5z" />
<glyph unicode="q" horiz-adv-x="1112" d="M74 408q0 59 8 108q35 240 187.5 382t408.5 142q187 0 326 -41l-213 -1534h-113l96 664q-58 -75 -143 -112t-180 -37q-92 0 -164.5 32.5t-118.5 90.5t-70 135t-24 170zM190 408q0 -147 66.5 -234.5t192.5 -87.5q121 0 223 75t131 191l84 561q-116 19 -199 19 q-429 0 -489 -420q-9 -56 -9 -104z" />
<glyph unicode="r" horiz-adv-x="724" d="M92 0l103 727q6 41 6 76q0 107 -56 166l78 63q80 -68 86 -180q64 95 144 147q78 41 178 41q36 0 121 -16l-9 -106q-62 14 -106 14q-113 0 -186 -58q-33 -22 -72 -61t-70 -84l-104 -729h-113z" />
<glyph unicode="s" horiz-adv-x="909" d="M6 100l66 82q132 -96 284 -96q107 0 185 48t92 147q2 10 2 28q0 49 -27.5 83.5t-87.5 66.5q-31 16 -80 36t-84 33.5t-75 36t-64.5 46.5t-41.5 60t-17 81q0 135 95.5 211.5t233.5 76.5q69 0 143.5 -17.5t117.5 -47.5l-33 -101q-107 60 -228 60q-96 0 -153.5 -47 t-57.5 -121q0 -49 39.5 -87t90 -59t121.5 -51.5t112 -58.5q115 -70 115 -197q0 -15 -4 -47q-10 -75 -48.5 -131.5t-95.5 -89.5t-122.5 -49t-137.5 -16q-201 0 -340 120z" />
<glyph unicode="t" horiz-adv-x="747" d="M70 213q0 41 6 84l139 981h113l-37 -258h323l-16 -113h-324l-86 -618q-6 -47 -6 -82q0 -60 25.5 -90.5t87.5 -30.5q137 0 217 123l80 -66q-120 -163 -297 -163q-225 0 -225 233z" />
<glyph unicode="u" horiz-adv-x="1277" d="M123 948l72 90q61 -49 97 -99.5t36 -115.5q0 -20 -2 -30l-64 -461q-6 -38 -6 -68q0 -90 47.5 -132t145.5 -42q109 0 191 49.5t177 157.5l107 727h112l-123 -866q-4 -32 13 -50t43 -18q41 0 67 33l90 -68q-69 -78 -155 -78q-75 0 -122.5 46.5t-47.5 115.5q0 4 1 11.5 t1 11.5q-86 -97 -171.5 -137.5t-193.5 -40.5q-145 0 -221 65t-76 195q0 29 2 43l72 514q1 7 1 14q0 25 -14 51q-18 32 -34.5 46t-44.5 36z" />
<glyph unicode="v" horiz-adv-x="1009" d="M125 967l70 88q106 -74 133 -221l125 -662l397 850h113l-478 -1022h-114l-160 852q-9 35 -32.5 66.5t-53.5 48.5z" />
<glyph unicode="w" horiz-adv-x="1695" d="M125 969l70 88q103 -75 131 -223l125 -656l395 846h115l157 -846l395 846h115l-477 -1022h-115l-157 846l-396 -846h-116l-156 852q-9 35 -32.5 66.5t-53.5 48.5z" />
<glyph unicode="x" horiz-adv-x="1142" d="M10 0l398 512l-254 512h133l202 -422l318 422h139l-387 -508l191 -407q14 -31 49 -31t59 22.5t27 49.5l114 -15q-15 -77 -72 -125.5t-128 -48.5q-104 0 -150 90l-176 371l-326 -422h-137z" />
<glyph unicode="y" horiz-adv-x="1134" d="M123 948l72 90q65 -57 99 -105t34 -110q0 -20 -2 -30l-64 -461q-6 -38 -6 -68q0 -174 188 -174q101 0 180.5 43.5t157.5 128.5q24 26 33 45.5t12 46.5l97 670h112l-106 -743l-74 -525q-23 -163 -116.5 -251.5t-225.5 -88.5q-130 0 -200 80t-70 197q0 74 37.5 164.5 t105.5 130.5q-120 10 -184 72.5t-64 168.5q0 38 4 58l72 514v8q0 31 -27 69q-31 44 -65 70zM352 -309q0 -76 40.5 -121t117.5 -45q94 0 159 64.5t79 166.5l53 365l-25 -23q-68 -55 -121 -78l-108 -53q-88 -43 -134.5 -97.5t-58.5 -137.5q-2 -14 -2 -41z" />
<glyph unicode="z" horiz-adv-x="1087" d="M0 27l729 886h-524l14 107h719l-2 -27l-674 -815l152 -59q97 -39 213 -39q54 0 100 15t115 59l45 -95q-70 -47 -127.5 -66.5t-126.5 -19.5q-130 0 -254 45l-193 66l-104 -125z" />
<glyph unicode="{" horiz-adv-x="661" d="M-43 647q32 4 55 8q63 17 88 56q6 15 6 34t-2 29q0 3 -18 82l-31 121q-8 29 -32 127q-18 83 -21 108q-4 23 -4 68q0 60 18 92q22 54 72 80q81 55 225 84l33 -94q-114 -22 -180 -66q-22 -20 -43 -51q-4 -24 -4 -37q0 -15 4 -43q0 -3 18 -94l33 -125q57 -205 57 -278 q0 -65 -43 -105q-22 -36 -65 -53q36 -7 71.5 -34.5t59.5 -63.5q23 -44 29 -89q6 -35 6 -102q2 -26 5.5 -167t10.5 -187q6 -54 31 -82q55 -88 258 -125l-25 -94q-6 1 -41.5 8.5t-46 10t-43 11t-47.5 14.5t-42.5 18t-44.5 24.5t-38 30t-37 38.5q-38 57 -47 133q-15 97 -18 379 q-5 71 -6 78q-7 48 -29 68q-38 46 -106 63l-60 13z" />
<glyph unicode="|" horiz-adv-x="417" d="M18 -143l236 1679h125l-236 -1679h-125z" />
<glyph unicode="}" horiz-adv-x="659" d="M-66 -260q204 37 259 125q24 27 30 82q7 47 11.5 189t5.5 165q0 67 6 102q7 47 28 89q24 36 60 63.5t72 34.5q-44 18 -66 53q-43 40 -43 105q0 73 57 278l33 125q1 6 9 40.5t10 53.5q4 28 4 43q0 13 -4 37q-19 29 -44 51q-66 44 -180 66l33 94q144 -29 225 -84 q50 -26 72 -80q18 -32 18 -92q0 -45 -4 -68q-4 -35 -20 -108q-17 -69 -33 -127l-31 -121q-18 -79 -18 -82q-2 -10 -2 -29t6 -34q25 -39 88 -56q23 -4 55 -8l-6 -112l-59 -13q-70 -18 -107 -63q-21 -19 -28 -68q-1 -7 -6 -78q-3 -275 -19 -379q-9 -76 -47 -133 q-16 -21 -37 -38.5t-38 -30t-44.5 -24.5t-42.5 -18t-47.5 -14.5t-43 -11t-46 -10t-41.5 -8.5z" />
<glyph unicode="~" horiz-adv-x="1083" d="M121 602q64 46 118.5 66t122.5 20q66 0 118.5 -17t96.5 -33.5t89 -16.5q96 0 184 67l63 -88q-106 -78 -217 -88h-28q-68 0 -160.5 35t-140.5 35q-95 0 -183 -68z" />
<glyph unicode="&#xa1;" horiz-adv-x="466" d="M59 973q0 34 23.5 57t58.5 23q37 0 64.5 -26.5t27.5 -63.5q0 -36 -23.5 -60t-59.5 -24t-63.5 28t-27.5 66zM193 760h106l182 -1157h-143z" />
<glyph unicode="&#xa2;" horiz-adv-x="1036" d="M66 537q0 61 8 116q30 211 147 355q133 152 299 178l35 213h125l-35 -211q67 -7 122.5 -35t86.5 -66q70 -67 70 -167q0 -15 -4 -43l-115 8q2 10 2 30q0 65 -33 109q-50 50 -135 63l-127 -849q32 3 64 9.5t54.5 12.5t52 18t43.5 18.5t44.5 21.5t40.5 20l47 -90 q-86 -52 -162 -82q-104 -30 -190 -35l-23 -133h-125l23 137q-192 27 -260 166q-55 91 -55 236zM176 528q0 -97 41 -166q58 -88 174 -116l121 837q-66 -16 -124 -64.5t-95 -109.5q-89 -131 -111 -297q-6 -46 -6 -84z" />
<glyph unicode="&#xa3;" horiz-adv-x="1169" d="M113 621l16 116h168l37 260q22 164 129 265q120 96 323 96q130 0 234 -39l-10 -105q-132 37 -236 37q-143 0 -217 -71q-83 -67 -98 -191l-37 -252h315l-16 -116h-315l-52 -367l-4 -37l-12 -37q190 -70 248 -82q68 -10 100 -10q101 0 221 76l43 -105q-125 -86 -241 -86 q-82 0 -142 13q-58 10 -125 34l-145 46q-43 -80 -64 -95l-100 52q43 69 55 94q28 55 43 141l50 363h-168z" />
<glyph unicode="&#xa4;" horiz-adv-x="1437" d="M45 70l240 211q-60 94 -60 225q0 40 6 90q12 90 48 170q41 80 94 133l-183 211l97 90l188 -215q52 32 131 62q67 20 150 20q94 0 153 -27q66 -21 117 -59l248 219l80 -90l-244 -215q59 -89 59 -219q0 -44 -6 -94q-13 -96 -49 -170q-39 -80 -90 -131l184 -211l-98 -90 l-190 217q-51 -33 -129 -64q-70 -20 -152 -20q-93 0 -154 24q-57 18 -116 60l-246 -217zM352 516q0 -28 8 -82q15 -63 50 -117q46 -46 96 -73q67 -23 133 -23q83 0 147 31q68 24 119 78q46 37 90 119q32 61 45 153q4 25 4 72q0 112 -55 188q-82 94 -231 94q-57 0 -84 -6.5 t-64 -23.5q-59 -18 -118 -74q-46 -36 -89 -117q-32 -61 -45 -153q-6 -34 -6 -66z" />
<glyph unicode="&#xa5;" horiz-adv-x="1290" d="M137 346l15 109h393l24 161l-14 35h-377l15 111h315l-291 590h137l293 -598l459 598h147l-454 -590h305l-14 -111h-367l-27 -35l-24 -161h391l-14 -109h-392l-49 -346h-123l50 346h-398z" />
<glyph unicode="&#xa6;" horiz-adv-x="401" d="M16 -143l107 757h125l-107 -757h-125zM145 778l107 758h125l-107 -758h-125z" />
<glyph unicode="&#xa7;" horiz-adv-x="841" d="M98 -29q173 35 246 76q96 42 96 143q0 65 -75 136q-19 15 -55 40.5t-63 48t-50 48.5q-78 75 -78 170q0 125 76 219q39 39 84 57q-41 59 -41 140q0 144 135 231q123 69 319 98l21 -108q-180 -35 -246 -76q-96 -44 -96 -141q0 -67 75 -138q20 -16 54.5 -40.5t62.5 -47.5 t51 -49q78 -75 78 -172q0 -49 -20 -111.5t-56 -105.5q-32 -26 -86 -57q41 -64 41 -139q0 -143 -133 -232q-122 -69 -321 -98zM246 641q0 -55 57 -115q26 -23 77 -57t71 -51q58 28 86 81t28 99q0 54 -57 115q-24 20 -75 55.5t-73 54.5q-53 -28 -83.5 -76t-30.5 -106z" />
<glyph unicode="&#xa8;" horiz-adv-x="909" d="M150 1303q0 38 27 66t63 28t60 -24t24 -60t-28 -63t-65 -27q-35 0 -58 23t-23 57zM604 1303q0 38 27 66t63 28t60 -24t24 -60q0 -37 -27.5 -63.5t-64.5 -26.5q-35 0 -58.5 23t-23.5 57z" />
<glyph unicode="&#xa9;" horiz-adv-x="1511" d="M96 397q0 60 8 109q38 277 234 447.5t467 170.5q167 0 292.5 -70t190 -189t64.5 -269q0 -23 -9 -102q-38 -272 -233.5 -444.5t-468.5 -172.5q-247 0 -396 144.5t-149 375.5zM205 395q0 -192 117.5 -307t318.5 -115q116 0 219.5 42t180.5 114.5t128 172.5t66 214 q6 46 6 90q0 199 -115.5 309.5t-318.5 110.5q-232 0 -397.5 -151t-196.5 -381q-8 -70 -8 -99zM467 449q0 21 4 61q18 132 98 224.5t197 92.5q42 0 87.5 -10t64.5 -26l-9 -93q-70 35 -129 35q-53 0 -95.5 -29.5t-66 -74.5t-35.5 -91.5t-12 -88.5q0 -79 39.5 -124.5 t108.5 -45.5q77 0 168 61l41 -82q-117 -74 -217 -74q-117 0 -180.5 74t-63.5 191z" />
<glyph unicode="&#xaa;" horiz-adv-x="835" d="M184 1063q0 106 53.5 182t135.5 115q53 18 98 18q21 0 67.5 -4t59.5 -4h86l-63 -452q-1 -6 1 -10.5t7 -4.5q10 0 22 12l72 -51q-43 -49 -92 -49q-75 0 -92 64q-67 -64 -152 -64q-69 0 -116.5 38t-67 92.5t-19.5 117.5zM279 1055q0 -60 26 -101t78 -41q79 0 139 91l19 26 l34 242l-51 6q-8 0 -19 1t-16 1q-89 0 -149.5 -62.5t-60.5 -162.5z" />
<glyph unicode="&#xab;" horiz-adv-x="1257" d="M98 522q3 33 74 92l475 375l68 -84l-498 -391l387 -391l-82 -84l-370 379q-62 59 -54 104zM528 522q3 33 74 92l475 375l68 -84l-498 -391l387 -391l-82 -84l-370 379q-62 59 -54 104z" />
<glyph unicode="&#xac;" horiz-adv-x="995" d="M92 541l17 118h737l-49 -358h-127l32 240h-610z" />
<glyph unicode="&#xad;" horiz-adv-x="1228" d="M47 567l16 117h609l-17 -117h-608z" />
<glyph unicode="&#xae;" horiz-adv-x="1511" d="M145 766q0 23 9 102q43 278 237.5 448.5t464.5 170.5q167 0 292.5 -70t190 -189.5t64.5 -269.5q0 -32 -8 -102q-40 -274 -234.5 -445t-466.5 -171q-248 0 -398.5 146.5t-150.5 379.5zM256 758q0 -192 117.5 -307t318.5 -115q152 0 281.5 72.5t211 196t101.5 274.5 q6 47 6 90q0 199 -115.5 309.5t-318.5 110.5q-232 0 -397.5 -151.5t-196.5 -381.5q-8 -70 -8 -98zM535 492l22 184l49 346q14 104 29 182h72q23 0 60 5t58 5q98 0 157.5 -51t59.5 -133q0 -75 -41 -131t-106 -80q53 -20 70 -88l51 -186l-101 -41l-36 176q-27 117 -154 117 h-49l-43 -305h-98zM686 879h115q63 0 104 42.5t41 102.5q0 48 -34 72t-95 24q-49 0 -96 -10z" />
<glyph unicode="&#xaf;" horiz-adv-x="905" d="M197 1284l16 117h668l-17 -117h-667z" />
<glyph unicode="&#xb0;" horiz-adv-x="813" d="M182 1044q0 16 4 52q10 68 40 120t72.5 82.5t90.5 46t100 15.5q110 0 176 -63.5t66 -170.5q0 -15 -4 -51q-19 -130 -107 -197t-198 -67t-175 62.5t-65 170.5zM293 1040q0 -60 33.5 -94.5t95.5 -34.5q86 0 142.5 61.5t56.5 153.5q0 61 -35 97.5t-97 36.5q-88 0 -142 -64 t-54 -156z" />
<glyph unicode="&#xb1;" horiz-adv-x="1007" d="M20 0l15 106h762l-15 -106h-762zM98 549l15 104h323l45 328h115l-45 -328h323l-14 -104h-323l-48 -330h-114l47 330h-324z" />
<glyph unicode="&#xb2;" horiz-adv-x="616" d="M139 811l6 41q10 67 55 121t124 112q40 23 59 36t47 36.5t40.5 48.5t12.5 54q0 25 -17 40t-50 15q-52 0 -91 -31.5t-49 -83.5l-81 49q31 74 87 115t130 41q77 0 122.5 -40.5t45.5 -107.5q0 -18 -2 -28q-5 -37 -20.5 -67.5t-42 -56t-49.5 -43t-62 -43.5t-60 -42 q-63 -45 -78 -70h293l-14 -96h-406z" />
<glyph unicode="&#xb3;" horiz-adv-x="638" d="M117 895l67 72q36 -43 63.5 -60.5t71.5 -17.5q61 0 101.5 30t40.5 82q0 33 -26.5 53t-65.5 23h-119l14 94h111q30 0 63 29t33 60q0 21 -20 33t-50 12q-58 0 -135 -56l-39 84l29 23q73 45 143 45q72 0 123 -39.5t51 -99.5q0 -30 -19.5 -67.5t-51.5 -66.5q61 -45 61 -139 q0 -91 -70 -143.5t-161 -52.5q-129 0 -215 102z" />
<glyph unicode="&#xb4;" horiz-adv-x="641" d="M195 1231l356 256l59 -101l-379 -225z" />
<glyph unicode="&#xb5;" horiz-adv-x="1077" d="M-55 -512l215 1532h112l-98 -688l2 -4q-6 -41 -6 -74q0 -66 27 -115q47 -53 159 -53q115 0 195 59q90 61 168 154l104 721h113l-102 -729q-7 -47 -7 -76q0 -102 52 -166l-76 -63q-51 44 -64 90q-19 41 -22 104q-152 -200 -361 -200q-80 0 -129 14q-44 12 -90 45l-80 -551 h-112z" />
<glyph unicode="&#xb6;" horiz-adv-x="1042" d="M82 815q0 35 6 76q27 203 164 291q137 82 465 82h96l164 -7l-176 -1255h-119l160 1139h-168l-160 -1139h-121l76 510q-244 21 -324 113q-63 69 -63 190z" />
<glyph unicode="&#xb7;" horiz-adv-x="460" d="M96 657q0 54 40 94t93 40q49 0 81 -31.5t32 -79.5q0 -54 -40 -93.5t-93 -39.5q-49 0 -81 31.5t-32 78.5z" />
<glyph unicode="&#xb8;" horiz-adv-x="530" d="M4 -174l47 197h125l-39 -103q62 -7 93.5 -50.5t31.5 -105.5q0 -22 -2 -32q-10 -81 -73 -144t-158 -63l8 108q50 0 84.5 41t34.5 90q0 62 -84 62h-68z" />
<glyph unicode="&#xb9;" horiz-adv-x="450" d="M215 1323q15 -6 27 -6q8 0 16 1t17.5 4t17 5.5t19.5 9t19.5 10t22.5 12.5t23 14t26.5 16.5t28.5 17.5h41l-84 -600h-98l65 444q-61 -31 -123 -26z" />
<glyph unicode="&#xba;" horiz-adv-x="841" d="M190 1098q0 66 27.5 135t79.5 119q92 80 215 80q134 0 199 -86q55 -58 55 -158q0 -155 -107 -266q-95 -82 -213 -82q-137 0 -200 88q-56 62 -56 170zM289 1087q0 -57 26 -102q45 -53 123 -53q97 0 154 63q60 54 76 156q2 12 2 37q0 56 -31 102q-44 49 -123 49 q-88 0 -149.5 -53t-71.5 -139q-6 -30 -6 -60z" />
<glyph unicode="&#xbb;" horiz-adv-x="1257" d="M51 123l498 391l-387 391l84 84l370 -379q54 -54 54 -96q0 -35 -76 -100l-473 -375zM481 123l498 391l-387 391l84 84l371 -379q53 -56 53 -96q0 -35 -76 -100l-473 -375z" />
<glyph unicode="&#xbc;" horiz-adv-x="1529" d="M162 942q15 -6 26 -6q7 0 15 1t15 2.5t16.5 5.5t16 6.5t18 9t18 10t21 12t21.5 13t24.5 15t25.5 15.5h41l-84 -600h-98l65 444q-61 -31 -123 -26zM315 0l592 1024h123l-590 -1024h-125zM870 115l9 69l233 416h111l-219 -389h139l26 180h101l-27 -180h70l-13 -96h-69 l-14 -107h-101l14 107h-260z" />
<glyph unicode="&#xbd;" horiz-adv-x="1511" d="M162 942q15 -6 26 -6q7 0 15 1t15 2.5t16.5 5.5t16 6.5t18 9t18 10t21 12t21.5 13t24.5 15t25.5 15.5h41l-84 -600h-98l65 444q-61 -31 -123 -26zM315 0l592 1024h123l-590 -1024h-125zM860 2l6 41q10 68 55 122t123 111q40 24 59 36.5t47.5 36t41 48.5t12.5 54 q0 25 -17 40t-50 15q-52 0 -91 -31.5t-49 -83.5l-82 49q31 74 87.5 115t130.5 41q77 0 122 -40t45 -107q0 -19 -2 -29q-5 -37 -20 -67.5t-42 -56t-50 -43t-61.5 -43.5t-59.5 -42q-63 -45 -78 -70h293l-14 -96h-406z" />
<glyph unicode="&#xbe;" horiz-adv-x="1718" d="M104 526l68 72q36 -43 63.5 -60.5t71.5 -17.5q61 0 101.5 30.5t40.5 82.5q0 33 -26.5 53t-66.5 23h-118l14 94h110q31 0 64 28.5t33 59.5q0 21 -20 33t-50 12q-59 0 -135 -55l-39 84l29 22q73 45 143 45q72 0 123 -39.5t51 -99.5q0 -30 -20 -67t-52 -66q28 -21 45 -58 t17 -81q0 -91 -70.5 -144t-161.5 -53q-129 0 -215 102zM504 0l592 1024h123l-590 -1024h-125zM1059 115l8 69l233 416h111l-219 -389h139l27 180h100l-26 -180h69l-12 -96h-70l-14 -107h-100l14 107h-260z" />
<glyph unicode="&#xbf;" horiz-adv-x="1036" d="M121 45q0 21 4 61q14 98 55 168q29 47 74 89.5t77 63.5t87 54q14 7 46 24.5t42.5 23t33.5 18.5t33 20.5t25.5 18.5t26.5 22t22 23q48 46 58 112q0 5 1 18t1 19q0 7 -1 21.5t-1 21.5l108 17q2 -16 2 -49q0 -41 -4 -64q-12 -85 -53 -143q-29 -37 -74 -72t-76 -52.5 t-84 -45.5q-88 -41 -142 -82.5t-89 -95.5q-68 -88 -68 -193q0 -39 11 -76q27 -76 95.5 -124t157.5 -48q60 0 124.5 20t113 57.5t55.5 82.5q6 49 -63 49l-23 107q6 0 16 1t11 1q84 0 126 -39.5t42 -104.5q0 -98 -82.5 -168t-194.5 -98q-66 -16 -127 -16q-123 0 -220.5 66 t-129.5 179q-16 53 -16 113zM655 1014q0 41 31.5 71.5t71.5 30.5t66 -26t26 -64q0 -41 -31 -72.5t-71 -31.5t-66.5 27t-26.5 65z" />
<glyph unicode="&#xc0;" horiz-adv-x="1658" d="M-20 150l118 16q7 -53 56 -53q50 0 71 43l715 1249h39l412 -1405h-127l-129 465h-607l-198 -365q-28 -52 -77 -80t-101 -28q-69 0 -119 45.5t-53 112.5zM596 582h506l-156 548l-14 68l-29 -68zM682 1767l88 101l291 -256l-53 -70z" />
<glyph unicode="&#xc1;" horiz-adv-x="1658" d="M-20 150l118 16q7 -53 56 -53q50 0 71 43l715 1249h39l412 -1405h-127l-129 465h-607l-198 -365q-28 -52 -77 -80t-101 -28q-69 0 -119 45.5t-53 112.5zM596 582h506l-156 548l-14 68l-29 -68zM936 1612l356 256l60 -101l-379 -225z" />
<glyph unicode="&#xc2;" horiz-adv-x="1658" d="M-20 150l118 16q7 -53 56 -53q50 0 71 43l715 1249h39l412 -1405h-127l-129 465h-607l-198 -365q-28 -52 -77 -80t-101 -28q-69 0 -119 45.5t-53 112.5zM596 582h506l-156 548l-14 68l-29 -68zM688 1620l293 291h100l213 -291h-135l-137 182l-193 -182h-141z" />
<glyph unicode="&#xc3;" horiz-adv-x="1658" d="M-20 150l118 16q7 -53 56 -53q50 0 71 43l715 1249h39l412 -1405h-127l-129 465h-607l-198 -365q-28 -52 -77 -80t-101 -28q-69 0 -119 45.5t-53 112.5zM596 582h506l-156 548l-14 68l-29 -68zM643 1722q121 90 225 90q67 0 153 -35.5t124 -35.5q74 0 164 69l63 -88 q-48 -34 -72.5 -48.5t-65 -26t-91.5 -11.5q-55 0 -95.5 10.5t-60 23.5t-49.5 23.5t-66 10.5q-39 0 -76 -14.5t-91 -55.5z" />
<glyph unicode="&#xc4;" horiz-adv-x="1658" d="M-20 150l118 16q7 -53 56 -53q50 0 71 43l715 1249h39l412 -1405h-127l-129 465h-607l-198 -365q-28 -52 -77 -80t-101 -28q-69 0 -119 45.5t-53 112.5zM596 582h506l-156 548l-14 68l-29 -68zM614 1683q0 38 27.5 66.5t63.5 28.5t59.5 -24t23.5 -60q0 -37 -27.5 -63.5 t-64.5 -26.5q-35 0 -58.5 22.5t-23.5 56.5zM1069 1683q0 38 27.5 66.5t62.5 28.5q36 0 60 -24t24 -60q0 -37 -27.5 -63.5t-64.5 -26.5q-35 0 -58.5 22.5t-23.5 56.5z" />
<glyph unicode="&#xc5;" horiz-adv-x="1658" d="M-20 150l118 16q7 -53 56 -53q50 0 71 43l715 1249h39l412 -1405h-127l-129 465h-607l-198 -365q-28 -52 -77 -80t-101 -28q-69 0 -119 45.5t-53 112.5zM596 582h506l-156 548l-14 68l-29 -68zM799 1677q0 110 62.5 178t166.5 68q88 0 137 -47.5t49 -130.5 q0 -111 -65.5 -177.5t-167.5 -66.5q-86 0 -134 47.5t-48 128.5zM897 1673q0 -40 22 -62t60 -22q59 0 99 45.5t40 110.5q0 41 -23 64.5t-63 23.5q-60 0 -97.5 -44.5t-37.5 -115.5z" />
<glyph unicode="&#xc6;" horiz-adv-x="1916" d="M-41 0l932 1401h967l-17 -117h-792l-68 -485h649l-16 -117h-649l-80 -565h833l-16 -117h-959l66 465h-391l-305 -465h-154zM489 582h336l97 694l-31 -74z" />
<glyph unicode="&#xc7;" horiz-adv-x="1515" d="M100 588q0 52 9 108q21 151 98 291t188 242.5t252 163.5t285 61q79 0 156.5 -16t150 -58t102.5 -104q29 -50 29 -107q0 -88 -58.5 -150.5t-140.5 -62.5q-62 0 -116 41l80 84q20 -14 39 -14q35 0 61.5 32t26.5 75q0 25 -23 63q-47 54 -132.5 79t-172.5 25 q-168 0 -325.5 -91.5t-262.5 -243.5t-129 -326q-6 -46 -6 -90q0 -223 144 -372.5t372 -149.5q150 0 289 67t235 184l86 -67q-119 -143 -277.5 -218.5t-324.5 -78.5l-28 -78q62 -7 93 -50.5t31 -105.5q0 -22 -2 -32q-10 -81 -73 -144t-158 -63l8 108q50 0 84.5 41t34.5 90 q0 62 -84 62h-68l43 180q-232 37 -374 210.5t-142 414.5z" />
<glyph unicode="&#xc8;" horiz-adv-x="1327" d="M125 1190q12 86 78 149q75 62 157 62h949l-17 -115h-792l-68 -487h547l-16 -117h-547l-80 -565h792l-16 -117h-917l184 1286q-69 0 -98 -33q-15 -11 -27.5 -31t-15.5 -40zM559 1763l88 101l291 -256l-53 -70z" />
<glyph unicode="&#xc9;" horiz-adv-x="1327" d="M125 1190q12 86 78 149q75 62 157 62h949l-17 -115h-792l-68 -487h547l-16 -117h-547l-80 -565h792l-16 -117h-917l184 1286q-69 0 -98 -33q-15 -11 -27.5 -31t-15.5 -40zM813 1608l356 256l60 -101l-379 -225z" />
<glyph unicode="&#xca;" horiz-adv-x="1327" d="M125 1190q12 86 78 149q75 62 157 62h949l-17 -115h-792l-68 -487h547l-16 -117h-547l-80 -565h792l-16 -117h-917l184 1286q-69 0 -98 -33q-15 -11 -27.5 -31t-15.5 -40zM565 1616l293 291h100l213 -291h-135l-137 182l-192 -182h-142z" />
<glyph unicode="&#xcb;" horiz-adv-x="1327" d="M125 1190q12 86 78 149q75 62 157 62h949l-17 -115h-792l-68 -487h547l-16 -117h-547l-80 -565h792l-16 -117h-917l184 1286q-69 0 -98 -33q-15 -11 -27.5 -31t-15.5 -40zM492 1679q0 38 27.5 66.5t62.5 28.5q36 0 60 -24t24 -60q0 -37 -28 -64t-65 -27q-35 0 -58 23 t-23 57zM946 1679q0 38 27.5 66.5t62.5 28.5q36 0 60 -24t24 -60q0 -37 -27.5 -64t-64.5 -27q-35 0 -58.5 23t-23.5 57z" />
<glyph unicode="&#xcc;" horiz-adv-x="417" d="M12 1763l88 101l291 -256l-53 -70zM39 0l197 1401h124l-196 -1401h-125z" />
<glyph unicode="&#xcd;" horiz-adv-x="417" d="M39 0l197 1401h124l-196 -1401h-125zM266 1608l357 256l59 -101l-379 -225z" />
<glyph unicode="&#xce;" horiz-adv-x="417" d="M18 1616l293 291h101l213 -291h-136l-137 182l-192 -182h-142zM39 0l197 1401h124l-196 -1401h-125z" />
<glyph unicode="&#xcf;" horiz-adv-x="417" d="M-55 1679q0 38 27.5 66.5t62.5 28.5q36 0 60 -24t24 -60q0 -37 -27.5 -64t-64.5 -27q-35 0 -58.5 23t-23.5 57zM39 0l197 1401h124l-196 -1401h-125zM399 1679q0 38 27.5 66.5t62.5 28.5q36 0 60 -24t24 -60q0 -37 -27.5 -64t-64.5 -27q-35 0 -58.5 23t-23.5 57z" />
<glyph unicode="&#xd0;" horiz-adv-x="1650" d="M55 629l17 116h250l79 553q-84 0 -120 -36q-32 -25 -39 -68l-115 8q13 88 82 152q73 60 158 57h612q266 -23 412.5 -181.5t146.5 -422.5q0 -59 -10 -141q-50 -354 -293 -519t-684 -165q-146 0 -238 8l-59 4l-39 6l90 629h-250zM350 102q255 -10 344 -10q287 0 480.5 160 t234.5 448q8 52 8 113q0 217 -123 346t-344 139h-428l-80 -553h238l-16 -116h-238z" />
<glyph unicode="&#xd1;" horiz-adv-x="1597" d="M-20 156q0 16 2 24l114 -8q-4 -32 12.5 -49t41.5 -17q33 0 58 22.5t30 49.5l172 1223h75l189 -256l579 -836l25 -45l156 1135h120l-196 -1399h-35l-801 1153l-24 43l-138 -1026q-8 -58 -46.5 -100t-83.5 -60t-87 -18q-67 0 -115 48t-48 116zM666 1718q121 90 225 90 q67 0 152.5 -35.5t123.5 -35.5q74 0 164 69l64 -88q-69 -48 -113 -67t-117 -19q-55 0 -95.5 10.5t-59.5 23.5t-49 23.5t-66 10.5q-39 0 -76.5 -14.5t-91.5 -55.5z" />
<glyph unicode="&#xd2;" horiz-adv-x="1656" d="M98 578q0 32 8 102l5 39q20 145 94 278.5t181 232t247.5 157.5t286.5 59q135 0 253 -50t200 -136t128.5 -202.5t46.5 -246.5q0 -47 -6 -100l-6 -39q-21 -148 -94.5 -282.5t-180.5 -232t-245 -155t-283 -57.5q-181 0 -327 84.5t-227 229t-81 319.5zM213 582 q0 -226 146.5 -375.5t367.5 -149.5q124 0 244 50.5t213 135t157 199t82 238.5l4 39q7 54 7 90q0 112 -40 209.5t-108.5 166.5t-164 108.5t-203.5 39.5q-125 0 -245.5 -51.5t-212.5 -136.5t-155 -199t-80 -235l-6 -39q-6 -46 -6 -90zM639 1763l88 101l291 -256l-53 -70z" />
<glyph unicode="&#xd3;" horiz-adv-x="1656" d="M98 578q0 32 8 102l5 39q20 145 94 278.5t181 232t247.5 157.5t286.5 59q135 0 253 -50t200 -136t128.5 -202.5t46.5 -246.5q0 -47 -6 -100l-6 -39q-21 -148 -94.5 -282.5t-180.5 -232t-245 -155t-283 -57.5q-181 0 -327 84.5t-227 229t-81 319.5zM213 582 q0 -226 146.5 -375.5t367.5 -149.5q124 0 244 50.5t213 135t157 199t82 238.5l4 39q7 54 7 90q0 112 -40 209.5t-108.5 166.5t-164 108.5t-203.5 39.5q-125 0 -245.5 -51.5t-212.5 -136.5t-155 -199t-80 -235l-6 -39q-6 -46 -6 -90zM893 1608l356 256l60 -101l-379 -225z " />
<glyph unicode="&#xd4;" horiz-adv-x="1656" d="M98 578q0 32 8 102l5 39q20 145 94 278.5t181 232t247.5 157.5t286.5 59q135 0 253 -50t200 -136t128.5 -202.5t46.5 -246.5q0 -47 -6 -100l-6 -39q-21 -148 -94.5 -282.5t-180.5 -232t-245 -155t-283 -57.5q-181 0 -327 84.5t-227 229t-81 319.5zM213 582 q0 -226 146.5 -375.5t367.5 -149.5q124 0 244 50.5t213 135t157 199t82 238.5l4 39q7 54 7 90q0 112 -40 209.5t-108.5 166.5t-164 108.5t-203.5 39.5q-125 0 -245.5 -51.5t-212.5 -136.5t-155 -199t-80 -235l-6 -39q-6 -46 -6 -90zM645 1616l293 291h100l213 -291h-135 l-137 182l-193 -182h-141z" />
<glyph unicode="&#xd5;" horiz-adv-x="1656" d="M98 578q0 32 8 102l5 39q20 145 94 278.5t181 232t247.5 157.5t286.5 59q135 0 253 -50t200 -136t128.5 -202.5t46.5 -246.5q0 -47 -6 -100l-6 -39q-21 -148 -94.5 -282.5t-180.5 -232t-245 -155t-283 -57.5q-181 0 -327 84.5t-227 229t-81 319.5zM213 582 q0 -226 146.5 -375.5t367.5 -149.5q124 0 244 50.5t213 135t157 199t82 238.5l4 39q7 54 7 90q0 112 -40 209.5t-108.5 166.5t-164 108.5t-203.5 39.5q-125 0 -245.5 -51.5t-212.5 -136.5t-155 -199t-80 -235l-6 -39q-6 -46 -6 -90zM600 1718q121 90 225 90q67 0 153 -35.5 t124 -35.5q74 0 164 69l63 -88q-48 -34 -72.5 -48.5t-65 -26t-91.5 -11.5q-55 0 -95.5 10.5t-60 23.5t-49.5 23.5t-66 10.5q-39 0 -76 -14.5t-91 -55.5z" />
<glyph unicode="&#xd6;" horiz-adv-x="1656" d="M98 578q0 32 8 102l5 39q20 145 94 278.5t181 232t247.5 157.5t286.5 59q135 0 253 -50t200 -136t128.5 -202.5t46.5 -246.5q0 -47 -6 -100l-6 -39q-21 -148 -94.5 -282.5t-180.5 -232t-245 -155t-283 -57.5q-181 0 -327 84.5t-227 229t-81 319.5zM213 582 q0 -226 146.5 -375.5t367.5 -149.5q124 0 244 50.5t213 135t157 199t82 238.5l4 39q7 54 7 90q0 112 -40 209.5t-108.5 166.5t-164 108.5t-203.5 39.5q-125 0 -245.5 -51.5t-212.5 -136.5t-155 -199t-80 -235l-6 -39q-6 -46 -6 -90zM571 1679q0 38 27.5 66.5t63.5 28.5 t59.5 -24t23.5 -60q0 -37 -27.5 -64t-64.5 -27q-35 0 -58.5 23t-23.5 57zM1026 1679q0 38 27.5 66.5t62.5 28.5q36 0 60 -24t24 -60q0 -37 -27.5 -64t-64.5 -27q-35 0 -58.5 23t-23.5 57z" />
<glyph unicode="&#xd7;" horiz-adv-x="1054" d="M68 238l348 305l-250 293l96 88l250 -293l332 293l76 -84l-330 -291l262 -305l-96 -88l-264 305l-349 -307z" />
<glyph unicode="&#xd8;" horiz-adv-x="1656" d="M98 578q0 32 8 102l5 39q20 145 94 278.5t181 232t247.5 157.5t286.5 59q174 0 319 -82l14 16l123 -39l-39 -49q100 -87 155.5 -212t55.5 -269q0 -47 -6 -100l-6 -39q-21 -148 -94.5 -282.5t-180.5 -232t-245 -155t-283 -57.5q-226 0 -391 127l-111 -135l-125 38l148 181 q-156 177 -156 422zM213 582q0 -197 113 -338l839 1028q-113 61 -247 61q-125 0 -245.5 -51.5t-212.5 -136.5t-155 -199t-80 -235l-6 -39q-6 -46 -6 -90zM414 160q131 -103 313 -103q124 0 244 50.5t213 135t157 199t82 238.5l4 39q7 54 7 90q0 119 -45 221t-125 174z" />
<glyph unicode="&#xd9;" horiz-adv-x="1533" d="M145 1333q33 39 81 62.5t93 23.5q85 0 133 -43t48 -121q0 -27 -2 -41l-95 -669q-6 -47 -6 -88q0 -163 91 -263t268 -100q89 0 166.5 27t132.5 72t97 105t65.5 124t33.5 131l119 850h125l-121 -858q-15 -107 -60.5 -205t-119 -179.5t-186 -130t-248.5 -48.5 q-119 0 -213 37t-153 102.5t-89.5 150.5t-30.5 185q0 38 7 96l94 670q7 73 -51 73q-54 0 -82 -36zM666 1763l88 101l290 -256l-53 -70z" />
<glyph unicode="&#xda;" horiz-adv-x="1533" d="M145 1333q33 39 81 62.5t93 23.5q85 0 133 -43t48 -121q0 -27 -2 -41l-95 -669q-6 -47 -6 -88q0 -163 91 -263t268 -100q89 0 166.5 27t132.5 72t97 105t65.5 124t33.5 131l119 850h125l-121 -858q-15 -107 -60.5 -205t-119 -179.5t-186 -130t-248.5 -48.5 q-119 0 -213 37t-153 102.5t-89.5 150.5t-30.5 185q0 38 7 96l94 670q7 73 -51 73q-54 0 -82 -36zM920 1608l356 256l59 -101l-379 -225z" />
<glyph unicode="&#xdb;" horiz-adv-x="1533" d="M145 1333q33 39 81 62.5t93 23.5q85 0 133 -43t48 -121q0 -27 -2 -41l-95 -669q-6 -47 -6 -88q0 -163 91 -263t268 -100q89 0 166.5 27t132.5 72t97 105t65.5 124t33.5 131l119 850h125l-121 -858q-15 -107 -60.5 -205t-119 -179.5t-186 -130t-248.5 -48.5 q-119 0 -213 37t-153 102.5t-89.5 150.5t-30.5 185q0 38 7 96l94 670q7 73 -51 73q-54 0 -82 -36zM672 1616l293 291h100l213 -291h-135l-137 182l-193 -182h-141z" />
<glyph unicode="&#xdc;" horiz-adv-x="1533" d="M145 1333q33 39 81 62.5t93 23.5q85 0 133 -43t48 -121q0 -27 -2 -41l-95 -669q-6 -47 -6 -88q0 -163 91 -263t268 -100q89 0 166.5 27t132.5 72t97 105t65.5 124t33.5 131l119 850h125l-121 -858q-15 -107 -60.5 -205t-119 -179.5t-186 -130t-248.5 -48.5 q-119 0 -213 37t-153 102.5t-89.5 150.5t-30.5 185q0 38 7 96l94 670q7 73 -51 73q-54 0 -82 -36zM598 1679q0 38 27.5 66.5t62.5 28.5q36 0 60 -24t24 -60q0 -37 -27.5 -64t-64.5 -27q-35 0 -58.5 23t-23.5 57zM1053 1679q0 38 27.5 66.5t62.5 28.5q36 0 60 -24t24 -60 q0 -37 -27.5 -64t-64.5 -27q-35 0 -58.5 23t-23.5 57z" />
<glyph unicode="&#xdd;" horiz-adv-x="1294" d="M133 1255q19 79 79 122.5t128 43.5q108 0 154 -100l233 -571l457 653h147l-553 -791l-84 -612h-135l94 608l-268 660q-15 32 -51 32q-29 0 -53.5 -18.5t-28.5 -46.5zM788 1608l357 256l59 -101l-379 -225z" />
<glyph unicode="&#xde;" horiz-adv-x="1095" d="M37 0l196 1401h125l-34 -248h315q161 -9 251.5 -103.5t90.5 -252.5q0 -41 -6 -84q-16 -111 -65 -195.5t-123 -135.5t-164 -76t-195 -25q-67 0 -117 8l6 112q68 -10 117 -10q168 0 283 87t139 259q4 23 4 64q0 119 -69.5 180t-198.5 61h-285l-145 -1042h-125z" />
<glyph unicode="&#xdf;" horiz-adv-x="1060" d="M-35 -512l215 1528q12 84 29.5 152.5t48.5 132.5t72.5 107t103 69t137.5 26q125 0 194 -61.5t69 -163.5q0 -20 -3 -41q-8 -57 -34.5 -100t-59.5 -70.5t-66 -53.5t-58.5 -62t-32.5 -83q-2 -8 -2 -24q0 -37 16.5 -67t44.5 -52.5t58 -41.5t65 -45t57 -52q70 -76 70 -205 q0 -20 -4 -66q-13 -92 -55.5 -159t-106.5 -104.5t-139 -54.5t-164 -17q-61 0 -258 16h-12l-72 -508h-113zM160 102q125 -16 229 -16q186 0 276 56.5t109 187.5q4 18 4 53q0 92 -65 166q-25 25 -62.5 50.5t-66.5 44.5t-56.5 44t-43 60.5t-15.5 82.5q0 14 4 46q9 59 35 103.5 t57.5 71t63 51.5t56 60t30.5 82q2 10 2 27q0 61 -40.5 93t-107.5 32q-55 0 -99 -22.5t-72.5 -57t-50.5 -87t-34 -103t-22 -113.5z" />
<glyph unicode="&#xe0;" horiz-adv-x="1255" d="M76 408q0 34 8 104q33 237 185 382.5t380 145.5q118 0 248 -18h117l-121 -862q-4 -32 12 -50t41 -18q45 0 72 35l86 -68q-60 -79 -156 -79q-73 0 -120.5 47t-45.5 114q-115 -161 -327 -161q-186 0 -282.5 119.5t-96.5 308.5zM193 412q0 -91 26.5 -162.5t87.5 -117.5 t150 -46q97 0 178 48t127 124q39 55 51 131l78 529q-31 0 -124 8t-128 8q-179 0 -296 -122t-144 -312q-6 -44 -6 -88zM434 1403l88 100l291 -256l-53 -69z" />
<glyph unicode="&#xe1;" horiz-adv-x="1255" d="M76 408q0 34 8 104q33 237 185 382.5t380 145.5q118 0 248 -18h117l-121 -862q-4 -32 12 -50t41 -18q45 0 72 35l86 -68q-60 -79 -156 -79q-73 0 -120.5 47t-45.5 114q-115 -161 -327 -161q-186 0 -282.5 119.5t-96.5 308.5zM193 412q0 -91 26.5 -162.5t87.5 -117.5 t150 -46q97 0 178 48t127 124q39 55 51 131l78 529q-31 0 -124 8t-128 8q-179 0 -296 -122t-144 -312q-6 -44 -6 -88zM688 1247l356 256l60 -100l-379 -225z" />
<glyph unicode="&#xe2;" horiz-adv-x="1255" d="M76 408q0 34 8 104q33 237 185 382.5t380 145.5q118 0 248 -18h117l-121 -862q-4 -32 12 -50t41 -18q45 0 72 35l86 -68q-60 -79 -156 -79q-73 0 -120.5 47t-45.5 114q-115 -161 -327 -161q-186 0 -282.5 119.5t-96.5 308.5zM193 412q0 -91 26.5 -162.5t87.5 -117.5 t150 -46q97 0 178 48t127 124q39 55 51 131l78 529q-31 0 -124 8t-128 8q-179 0 -296 -122t-144 -312q-6 -44 -6 -88zM440 1255l293 291h101l213 -291h-136l-137 183l-192 -183h-142z" />
<glyph unicode="&#xe3;" horiz-adv-x="1255" d="M76 408q0 34 8 104q33 237 185 382.5t380 145.5q118 0 248 -18h117l-121 -862q-4 -32 12 -50t41 -18q45 0 72 35l86 -68q-60 -79 -156 -79q-73 0 -120.5 47t-45.5 114q-115 -161 -327 -161q-186 0 -282.5 119.5t-96.5 308.5zM193 412q0 -91 26.5 -162.5t87.5 -117.5 t150 -46q97 0 178 48t127 124q39 55 51 131l78 529q-31 0 -124 8t-128 8q-179 0 -296 -122t-144 -312q-6 -44 -6 -88zM395 1358q121 90 226 90q67 0 152.5 -36t123.5 -36q72 0 164 70l63 -88q-48 -34 -72.5 -48.5t-65 -26t-91.5 -11.5q-70 0 -114 17t-77.5 33.5t-78.5 16.5 q-40 0 -77 -14.5t-91 -54.5z" />
<glyph unicode="&#xe4;" horiz-adv-x="1255" d="M76 408q0 34 8 104q33 237 185 382.5t380 145.5q118 0 248 -18h117l-121 -862q-4 -32 12 -50t41 -18q45 0 72 35l86 -68q-60 -79 -156 -79q-73 0 -120.5 47t-45.5 114q-115 -161 -327 -161q-186 0 -282.5 119.5t-96.5 308.5zM193 412q0 -91 26.5 -162.5t87.5 -117.5 t150 -46q97 0 178 48t127 124q39 55 51 131l78 529q-31 0 -124 8t-128 8q-179 0 -296 -122t-144 -312q-6 -44 -6 -88zM367 1319q0 38 27 66t63 28t60 -24t24 -60q0 -37 -27.5 -63.5t-64.5 -26.5q-35 0 -58.5 23t-23.5 57zM821 1319q0 38 27 66t63 28t60 -24t24 -60 q0 -37 -27.5 -63.5t-64.5 -26.5q-35 0 -58.5 23t-23.5 57z" />
<glyph unicode="&#xe5;" horiz-adv-x="1255" d="M76 408q0 34 8 104q33 237 185 382.5t380 145.5q118 0 248 -18h117l-121 -862q-4 -32 12 -50t41 -18q45 0 72 35l86 -68q-60 -79 -156 -79q-73 0 -120.5 47t-45.5 114q-115 -161 -327 -161q-186 0 -282.5 119.5t-96.5 308.5zM193 412q0 -91 26.5 -162.5t87.5 -117.5 t150 -46q97 0 178 48t127 124q39 55 51 131l78 529q-31 0 -124 8t-128 8q-179 0 -296 -122t-144 -312q-6 -44 -6 -88zM551 1313q0 110 62.5 178t166.5 68q88 0 137.5 -48t49.5 -131q0 -110 -66 -176.5t-168 -66.5q-86 0 -134 47.5t-48 128.5zM649 1309q0 -40 22 -62t60 -22 q60 0 99.5 45t39.5 110q0 41 -23 64.5t-63 23.5q-60 0 -97.5 -44t-37.5 -115z" />
<glyph unicode="&#xe6;" horiz-adv-x="1691" d="M45 225q0 116 57 195q65 84 180.5 118.5t235.5 34.5h203l16 119q6 44 6 78q0 66 -28 111q-45 53 -142 53q-90 0 -180 -37q-76 -23 -149 -76l-49 90q74 55 170 95q104 34 200 34q141 0 203 -65q67 -58 76 -156q60 92 162 164q102 57 211 57q168 0 256 -88q83 -70 83 -186 q0 -105 -59 -193q-86 -110 -260 -147q-88 -16 -174 -16l-246 -4q-3 -162 64 -242q78 -78 225 -78q89 0 174 33q81 23 166 67l45 -90q-67 -43 -176 -86q-99 -30 -211 -30q-158 0 -248 69q-46 30 -75.5 71.5t-47.5 110.5q-11 -34 -21.5 -57t-41.5 -61.5t-74 -67.5 q-111 -65 -250 -65q-157 0 -231 77q-70 60 -70 168zM160 219q0 -133 174 -133q142 0 237 76q49 35 81 90t40 115l15 102h-195q-142 0 -221 -39q-110 -44 -129 -174q-2 -12 -2 -37zM825 512l244 4q194 0 285 74q86 61 86 180q0 85 -60 127.5t-149 42.5q-162 0 -270 -135 q-112 -125 -136 -293z" />
<glyph unicode="&#xe7;" horiz-adv-x="1064" d="M74 387q0 60 8 109q22 155 91 280t180 199t245 74q140 0 237 -76t97 -199q0 -27 -2 -41l-115 8q2 10 2 33q0 85 -59.5 129.5t-149.5 44.5q-71 0 -134 -28t-109 -74.5t-82 -108t-57 -127t-31 -133.5q-7 -54 -7 -86q0 -142 75.5 -219.5t215.5 -77.5q85 0 165.5 26.5 t176.5 74.5l47 -91q-173 -107 -356 -116l-27 -68q62 -7 93.5 -50.5t31.5 -105.5q0 -22 -2 -32q-10 -81 -73 -144t-158 -63l8 108q50 0 84.5 41t34.5 90q0 62 -84 62h-68l41 168q-158 23 -238.5 126t-80.5 267z" />
<glyph unicode="&#xe8;" horiz-adv-x="1069" d="M72 375q0 55 8 104q11 81 37 158.5t71 151t102.5 129t137.5 89t172 33.5q144 0 238 -75t94 -201q0 -170 -134.5 -262t-359.5 -92l-245 -4q-5 -158 63.5 -239t218.5 -81q89 0 167 25.5t179 74.5l45 -90q-185 -116 -391 -116q-201 0 -302 107.5t-101 287.5zM201 512l243 4 q101 0 177.5 20.5t129.5 70.5t64 128q2 12 2 35q0 83 -59.5 126.5t-149.5 43.5q-89 0 -165 -43t-124.5 -109.5t-78.5 -137.5t-39 -138zM322 1403l88 100l290 -256l-53 -69z" />
<glyph unicode="&#xe9;" horiz-adv-x="1069" d="M72 375q0 55 8 104q11 81 37 158.5t71 151t102.5 129t137.5 89t172 33.5q144 0 238 -75t94 -201q0 -170 -134.5 -262t-359.5 -92l-245 -4q-5 -158 63.5 -239t218.5 -81q89 0 167 25.5t179 74.5l45 -90q-185 -116 -391 -116q-201 0 -302 107.5t-101 287.5zM201 512l243 4 q101 0 177.5 20.5t129.5 70.5t64 128q2 12 2 35q0 83 -59.5 126.5t-149.5 43.5q-89 0 -165 -43t-124.5 -109.5t-78.5 -137.5t-39 -138zM575 1247l357 256l59 -100l-379 -225z" />
<glyph unicode="&#xea;" horiz-adv-x="1069" d="M72 375q0 55 8 104q11 81 37 158.5t71 151t102.5 129t137.5 89t172 33.5q144 0 238 -75t94 -201q0 -170 -134.5 -262t-359.5 -92l-245 -4q-5 -158 63.5 -239t218.5 -81q89 0 167 25.5t179 74.5l45 -90q-185 -116 -391 -116q-201 0 -302 107.5t-101 287.5zM201 512l243 4 q101 0 177.5 20.5t129.5 70.5t64 128q2 12 2 35q0 83 -59.5 126.5t-149.5 43.5q-89 0 -165 -43t-124.5 -109.5t-78.5 -137.5t-39 -138zM328 1255l293 291h100l213 -291h-135l-137 183l-193 -183h-141z" />
<glyph unicode="&#xeb;" horiz-adv-x="1069" d="M72 375q0 55 8 104q11 81 37 158.5t71 151t102.5 129t137.5 89t172 33.5q144 0 238 -75t94 -201q0 -170 -134.5 -262t-359.5 -92l-245 -4q-5 -158 63.5 -239t218.5 -81q89 0 167 25.5t179 74.5l45 -90q-185 -116 -391 -116q-201 0 -302 107.5t-101 287.5zM201 512l243 4 q101 0 177.5 20.5t129.5 70.5t64 128q2 12 2 35q0 83 -59.5 126.5t-149.5 43.5q-89 0 -165 -43t-124.5 -109.5t-78.5 -137.5t-39 -138zM254 1319q0 38 27 66t63 28t60 -24t24 -60q0 -37 -27.5 -63.5t-64.5 -26.5q-35 0 -58.5 23t-23.5 57zM709 1319q0 38 27 66t63 28t60 -24 t24 -60q0 -37 -27.5 -63.5t-64.5 -26.5q-35 0 -58.5 23t-23.5 57z" />
<glyph unicode="&#xec;" horiz-adv-x="485" d="M-63 1386l88 101l290 -256l-53 -70zM37 141q0 19 2 27l121 856h112l-120 -864q-4 -31 12 -49.5t41 -18.5q44 0 67 33l90 -66q-67 -79 -157 -79q-73 0 -120.5 46.5t-47.5 114.5z" />
<glyph unicode="&#xed;" horiz-adv-x="485" d="M37 141q0 19 2 27l121 856h112l-120 -864q-4 -31 12 -49.5t41 -18.5q44 0 67 33l90 -66q-67 -79 -157 -79q-73 0 -120.5 46.5t-47.5 114.5zM190 1231l357 256l59 -101l-379 -225z" />
<glyph unicode="&#xee;" horiz-adv-x="485" d="M-57 1239l293 291h100l213 -291h-135l-138 182l-192 -182h-141zM37 141q0 19 2 27l121 856h112l-120 -864q-4 -31 12 -49.5t41 -18.5q44 0 67 33l90 -66q-67 -79 -157 -79q-73 0 -120.5 46.5t-47.5 114.5z" />
<glyph unicode="&#xef;" horiz-adv-x="485" d="M-131 1303q0 38 27 66t63 28t60 -24t24 -60q0 -37 -27.5 -63.5t-64.5 -26.5q-35 0 -58.5 23t-23.5 57zM37 141q0 19 2 27l121 856h112l-120 -864q-4 -31 12 -49.5t41 -18.5q44 0 67 33l90 -66q-67 -79 -157 -79q-73 0 -120.5 46.5t-47.5 114.5zM324 1303q0 38 27 66 t63 28t60 -24t24 -60q0 -37 -27.5 -63.5t-64.5 -26.5q-35 0 -58.5 23t-23.5 57z" />
<glyph unicode="&#xf0;" horiz-adv-x="1224" d="M76 412q0 30 8 100q33 231 183 379.5t370 148.5q96 0 221 -22l-27 151l-202 -61l-15 113l195 61l-53 213l125 37l47 -213l211 61l14 -112l-201 -64q80 -413 89 -500q6 -49 6 -88q0 -21 -9 -100q-35 -255 -174.5 -395.5t-357.5 -140.5q-205 0 -317.5 118.5t-112.5 313.5z M195 414q0 -153 79.5 -240.5t229.5 -87.5q175 0 282 113.5t134 306.5q6 50 6 102q0 126 -37 297q-32 4 -72 11.5t-69.5 11.5t-65.5 4q-209 0 -331 -112t-150 -312q-6 -50 -6 -94z" />
<glyph unicode="&#xf1;" d="M72 0l102 727q6 41 6 76q0 108 -55 166l78 63q83 -63 86 -188q86 105 179 150.5t202 45.5q145 0 221 -65t76 -195q0 -29 -2 -43l-82 -583q-4 -32 13.5 -50t43.5 -18q38 0 68 33l88 -66q-68 -80 -158 -80q-76 0 -122 47t-46 115q0 19 2 27l74 530q6 38 6 68 q0 90 -46.5 132t-143.5 42q-110 0 -195.5 -52.5t-177.5 -156.5l-105 -725h-112zM344 1358q121 90 225 90q67 0 153 -36t124 -36q72 0 164 70l63 -88q-48 -34 -72.5 -48.5t-65 -26t-91.5 -11.5q-55 0 -95.5 10.5t-60 23t-49.5 23t-66 10.5q-40 0 -76.5 -14t-90.5 -55z" />
<glyph unicode="&#xf2;" d="M78 424q0 44 6 90q33 228 192 377t383 149q204 0 325.5 -123t121.5 -323q0 -44 -6 -94q-32 -231 -193 -375.5t-383 -144.5q-206 0 -326 123t-120 321zM193 422q0 -154 88.5 -245t244.5 -91q186 0 310 123t151 315q6 40 6 78q0 154 -88 243t-243 89q-189 0 -312.5 -122.5 t-150.5 -311.5q-6 -40 -6 -78zM387 1403l88 100l291 -256l-53 -69z" />
<glyph unicode="&#xf3;" d="M78 424q0 44 6 90q33 228 192 377t383 149q204 0 325.5 -123t121.5 -323q0 -44 -6 -94q-32 -231 -193 -375.5t-383 -144.5q-206 0 -326 123t-120 321zM193 422q0 -154 88.5 -245t244.5 -91q186 0 310 123t151 315q6 40 6 78q0 154 -88 243t-243 89q-189 0 -312.5 -122.5 t-150.5 -311.5q-6 -40 -6 -78zM641 1247l356 256l60 -100l-379 -225z" />
<glyph unicode="&#xf4;" d="M78 424q0 44 6 90q33 228 192 377t383 149q204 0 325.5 -123t121.5 -323q0 -44 -6 -94q-32 -231 -193 -375.5t-383 -144.5q-206 0 -326 123t-120 321zM193 422q0 -154 88.5 -245t244.5 -91q186 0 310 123t151 315q6 40 6 78q0 154 -88 243t-243 89q-189 0 -312.5 -122.5 t-150.5 -311.5q-6 -40 -6 -78zM393 1255l293 291h100l213 -291h-135l-137 183l-192 -183h-142z" />
<glyph unicode="&#xf5;" d="M78 424q0 44 6 90q33 228 192 377t383 149q204 0 325.5 -123t121.5 -323q0 -44 -6 -94q-32 -231 -193 -375.5t-383 -144.5q-206 0 -326 123t-120 321zM193 422q0 -154 88.5 -245t244.5 -91q186 0 310 123t151 315q6 40 6 78q0 154 -88 243t-243 89q-189 0 -312.5 -122.5 t-150.5 -311.5q-6 -40 -6 -78zM348 1358q121 90 225 90q67 0 153 -36t124 -36q72 0 164 70l63 -88q-48 -34 -72.5 -48.5t-65 -26t-91.5 -11.5q-70 0 -114 17t-77.5 33.5t-78.5 16.5q-40 0 -77 -14.5t-91 -54.5z" />
<glyph unicode="&#xf6;" d="M78 424q0 44 6 90q33 228 192 377t383 149q204 0 325.5 -123t121.5 -323q0 -44 -6 -94q-32 -231 -193 -375.5t-383 -144.5q-206 0 -326 123t-120 321zM193 422q0 -154 88.5 -245t244.5 -91q186 0 310 123t151 315q6 40 6 78q0 154 -88 243t-243 89q-189 0 -312.5 -122.5 t-150.5 -311.5q-6 -40 -6 -78zM319 1319q0 38 27.5 66t63.5 28t60 -24t24 -60t-28 -63t-65 -27q-35 0 -58.5 23t-23.5 57zM774 1319q0 38 27 66t63 28t60 -24t24 -60q0 -37 -27.5 -63.5t-64.5 -26.5q-35 0 -58.5 23t-23.5 57z" />
<glyph unicode="&#xf7;" horiz-adv-x="1003" d="M96 549l15 104h761l-14 -104h-762zM281 287q0 38 27 66t63 28t60 -24t24 -60t-28 -63t-65 -27q-35 0 -58 23t-23 57zM367 899q0 38 27 66t63 28t60 -24t24 -60q0 -37 -27.5 -63.5t-64.5 -26.5q-35 0 -58.5 23t-23.5 57z" />
<glyph unicode="&#xf8;" horiz-adv-x="1249" d="M78 420q0 46 6 92q33 228 192 378t381 150q144 0 238 -57l61 80l97 -62l-72 -79q127 -121 127 -324q0 -46 -6 -92q-18 -127 -76.5 -230t-139.5 -167t-174.5 -98t-189.5 -34q-130 0 -235 60l-58 -80l-96 61l68 78q-123 114 -123 324zM193 410q0 -143 71 -226l565 707 q-49 43 -151 43q-191 0 -321 -119t-158 -321q-6 -44 -6 -84zM354 119q77 -35 170 -35q109 0 205.5 50.5t167.5 155t92 245.5q6 40 6 77q0 142 -73 224z" />
<glyph unicode="&#xf9;" horiz-adv-x="1277" d="M123 948l72 90q61 -49 97 -99.5t36 -115.5q0 -20 -2 -30l-64 -461q-6 -38 -6 -68q0 -90 47.5 -132t145.5 -42q109 0 191 49.5t177 157.5l107 727h112l-123 -866q-4 -32 13 -50t43 -18q41 0 67 33l90 -68q-69 -78 -155 -78q-75 0 -122.5 46.5t-47.5 115.5q0 4 1 11.5 t1 11.5q-86 -97 -171.5 -137.5t-193.5 -40.5q-145 0 -221 65t-76 195q0 29 2 43l72 514q5 32 -13.5 64.5t-34.5 46.5t-44 36zM334 1386l88 101l291 -256l-54 -70z" />
<glyph unicode="&#xfa;" horiz-adv-x="1277" d="M123 948l72 90q61 -49 97 -99.5t36 -115.5q0 -20 -2 -30l-64 -461q-6 -38 -6 -68q0 -90 47.5 -132t145.5 -42q109 0 191 49.5t177 157.5l107 727h112l-123 -866q-4 -32 13 -50t43 -18q41 0 67 33l90 -68q-69 -78 -155 -78q-75 0 -122.5 46.5t-47.5 115.5q0 4 1 11.5 t1 11.5q-86 -97 -171.5 -137.5t-193.5 -40.5q-145 0 -221 65t-76 195q0 29 2 43l72 514q5 32 -13.5 64.5t-34.5 46.5t-44 36zM588 1231l356 256l60 -101l-379 -225z" />
<glyph unicode="&#xfb;" horiz-adv-x="1277" d="M123 948l72 90q61 -49 97 -99.5t36 -115.5q0 -20 -2 -30l-64 -461q-6 -38 -6 -68q0 -90 47.5 -132t145.5 -42q109 0 191 49.5t177 157.5l107 727h112l-123 -866q-4 -32 13 -50t43 -18q41 0 67 33l90 -68q-69 -78 -155 -78q-75 0 -122.5 46.5t-47.5 115.5q0 4 1 11.5 t1 11.5q-86 -97 -171.5 -137.5t-193.5 -40.5q-145 0 -221 65t-76 195q0 29 2 43l72 514q5 32 -13.5 64.5t-34.5 46.5t-44 36zM340 1239l293 291h100l213 -291h-135l-137 182l-193 -182h-141z" />
<glyph unicode="&#xfc;" horiz-adv-x="1277" d="M123 948l72 90q61 -49 97 -99.5t36 -115.5q0 -20 -2 -30l-64 -461q-6 -38 -6 -68q0 -90 47.5 -132t145.5 -42q109 0 191 49.5t177 157.5l107 727h112l-123 -866q-4 -32 13 -50t43 -18q41 0 67 33l90 -68q-69 -78 -155 -78q-75 0 -122.5 46.5t-47.5 115.5q0 4 1 11.5 t1 11.5q-86 -97 -171.5 -137.5t-193.5 -40.5q-145 0 -221 65t-76 195q0 29 2 43l72 514q5 32 -13.5 64.5t-34.5 46.5t-44 36zM266 1303q0 38 27 66t63 28t60 -24t24 -60q0 -37 -27.5 -63.5t-64.5 -26.5q-35 0 -58.5 23t-23.5 57zM721 1303q0 38 27 66t63 28t60 -24t24 -60 q0 -37 -27.5 -63.5t-64.5 -26.5q-35 0 -58.5 23t-23.5 57z" />
<glyph unicode="&#xfd;" horiz-adv-x="1134" d="M123 948l72 90q65 -57 99 -105t34 -110q0 -20 -2 -30l-64 -461q-6 -38 -6 -68q0 -174 188 -174q101 0 180.5 43.5t157.5 128.5q24 26 33 45.5t12 46.5l97 670h112l-106 -743l-74 -525q-23 -163 -116.5 -251.5t-225.5 -88.5q-130 0 -200 80t-70 197q0 74 37.5 164.5 t105.5 130.5q-120 10 -184 72.5t-64 168.5q0 38 4 58l72 514q4 34 -27 77.5t-65 69.5zM352 -309q0 -76 40.5 -121t117.5 -45q94 0 159 64.5t79 166.5l53 365l-25 -23q-68 -55 -121 -78l-108 -53q-88 -43 -134.5 -97.5t-58.5 -137.5q-2 -14 -2 -41zM612 1231l357 256l59 -101 l-379 -225z" />
<glyph unicode="&#xfe;" horiz-adv-x="1110" d="M-35 -510l281 1997l112 -4q-60 -414 -98 -609q122 168 334 168q184 0 281.5 -121t97.5 -309q0 -34 -8 -104q-22 -153 -95 -271t-195 -186.5t-276 -68.5q-115 0 -245 18l-76 -510h-113zM160 106q187 -18 227 -18q198 0 316 115.5t145 308.5q6 46 6 94q0 144 -65.5 237 t-192.5 93q-117 0 -219.5 -73.5t-132.5 -192.5z" />
<glyph unicode="&#xff;" horiz-adv-x="1134" d="M123 948l72 90q65 -57 99 -105t34 -110q0 -20 -2 -30l-64 -461q-6 -38 -6 -68q0 -174 188 -174q101 0 180.5 43.5t157.5 128.5q24 26 33 45.5t12 46.5l97 670h112l-106 -743l-74 -525q-23 -163 -116.5 -251.5t-225.5 -88.5q-130 0 -200 80t-70 197q0 74 37.5 164.5 t105.5 130.5q-120 10 -184 72.5t-64 168.5q0 38 4 58l72 514q4 34 -27 77.5t-65 69.5zM291 1303q0 38 27 66t63 28t60 -24t24 -60q0 -37 -27.5 -63.5t-64.5 -26.5q-35 0 -58.5 23t-23.5 57zM352 -309q0 -76 40.5 -121t117.5 -45q94 0 159 64.5t79 166.5l53 365l-25 -23 q-68 -55 -121 -78l-108 -53q-88 -43 -134.5 -97.5t-58.5 -137.5q-2 -14 -2 -41zM745 1303q0 38 27.5 66t63.5 28t60 -24t24 -60t-28 -63t-65 -27q-35 0 -58.5 23t-23.5 57z" />
<glyph unicode="&#x152;" horiz-adv-x="2547" d="M98 578q0 32 8 102l5 39q20 145 94 278.5t181 232t247.5 157.5t286.5 59q215 0 376 -119t222 -311l53 385h917l-16 -117h-797l-67 -485h592l-17 -117h-592l-80 -565h838l-16 -117h-959l51 358q-112 -187 -298 -300t-394 -113q-181 0 -327 84.5t-227 229t-81 319.5z M213 582q0 -226 146.5 -375.5t367.5 -149.5q124 0 244 50.5t213 135t157 199t82 238.5l4 39q7 54 7 90q0 112 -40 209.5t-108.5 166.5t-164 108.5t-203.5 39.5q-125 0 -245.5 -51.5t-212.5 -136.5t-155 -199t-80 -235l-6 -39q-6 -46 -6 -90z" />
<glyph unicode="&#x153;" horiz-adv-x="1955" d="M78 424q0 44 6 90q33 230 193 378t385 148q156 0 261.5 -74t143.5 -210q67 133 175 208.5t249 75.5q143 0 236.5 -73t93.5 -201q0 -17 -4 -49q-12 -83 -57.5 -144t-115 -95.5t-148.5 -51t-169 -16.5l-244 -4q-4 -164 65 -242t216 -78q90 0 167.5 25t178.5 75l45 -90 q-181 -116 -387 -116q-162 0 -255 70t-118 198q-83 -136 -204.5 -202t-264.5 -66q-207 0 -327.5 122t-120.5 322zM193 428q0 -155 87.5 -248.5t243.5 -93.5q185 0 310.5 123.5t152.5 314.5q6 40 6 78q0 153 -88.5 242.5t-242.5 89.5q-183 0 -309 -119.5t-154 -310.5 q-6 -41 -6 -76zM1092 512l241 4q337 0 369 221q2 12 2 37q0 83 -60.5 124.5t-144.5 41.5q-82 0 -155 -38.5t-123.5 -100.5t-84 -137t-44.5 -152z" />
<glyph unicode="&#x178;" horiz-adv-x="1294" d="M133 1255q19 79 79 122.5t128 43.5q108 0 154 -100l233 -571l457 653h147l-553 -791l-84 -612h-135l94 608l-268 660q-15 32 -51 32q-29 0 -53.5 -18.5t-28.5 -46.5zM467 1679q0 38 27.5 66.5t62.5 28.5q36 0 60 -24t24 -60q0 -37 -27.5 -64t-64.5 -27q-35 0 -58.5 23 t-23.5 57zM922 1679q0 38 27.5 66.5t62.5 28.5q36 0 60 -24t24 -60q0 -37 -27.5 -64t-64.5 -27q-35 0 -58.5 23t-23.5 57z" />
<glyph unicode="&#x2c6;" horiz-adv-x="860" d="M195 1239l292 291h101l213 -291h-135l-138 182l-192 -182h-141z" />
<glyph unicode="&#x2dc;" horiz-adv-x="1028" d="M244 1341q122 91 225 91q67 0 152.5 -36t123.5 -36q72 0 164 70l64 -89q-69 -48 -113 -67t-117 -19q-55 0 -95.5 10.5t-59.5 23.5t-49 23.5t-66 10.5q-39 0 -76.5 -14.5t-91.5 -55.5z" />
<glyph unicode="&#x2000;" horiz-adv-x="961" />
<glyph unicode="&#x2001;" horiz-adv-x="1923" />
<glyph unicode="&#x2002;" horiz-adv-x="961" />
<glyph unicode="&#x2003;" horiz-adv-x="1923" />
<glyph unicode="&#x2004;" horiz-adv-x="641" />
<glyph unicode="&#x2005;" horiz-adv-x="480" />
<glyph unicode="&#x2006;" horiz-adv-x="320" />
<glyph unicode="&#x2007;" horiz-adv-x="320" />
<glyph unicode="&#x2008;" horiz-adv-x="240" />
<glyph unicode="&#x2009;" horiz-adv-x="384" />
<glyph unicode="&#x200a;" horiz-adv-x="106" />
<glyph unicode="&#x2010;" horiz-adv-x="892" d="M119 567l16 117h608l-16 -117h-608z" />
<glyph unicode="&#x2011;" horiz-adv-x="892" d="M119 567l16 117h608l-16 -117h-608z" />
<glyph unicode="&#x2012;" horiz-adv-x="892" d="M119 567l16 117h608l-16 -117h-608z" />
<glyph unicode="&#x2013;" horiz-adv-x="1112" d="M96 567l17 117h874l-16 -117h-875z" />
<glyph unicode="&#x2014;" horiz-adv-x="1439" d="M96 567l17 117h1202l-17 -117h-1202z" />
<glyph unicode="&#x2018;" horiz-adv-x="430" d="M166 1116l4 21q12 84 55 172q42 80 127 137l66 -72q-95 -83 -119 -246l-2 -20q-3 -25 -21 -49q-24 -15 -45 -15q-37 0 -49 25q-19 16 -16 47z" />
<glyph unicode="&#x2019;" horiz-adv-x="430" d="M154 1094q94 82 118 245l2 21q3 26 23 49q20 14 45 14q35 0 47 -24q20 -17 17 -47l-5 -21q-12 -84 -55 -172q-44 -83 -127 -137z" />
<glyph unicode="&#x201a;" horiz-adv-x="430" d="M-23 -156q98 86 119 246l2 21q6 26 23 49q22 14 45 14q35 0 47 -24q19 -16 16 -48l-4 -20q-9 -82 -53 -172q-50 -86 -129 -137z" />
<glyph unicode="&#x201c;" horiz-adv-x="698" d="M170 1116l4 21q12 84 55 172q42 80 127 137l66 -72q-95 -83 -119 -246l-2 -20q-3 -26 -20 -49q-24 -15 -45 -15q-38 0 -50 25q-19 16 -16 47zM426 1116l4 21q12 84 55 172q42 80 127 137l66 -72q-95 -83 -119 -246l-2 -20q-3 -26 -20 -49q-24 -15 -45 -15q-38 0 -50 25 q-19 16 -16 47z" />
<glyph unicode="&#x201d;" horiz-adv-x="698" d="M162 1094q95 83 119 245l2 21q3 27 22 49q20 14 45 14q35 0 47 -24q20 -17 17 -47l-4 -21q-11 -81 -56 -172q-44 -83 -127 -137zM418 1094q95 83 119 245l2 21q3 27 22 49q20 14 45 14q35 0 47 -24q20 -17 17 -47l-4 -21q-11 -81 -56 -172q-44 -83 -127 -137z" />
<glyph unicode="&#x201e;" horiz-adv-x="698" d="M-14 -156q97 85 118 246l2 21q6 26 23 49q22 14 45 14q35 0 47 -24q20 -17 17 -48l-5 -20q-9 -82 -53 -172q-50 -86 -129 -137zM242 -156q97 85 118 246l2 21q6 26 23 49q22 14 45 14q35 0 47 -24q20 -17 17 -48l-5 -20q-9 -82 -53 -172q-50 -86 -129 -137z" />
<glyph unicode="&#x2022;" horiz-adv-x="575" d="M102 625q0 78 58 135t135 57q69 0 113.5 -44.5t44.5 -110.5q0 -79 -57.5 -137t-133.5 -58q-70 0 -115 45t-45 113z" />
<glyph unicode="&#x2026;" horiz-adv-x="1085" d="M-37 72q0 38 27 66t63 28t60 -24t24 -60q0 -37 -27.5 -63.5t-64.5 -26.5q-35 0 -58.5 23t-23.5 57zM291 72q0 38 27 66t63 28t60 -24t24 -60q0 -37 -27.5 -63.5t-64.5 -26.5q-35 0 -58.5 23t-23.5 57zM618 72q0 38 27.5 66t63.5 28t60 -24t24 -60t-28 -63t-65 -27 q-35 0 -58.5 23t-23.5 57z" />
<glyph unicode="&#x202f;" horiz-adv-x="384" />
<glyph unicode="&#x2039;" horiz-adv-x="776" d="M70 522q3 34 73 92l475 375l68 -84l-498 -391l387 -391l-81 -84l-371 379q-61 58 -53 104z" />
<glyph unicode="&#x203a;" horiz-adv-x="776" d="M29 123l497 391l-387 391l84 84l371 -379q29 -33 39 -55q14 -17 14 -41q0 -35 -76 -100l-473 -375z" />
<glyph unicode="&#x205f;" horiz-adv-x="480" />
<glyph unicode="&#x20ac;" horiz-adv-x="1228" d="M94 485l37 107h133l17 119h-154l37 106l137 4q28 117 80 223q48 96 126 169.5t175 111.5q110 35 240 35q80 0 217 -35l-13 -113q-111 35 -217 35q-105 0 -184 -33q-158 -53 -238 -221q-40 -82 -61 -176h506l-33 -110h-496q-14 -109 -14 -115h473l-31 -111h-446 q3 -186 82 -288q91 -101 264 -101q91 0 162 23t154 73l45 -96q-86 -60 -171 -86t-190 -26q-245 0 -362 143q-61 70 -84 157.5t-25 208.5z" />
<glyph unicode="&#x2122;" horiz-adv-x="1267" d="M172 1204l8 72h426l-8 -72h-170l-76 -528h-84l76 528h-172zM578 674l84 602h116l101 -477l235 477h119l-84 -602h-82l70 487l-230 -465h-86l-94 461l-68 -483h-81z" />
<glyph unicode="&#x25fc;" horiz-adv-x="1024" d="M0 0v1024h1024v-1024h-1024z" />
<glyph unicode="&#xfb03;" horiz-adv-x="1525" d="M-41 -532l209 1482q34 232 115 350q110 144 292 144q73 0 134.5 -23t97.5 -65q9 9 59 49q73 39 160 39q71 0 132 -30t93 -75l-94 -79q-17 34 -54 55.5t-79 21.5q-58 0 -108 -33.5t-82 -89.5q-59 -91 -82 -266l-4 -26h550l-106 -762v-13q0 -20 8 -36q25 -19 45 -19 q42 0 68 33l90 -66q-32 -37 -72 -61q-47 -18 -86 -18q-82 0 -127 57q-41 44 -41 108q0 3 1 11t1 12l92 645h-438l-190 -1345h-113l191 1345h-359l-190 -1345h-113zM276 920h359l4 30q15 104 45 199q10 36 23 61.5t22 53.5q-19 35 -62.5 54t-93.5 19q-68 0 -123.5 -33.5 t-87.5 -89.5q-58 -89 -81 -266z" />
<glyph unicode="&#xfb04;" horiz-adv-x="1634" d="M-37 -532l209 1482q34 229 115 350q101 138 270 138q156 0 227 -99l-94 -79q-36 71 -129 71q-133 0 -196 -127q-61 -104 -82 -276l-60 -414h436l64 453q16 106 40 191t71 149q99 127 268 127q142 0 209 -86q57 -60 57 -156q0 -25 -2 -37l-139 -993q0 -2 -1 -6t-1 -6 q0 -19 10 -39q19 -17 45 -17q41 0 70 33l88 -66q-24 -30 -74 -63q-40 -16 -84 -16q-85 0 -125 57q-41 41 -41 102q0 19 2 29l139 991q6 79 -34.5 122.5t-116.5 43.5q-104 0 -169 -72.5t-81 -187.5l-82 -553h303l-14 -106h-303l-133 -945h-113l133 945h-436l-133 -940h-113z " />
</font>
</defs>
</svg>
