<?xml version="1.0" standalone="no"?>
<!DOCTYPE svg PUBLIC "-//W3C//DTD SVG 1.1//EN" "http://www.w3.org/Graphics/SVG/1.1/DTD/svg11.dtd" >
<svg xmlns="http://www.w3.org/2000/svg" xmlns:xlink="http://www.w3.org/1999/xlink" version="1.1">
<metadata></metadata>
<defs>
<font id="times_new_romanbold" horiz-adv-x="1024" >
<font-face units-per-em="2048" ascent="1638" descent="-410" />
<missing-glyph horiz-adv-x="512" />
<glyph horiz-adv-x="0" />
<glyph unicode="&#xd;" horiz-adv-x="512" />
<glyph unicode=" "  horiz-adv-x="512" />
<glyph unicode="&#x09;" horiz-adv-x="512" />
<glyph unicode="&#xa0;" horiz-adv-x="512" />
<glyph unicode="!" horiz-adv-x="682" d="M175 1216q0 77 46 124t120 47q72 0 119.5 -47.5t47.5 -120.5q0 -76 -50 -284l-53 -218q-28 -116 -41 -276h-44q-7 114 -46 276l-52 218q-47 196 -47 281zM181 135q0 67 47 115t115 48q67 0 114.5 -47.5t47.5 -115.5q0 -67 -47.5 -114.5t-114.5 -47.5t-114.5 47.5 t-47.5 114.5z" />
<glyph unicode="&#x22;" horiz-adv-x="1137" d="M176 1238q0 62 43.5 105.5t104.5 43.5q70 0 109 -45.5t39 -98.5q0 -45 -24 -139l-99 -383h-49l-104 385q-20 75 -20 132zM657 1241q0 58 44.5 102t106.5 44q71 0 108.5 -47t37.5 -96q0 -35 -26 -139l-96 -384h-50l-101 384q-24 88 -24 136z" />
<glyph unicode="#" d="M40 396v133h162l59 292h-221v130h247l87 433h132l-88 -433h295l86 433h132l-88 -433h140v-130h-165l-60 -292h225v-133h-250l-86 -424h-133l86 424h-291l-90 -424h-129l86 424h-136zM335 529h294l58 292h-294z" />
<glyph unicode="$" d="M79 992q0 130 100 229.5t300 124.5v47h87v-47q170 -12 342 -105v-289h-39q-29 98 -69.5 161t-104.5 108q-49 33 -129 55v-441q239 -151 305 -228q88 -104 88 -245q0 -154 -104 -260.5t-289 -122.5v-117h-87v110q-106 2 -188 17.5t-188 56.5v323h42q20 -110 63 -178 t108.5 -102.5t162.5 -42.5v494q-241 151 -320.5 241.5t-79.5 210.5zM292 1111q0 -46 32.5 -93t154.5 -128v389q-73 -6 -117 -40q-70 -53 -70 -128zM566 46q86 20 126 68.5t40 121.5q0 63 -35.5 118t-130.5 125v-433z" />
<glyph unicode="%" horiz-adv-x="2048" d="M142 1017q0 165 97 267.5t239 102.5t239.5 -100.5t97.5 -259.5q0 -163 -98 -264.5t-243 -101.5q-143 0 -237.5 98t-94.5 258zM392 1008q0 -141 17 -218q10 -44 34 -66q15 -13 35 -13q22 0 35 12q23 21 34 68q17 76 17 213q0 168 -16 243q-11 52 -36 76q-12 11 -34 11 t-36 -13q-25 -23 -37.5 -79.5t-12.5 -233.5zM476 -57l962 1444h135l-963 -1444h-134zM1234 308q0 161 95 262t237 101q145 0 242.5 -99.5t97.5 -260.5q0 -163 -99 -265t-239 -102q-139 0 -236.5 102t-97.5 262zM1485 322q0 -164 15 -236q11 -51 37 -74q13 -12 34 -12 q19 0 31 11q25 23 37 75q17 73 17 221q0 156 -16 228q-12 52 -36 73q-12 11 -35 11q-20 0 -34 -12q-24 -22 -37 -76.5t-13 -208.5z" />
<glyph unicode="&#x26;" horiz-adv-x="1706" d="M82 314q0 150 107 261t311 192q-26 65 -39 127t-13 120q0 160 112.5 266.5t287.5 106.5q141 0 223.5 -70.5t82.5 -164.5q0 -113 -84.5 -193.5t-267.5 -147.5q113 -199 331 -429q147 165 147 283q0 42 -29 71.5t-85 35.5v39h416v-39q-70 -10 -110 -41.5t-104 -146.5 t-180 -257q102 -92 166 -128q45 -25 88 -25q74 0 134 97l41 -22q-82 -161 -175 -229q-71 -51 -162 -51q-78 0 -148.5 33.5t-171.5 125.5q-125 -84 -235 -121.5t-229 -37.5q-190 0 -302 103t-112 242zM368 506q0 -94 54.5 -187t131.5 -144t154 -51q38 0 85.5 16.5t103.5 49.5 q-241 247 -369 513q-80 -34 -113 -72q-47 -56 -47 -125zM676 1165q0 -49 16 -105t76 -189q105 39 141 83.5t36 107.5q0 112 -59 189q-39 51 -96 51q-47 0 -80.5 -37t-33.5 -100z" />
<glyph unicode="'" horiz-adv-x="569" d="M140 1235q0 65 42.5 108.5t104.5 43.5q71 0 109.5 -46t38.5 -100q0 -45 -23 -136l-99 -383h-48l-105 382q-20 71 -20 131z" />
<glyph unicode="(" horiz-adv-x="682" d="M82 494q0 320 167 566.5t409 326.5v-46q-104 -68 -153 -133q-68 -90 -106 -231q-48 -175 -48 -489q0 -296 43.5 -460t118.5 -265q52 -70 145 -123v-50q-241 81 -408.5 330.5t-167.5 573.5z" />
<glyph unicode=")" horiz-adv-x="682" d="M25 -364q104 69 153 134q67 90 106 230q48 176 48 490q0 296 -43.5 459.5t-118.5 264.5q-52 70 -145 123v50q241 -81 408.5 -330.5t167.5 -573.5q0 -319 -167.5 -565.5t-408.5 -327.5v46z" />
<glyph unicode="*" d="M114 1066q0 41 29.5 70.5t74.5 29.5q63 0 121 -60t75 -73q24 -17 79 -41q-3 58 -11.5 88t-41 93t-32.5 98q0 46 32.5 81t71.5 35q43 0 74.5 -32.5t31.5 -84.5q0 -41 -31 -99t-39.5 -88.5t-13.5 -90.5q56 23 80 40t71 67q63 67 121 67q44 0 74 -29t30 -69q0 -43 -37 -76 t-96 -33q-20 0 -71 3q-24 1 -52 1q-37 0 -112 -4q43 -49 67 -67.5t83 -48.5t85 -64q19 -25 19 -64q0 -43 -29 -72.5t-70 -29.5q-43 0 -77.5 35.5t-47.5 126.5q-8 59 -17.5 86t-40.5 79q-33 -53 -44 -82t-19 -83q-13 -91 -46 -125t-77 -34q-41 0 -70.5 28t-29.5 67 q0 40 22.5 71.5t83 65t83.5 50.5t67 61l-107 4q-28 0 -53 -1q-59 -4 -81 -4q-57 0 -93 32t-36 76z" />
<glyph unicode="+" horiz-adv-x="1167" d="M40 612v132h481v480h131v-480h481v-132h-481v-476h-131v476h-481z" />
<glyph unicode="," horiz-adv-x="512" d="M66 141q0 66 50 116t121 50q86 0 147 -66.5t61 -182.5q0 -143 -86.5 -254t-256.5 -163v44q116 50 168.5 129.5t52.5 162.5q0 17 -7 26q-7 8 -14 8q-6 0 -18 -7q-29 -17 -72 -17q-59 0 -102.5 46t-43.5 108z" />
<glyph unicode="-" horiz-adv-x="682" d="M50 367v207h583v-207h-583z" />
<glyph unicode="." horiz-adv-x="512" d="M90 141q0 69 48.5 118t117.5 49q70 0 118.5 -49t48.5 -118t-49 -117.5t-118 -48.5t-117.5 48.5t-48.5 117.5z" />
<glyph unicode="/" horiz-adv-x="569" d="M2 -31l447 1418h126l-445 -1418h-128z" />
<glyph unicode="0" d="M74 662q0 221 62 406q51 153 155 234.5t220 81.5q118 0 220.5 -80.5t150.5 -216.5q67 -187 67 -409q0 -203 -57 -379q-34 -108 -91.5 -177t-130.5 -109.5t-159 -40.5q-98 0 -177 50t-140 143q-44 68 -77 181q-43 153 -43 316zM377 550q0 -288 20 -386q15 -71 43 -95 t74 -24q50 0 75 32q42 56 48 173l4 430q0 356 -4 415q-10 139 -48 188q-25 32 -81 32q-43 0 -68 -24q-37 -35 -50 -123.5t-13 -617.5z" />
<glyph unicode="1" d="M135 1156l499 228h33v-1109q0 -125 11 -159.5t46 -56.5t112 -22h31v-37h-714v37h36q87 0 124 20t50 55t13 163v703q0 94 -9 117.5t-33.5 40t-56.5 16.5q-51 0 -124 -32z" />
<glyph unicode="2" d="M50 0v22q367 437 445.5 588t78.5 295q0 105 -65 174.5t-159 69.5q-154 0 -239 -154l-37 13q54 192 164 284t254 92q103 0 188 -48t133 -131.5t48 -156.5q0 -133 -74 -270q-101 -185 -441 -516h293q108 0 140.5 9t53.5 30.5t55 90.5h36l-76 -392h-798z" />
<glyph unicode="3" d="M33 131q0 46 33 78.5t76 32.5q33 0 62 -14q16 -8 113.5 -87.5t182.5 -79.5q74 0 127 58.5t53 148.5q0 137 -96 252.5t-281 159.5v35q114 33 158 61.5t76 87t32 118.5q0 83 -60.5 142.5t-150.5 59.5q-140 0 -238 -148l-37 13q72 167 184.5 251t250.5 84q141 0 232.5 -86 t91.5 -201q0 -75 -42.5 -144.5t-133.5 -122.5q117 -57 178.5 -140.5t61.5 -209.5q0 -212 -153.5 -360.5t-411.5 -148.5q-172 0 -251 57q-57 40 -57 103z" />
<glyph unicode="4" d="M51 304v207l644 873h122v-873h124v-207h-124v-304h-275v304h-491zM148 511h394v535z" />
<glyph unicode="5" d="M69 672l243 684h635l-101 -258h-534l-51 -135q345 -13 531 -172q153 -131 153 -326q0 -125 -71 -244.5t-200 -184t-283 -64.5q-166 0 -255 62q-62 44 -62 100q0 43 32.5 76t75.5 33q39 0 79 -16t137 -84q61 -42 105 -58q31 -12 70 -12q82 0 139.5 60t57.5 144 q0 176 -176 286t-444 110q-27 0 -81 -1z" />
<glyph unicode="6" d="M76 528q0 228 109.5 424.5t311 313t465.5 118.5v-28q-181 -46 -290.5 -118.5t-173 -176t-98.5 -256.5q44 30 73 39q65 20 131 20q152 0 253.5 -110.5t101.5 -301.5q0 -134 -55 -246t-156 -173t-216 -61q-125 0 -231 68.5t-165.5 200.5t-59.5 287zM379 522 q0 -138 26.5 -267t72.5 -181q33 -37 78 -37q46 0 82 53.5t36 217.5q0 276 -67 381q-43 68 -116 68q-40 0 -104 -33q-8 -138 -8 -202z" />
<glyph unicode="7" d="M69 935l98 421h808l-455 -1384h-157l369 1119h-281q-165 0 -248 -43q-58 -30 -96 -113h-38z" />
<glyph unicode="8" d="M72 313q0 109 63.5 191t211.5 150q-161 123 -206.5 201t-45.5 181q0 136 115.5 239.5t316.5 103.5q194 0 298.5 -91.5t104.5 -219.5q0 -96 -56.5 -169.5t-175.5 -132.5q143 -105 198.5 -195.5t55.5 -207.5q0 -164 -123.5 -277.5t-335.5 -113.5q-201 0 -311 99t-110 242z M326 313q0 -94 24 -157.5t68.5 -91.5t91.5 -28q73 0 123 53.5t50 146.5q0 194 -261 370q-31 -28 -44 -51q-20 -35 -36 -102t-16 -140zM362 1148q0 -73 52.5 -151.5t207.5 -179.5q37 50 55 112t18 136q0 130 -56 199q-42 53 -116 53q-67 0 -114 -48.5t-47 -120.5z" />
<glyph unicode="9" d="M63 0q166 38 281.5 112t183 183t94.5 251q-62 -32 -105.5 -44.5t-91.5 -12.5q-154 0 -256.5 111t-102.5 304q0 134 55.5 245.5t158.5 173t214 61.5q119 0 225 -68t169 -197t63 -294q0 -214 -102.5 -410t-305.5 -314.5t-480 -128.5v28zM352 1048q0 -277 66 -382 q43 -68 116 -68q39 0 103 32q10 112 10 197q0 182 -42 339q-24 87 -71 128q-25 22 -65 22q-50 0 -78 -43q-39 -59 -39 -225z" />
<glyph unicode=":" horiz-adv-x="682" d="M175 141q0 69 48.5 118t117.5 49q70 0 118.5 -49t48.5 -118t-49 -117.5t-118 -48.5t-117.5 48.5t-48.5 117.5zM176 796q0 69 48.5 117.5t117.5 48.5t117.5 -48.5t48.5 -117.5t-48.5 -117.5t-117.5 -48.5t-117.5 48.5t-48.5 117.5z" />
<glyph unicode=";" horiz-adv-x="682" d="M152 141q0 66 50 116t121 50q86 0 147 -66.5t61 -182.5q0 -143 -86.5 -254t-256.5 -163v44q116 50 168.5 129.5t52.5 162.5q0 17 -7 26q-7 8 -14 8q-6 0 -18 -7q-29 -17 -72 -17q-59 0 -102.5 46t-43.5 108zM175 797q0 69 48 117t118 48q69 0 117 -48t48 -117 t-48.5 -117.5t-116.5 -48.5q-69 0 -117.5 48.5t-48.5 117.5z" />
<glyph unicode="&#x3c;" horiz-adv-x="1167" d="M41 631v81l1092 451v-138l-845 -353l845 -347v-140z" />
<glyph unicode="=" horiz-adv-x="1167" d="M40 447v130h1094v-130h-1094zM40 774v130h1094v-130h-1094z" />
<glyph unicode="&#x3e;" horiz-adv-x="1167" d="M41 185v139l845 352l-845 347v140l1092 -445v-82z" />
<glyph unicode="?" d="M125 1091q0 118 102 207t285 89q194 0 295.5 -92.5t101.5 -223.5q0 -95 -52 -175.5t-201 -178.5q-100 -66 -131.5 -117.5t-38.5 -157.5h-41q-2 111 10.5 166t65 151.5t69 155t16.5 144.5q0 133 -52 196t-123 63q-54 0 -91 -29q-28 -22 -28 -46q0 -16 19 -50 q43 -77 43 -131q0 -49 -33.5 -82t-83.5 -33q-56 0 -94 39.5t-38 104.5zM314 135q0 67 47 114t114 47t114 -47t47 -114t-47 -114.5t-114 -47.5t-114 47.5t-47 114.5z" />
<glyph unicode="@" horiz-adv-x="1905" d="M92 436q0 262 124 485.5t348 344.5t496 121q221 0 386.5 -88.5t248.5 -248.5t83 -338q0 -207 -89.5 -378t-223 -252.5t-287.5 -81.5q-99 0 -151 49t-52 126q0 54 24 141q-83 -138 -129 -191q-63 -71 -125 -104q-40 -21 -91 -21q-71 0 -119.5 56.5t-48.5 165.5 q0 112 32.5 219.5t88.5 202t129.5 169.5t165.5 124q47 26 101 26q56 0 92.5 -35t49.5 -122l34 119l244 10l-183 -628q-31 -104 -31 -156q0 -32 23.5 -55.5t57.5 -23.5q69 0 178.5 79.5t181 227t71.5 314.5q0 276 -177.5 453.5t-462.5 177.5q-246 0 -447 -115.5t-319 -335.5 t-118 -472q0 -346 220.5 -566.5t561.5 -220.5q281 0 504 151t316 400h61q-120 -294 -349.5 -450.5t-533.5 -156.5q-385 0 -635 248.5t-250 629.5zM744 275q0 -44 18.5 -68t40.5 -24q19 0 55 28q51 39 109 132t95 206.5t37 209.5q0 69 -26 105q-19 27 -45 27q-38 0 -75 -42 q-50 -57 -107 -190q-102 -239 -102 -384z" />
<glyph unicode="A" horiz-adv-x="1479" d="M16 0v37q73 11 120 60.5t116 204.5l485 1082h19l489 -1112q70 -158 115 -199q34 -31 96 -36v-37h-656v37h27q79 0 111 22q22 16 22 46q0 18 -6 37q-2 9 -30 75l-72 169h-479l-57 -132q-28 -66 -28 -109q0 -57 46 -84q27 -16 133 -24v-37h-451zM408 460h410l-202 467z" />
<glyph unicode="B" horiz-adv-x="1366" d="M43 0v37q94 0 127.5 17.5t47 45.5t13.5 138v880q0 110 -13.5 138.5t-47.5 45.5t-127 17v37h650q233 0 330 -41.5t153 -124t56 -175.5q0 -98 -71 -174.5t-250 -121.5q193 -45 271 -109q112 -91 112 -236q0 -153 -123 -253q-151 -121 -439 -121h-689zM546 183 q0 -54 27.5 -81.5t81.5 -27.5q80 0 147.5 35.5t103.5 103t36 150.5q0 95 -44 170.5t-121 105.5q-75 29 -220 29h-10v-435zM547 746q142 0 209.5 32t103.5 90t36 148t-35.5 147.5t-101.5 87.5q-64 29 -203 29h-9v-534z" />
<glyph unicode="C" horiz-adv-x="1479" d="M81 653q0 194 101.5 368t274 270t366.5 96q143 0 302 -62q92 -36 117 -36q32 0 55.5 23.5t30.5 74.5h39v-470h-39q-44 184 -164 282t-272 98q-127 0 -233 -73t-155 -191q-63 -151 -63 -336q0 -182 46 -331.5t144 -226t254 -76.5q128 0 234.5 56t224.5 193v-117 q-114 -119 -237.5 -172.5t-288.5 -53.5q-217 0 -385.5 87t-260 250t-91.5 347z" />
<glyph unicode="D" horiz-adv-x="1479" d="M27 0v37h45q59 0 90.5 18.5t46.5 50.5q9 21 9 126v892q0 104 -11 130t-44.5 45.5t-90.5 19.5h-45v37h607q243 0 391 -66q181 -81 274.5 -245t93.5 -371q0 -143 -46 -263.5t-119 -199t-168.5 -126t-233.5 -73.5q-61 -12 -192 -12h-607zM544 221q0 -84 8 -103t27 -29 q27 -15 78 -15q167 0 255 114q120 154 120 478q0 261 -82 417q-65 122 -167 166q-70 30 -229 30h-10v-1058z" />
<glyph unicode="E" horiz-adv-x="1366" d="M41 0v37h45q59 0 95 21q26 14 40 48q11 24 11 126v892q0 92 -5 113q-10 35 -37 54q-38 28 -104 28h-45v37h1135v-401h-38q-29 147 -81.5 211t-148.5 94q-56 18 -210 18h-140v-552h27q129 0 187 81t74 239h38v-710h-38q-12 116 -50.5 190t-89.5 99.5t-148 25.5v-382 q0 -112 9.5 -137t35.5 -41t84 -16h81q190 0 304.5 88t164.5 268h37l-61 -431h-1172z" />
<glyph unicode="F" horiz-adv-x="1251" d="M46 0v37h45q59 0 95 21q26 14 40 48q11 24 11 126v892q0 104 -11 130t-44.5 45.5t-90.5 19.5h-45v37h1144v-389h-41q-14 137 -71.5 203t-166.5 93q-60 15 -222 15h-126v-557h39q90 0 147 27t96.5 91t51.5 173h35v-681h-35q-19 193 -103.5 254.5t-191.5 61.5h-39v-415 q0 -104 11.5 -130t45 -45.5t90.5 -19.5h45v-37h-709z" />
<glyph unicode="G" horiz-adv-x="1593" d="M83 660q0 306 215 517t541 211q101 0 182 -16q44 -8 142.5 -45.5t116.5 -37.5q28 0 52 20.5t44 77.5h37v-478h-37q-67 196 -201 298t-293 102q-152 0 -253 -85.5t-143 -238.5t-42 -314q0 -195 46 -342t148.5 -216t243.5 -69q49 0 100.5 10.5t105.5 30.5v282 q0 80 -11 103.5t-45.5 42.5t-83.5 19h-35v37h659v-37q-75 -5 -104.5 -20.5t-45.5 -51.5q-9 -19 -9 -93v-282q-130 -58 -270.5 -87.5t-291.5 -29.5q-193 0 -320.5 52.5t-225 138t-152.5 192.5q-70 138 -70 309z" />
<glyph unicode="H" horiz-adv-x="1593" d="M43 0v37h45q59 0 95 21q26 14 40 48q11 24 11 126v892q0 104 -11 130t-44.5 45.5t-90.5 19.5h-45v37h709v-37h-45q-59 0 -95 -21q-26 -14 -41 -48q-11 -24 -11 -126v-384h479v384q0 104 -11 130t-45 45.5t-91 19.5h-44v37h708v-37h-44q-60 0 -95 -21q-26 -14 -41 -48 q-11 -24 -11 -126v-892q0 -104 11 -130t45 -45.5t91 -19.5h44v-37h-708v37h44q60 0 95 21q26 14 41 48q11 24 11 126v420h-479v-420q0 -104 11.5 -130t45 -45.5t90.5 -19.5h45v-37h-709z" />
<glyph unicode="I" horiz-adv-x="797" d="M41 0v37h45q59 0 95 21q26 14 40 48q11 24 11 126v892q0 104 -11 130t-44.5 45.5t-90.5 19.5h-45v37h709v-37h-45q-59 0 -95 -21q-26 -14 -41 -48q-11 -24 -11 -126v-892q0 -104 11.5 -130t45 -45.5t90.5 -19.5h45v-37h-709z" />
<glyph unicode="J" d="M22 258q0 70 43 113.5t105 43.5q61 0 102.5 -39t41.5 -96q0 -28 -7 -49q-4 -10 -31.5 -50.5t-27.5 -57.5q0 -26 26 -45q38 -28 99 -28q43 0 71 22t39.5 68.5t11.5 258.5v725q0 104 -11.5 130t-45 45.5t-90.5 19.5h-57v37h721v-37h-44q-60 0 -96 -21q-25 -14 -40 -48 q-11 -24 -11 -126v-664q0 -195 -39 -283.5t-138.5 -148t-239.5 -59.5q-171 0 -276.5 90t-105.5 199z" />
<glyph unicode="K" horiz-adv-x="1593" d="M46 0v37h45q59 0 95 21q26 14 40 48q11 24 11 126v892q0 104 -11 130t-44.5 45.5t-90.5 19.5h-45v37h675v-37q-69 0 -105 -20q-26 -14 -41 -47q-12 -25 -12 -128v-422l503 407q105 85 105 136q0 38 -43 60q-22 11 -109 14v37h529v-37q-71 -5 -111.5 -25.5t-186.5 -138.5 l-397 -318l477 -597q101 -126 174 -171q53 -32 112 -32v-37h-706v37q67 6 86.5 21t19.5 37q0 42 -92 158l-311 391l-50 -42v-370q0 -106 12 -132t46 -44.5t109 -18.5v-37h-684z" />
<glyph unicode="L" horiz-adv-x="1366" d="M38 0v37h45q59 0 95 21q26 14 40 48q11 24 11 126v892q0 104 -11 130t-44.5 45.5t-90.5 19.5h-45v37h723v-37h-59q-59 0 -95 -21q-26 -14 -41 -48q-11 -24 -11 -126v-864q0 -104 12 -132.5t47 -42.5q25 -9 121 -9h113q108 0 180 38t124.5 120t99.5 242h41l-51 -476h-1204 z" />
<glyph unicode="M" horiz-adv-x="1933" d="M41 0v37h14h5q42 1 79 15q39 16 59 41.5t31 72.5q2 11 2 102v858q0 103 -11 128.5t-45 45t-91 19.5h-43v37h554l381 -894l368 894h552v-37h-44q-60 0 -96 -21q-25 -14 -40 -47q-11 -24 -11 -125v-894q0 -104 11 -130t45 -45.5t91 -19.5h44v-37h-708v37h44q60 0 96 21 q25 14 40 48q11 24 11 126v1005l-520 -1237h-24l-528 1228v-955q0 -100 5 -123q13 -50 56.5 -81.5t136.5 -31.5v-37h-464z" />
<glyph unicode="N" horiz-adv-x="1479" d="M29 0v37q112 1 156 46t44 153v957l-29 36q-43 54 -76 71t-95 19v37h481l669 -841v583q0 122 -35 165q-46 56 -154 56h-7v37h448v-37q-86 -11 -115.5 -28.5t-46 -57t-16.5 -135.5v-1129h-34l-917 1129v-862q0 -117 53.5 -158t122.5 -41h32v-37h-481z" />
<glyph unicode="O" horiz-adv-x="1593" d="M80 682q0 302 206 504q194 190 472 190q17 0 33 -1q18 1 36 1q299 0 491 -190q202 -201 202 -503q0 -258 -151 -454q-200 -260 -565 -260q-366 0 -566 248q-158 196 -158 465zM441 673q0 -347 122 -513q85 -116 238 -116q103 0 172 50q88 64 137 204.5t49 366.5 q0 269 -50 402.5t-127.5 188.5t-178.5 55q-186 0 -283 -190q-79 -156 -79 -448z" />
<glyph unicode="P" horiz-adv-x="1251" d="M52 0v37q94 0 127.5 17.5t47 45.5t13.5 138v880q0 110 -13.5 138.5t-47.5 45.5t-127 17v37h591q292 0 419 -104t127 -260q0 -132 -82 -226t-226 -128q-97 -24 -328 -24v-376q0 -110 13.5 -138.5t48 -45.5t126.5 -17v-37h-689zM553 692q33 -2 50 -2q122 0 188 72.5 t66 224.5q0 151 -66 221t-197 70h-41v-586z" />
<glyph unicode="Q" horiz-adv-x="1593" d="M80 680q0 304 204 505.5t518 201.5q313 0 516 -202t203 -505q0 -264 -159 -459t-383 -233q46 -133 143 -200t243 -67q40 0 85 8v-61q-151 -38 -270 -38q-186 0 -332.5 91t-220.5 267q-246 52 -396.5 241t-150.5 451zM441 677q0 -348 123 -516q86 -117 237 -117 q152 0 237 115q123 165 123 496q0 326 -77 472q-96 184 -283 184q-180 0 -278 -187q-82 -157 -82 -447z" />
<glyph unicode="R" horiz-adv-x="1479" d="M38 0v37q94 0 127.5 17.5t47 45.5t13.5 138v880q0 110 -13.5 138.5t-47.5 45.5t-127 17v37h630q246 0 360 -34t186 -125.5t72 -214.5q0 -150 -108 -248q-69 -62 -193 -93l326 -459q64 -89 91 -111q41 -31 95 -34v-37h-427l-437 618h-89v-380q0 -110 13.5 -138.5 t47.5 -45.5t127 -17v-37h-694zM544 689h57q139 0 208 25.5t108.5 92t39.5 173.5q0 155 -72.5 229t-233.5 74h-107v-594z" />
<glyph unicode="S" horiz-adv-x="1139" d="M106 -31v512h37q44 -216 169.5 -329.5t270.5 -113.5q112 0 178.5 61t66.5 142q0 48 -25.5 93t-77.5 85.5t-184 105.5q-185 91 -266 155t-124.5 143t-43.5 174q0 162 119 276t300 114q66 0 128 -16q47 -12 114.5 -44.5t94.5 -32.5q26 0 41 16t28 77h30l11 -452h-41 q-29 170 -142.5 273.5t-245.5 103.5q-102 0 -161.5 -54.5t-59.5 -125.5q0 -45 21 -80q29 -47 93 -93q47 -33 217 -117q238 -117 321 -221q82 -104 82 -238q0 -170 -132.5 -292.5t-336.5 -122.5q-64 0 -121 13t-143 49q-48 20 -79 20q-26 0 -55 -20t-47 -61h-37z" />
<glyph unicode="T" horiz-adv-x="1366" d="M74 989v367h1218v-367h-36q-32 127 -71 182.5t-107 88.5q-38 18 -133 18h-101v-1046q0 -104 11.5 -130t45 -45.5t91.5 -19.5h45v-37h-710v37h45q59 0 95 21q26 14 41 48q11 24 11 126v1046h-98q-137 0 -199 -58q-87 -81 -110 -231h-38z" />
<glyph unicode="U" horiz-adv-x="1479" d="M48 1319v37h700v-37h-35q-79 0 -108.5 -16.5t-42 -45.5t-12.5 -145v-664q0 -182 27.5 -241t90.5 -98t159 -39q110 0 187.5 49.5t116 136.5t38.5 303v553q0 91 -19 130t-48 54q-45 23 -127 23v37h469v-37h-28q-57 0 -95 -23t-55 -69q-13 -32 -13 -115v-515 q0 -239 -31.5 -345t-153.5 -195t-333 -89q-176 0 -272 47q-131 64 -185 164t-54 269v664q0 117 -13 145.5t-45 45.5q-30 16 -109 16h-9z" />
<glyph unicode="V" horiz-adv-x="1479" d="M16 1319v37h650v-37h-22q-88 0 -120 -22q-23 -15 -23 -44q0 -18 8 -42.5t54 -131.5l289 -675l268 601q48 109 59 146t11 63q0 30 -16 53t-47 35q-43 17 -114 17v37h445v-37q-74 -12 -132 -79q-42 -50 -125 -235l-467 -1036h-33l-465 1078q-84 195 -112.5 229t-107.5 43z " />
<glyph unicode="W" horiz-adv-x="2048" d="M18 1319v37h588v-37q-71 -2 -94.5 -21.5t-23.5 -48.5q0 -38 49 -161l266 -658l213 514l-56 144q-46 118 -71 157.5t-57.5 56.5t-95.5 17v37h657v-37q-69 -1 -99 -11q-21 -7 -33 -23.5t-12 -37.5q0 -23 45 -141l247 -642l221 581q35 90 43 123t8 61q0 41 -28 64.5 t-107 25.5v37h352v-37q-38 -3 -64 -21t-46 -55q-6 -12 -63 -155l-425 -1119h-39l-336 874l-370 -874h-37l-446 1107q-68 167 -95 202t-91 41z" />
<glyph unicode="X" horiz-adv-x="1479" d="M14 0v37q89 13 140 48q67 46 187 192l269 328l-345 507q-85 125 -97 139q-27 33 -53 47t-72 21v37h673v-37h-34q-58 0 -81 -18.5t-23 -46.5q0 -22 7 -38l69 -104l168 -256l143 175q110 135 110 189q0 27 -15.5 50t-44.5 36t-90 13v37h499v-37q-59 -1 -95 -14.5t-77 -50.5 q-26 -24 -130 -149l-257 -310l374 -555q93 -138 132.5 -167.5t93.5 -35.5v-37h-661v37q79 6 102 24t23 44q0 18 -7 32q-14 30 -70 112l-198 293l-207 -253q-93 -115 -93 -156q0 -29 24 -54t71 -36q21 -6 86 -6v-37h-521z" />
<glyph unicode="Y" horiz-adv-x="1479" d="M18 1319v37h650v-37h-29q-59 0 -82.5 -17t-23.5 -36q0 -36 80 -181l245 -449l244 409q91 150 91 199q0 27 -26 45q-34 25 -125 30v37h414v-37q-67 -9 -103 -39q-50 -42 -158 -229l-294 -491v-328q0 -105 11 -130.5t43.5 -45t86.5 -19.5h76v-37h-761v37h71q60 0 95 21 q26 14 41 48q11 24 11 126v272l-319 581q-95 172 -134 202.5t-104 31.5z" />
<glyph unicode="Z" horiz-adv-x="1366" d="M33 0l798 1282h-201q-117 0 -154 -7q-70 -13 -131.5 -51.5t-102 -102.5t-63.5 -162h-37l37 397h1071l-797 -1280h258q183 0 256 23q119 36 205 132.5t119 258.5h39l-55 -490h-1242z" />
<glyph unicode="[" horiz-adv-x="682" d="M214 -374v1730h402v-42h-45q-66 0 -88.5 -13.5t-34 -40t-11.5 -127.5v-1291q0 -96 4 -110q9 -36 33.5 -53t96.5 -17h45v-36h-402z" />
<glyph unicode="\" horiz-adv-x="569" d="M2 1387h126l447 -1418h-129z" />
<glyph unicode="]" horiz-adv-x="682" d="M67 -336h45q66 0 88.5 13t34 40t11.5 127v1292q0 96 -4 110q-9 35 -33.5 52.5t-96.5 17.5h-45v40h402v-1730h-402v38z" />
<glyph unicode="^" horiz-adv-x="1190" d="M147 666l411 718h82l404 -718h-159l-295 512l-290 -512h-153z" />
<glyph unicode="_" d="M-19 -311h1062v-131h-1062v131z" />
<glyph unicode="`" horiz-adv-x="682" d="M38 1402h301l116 -347h-85z" />
<glyph unicode="a" d="M92 171q0 107 92 192.5t401 227.5v94q0 106 -11.5 133.5t-43.5 48t-72 20.5q-65 0 -107 -29q-26 -18 -26 -42q0 -21 28 -52q38 -43 38 -83q0 -49 -36.5 -83.5t-95.5 -34.5q-63 0 -105.5 38t-42.5 89q0 72 57 137.5t159 100.5t212 35q133 0 210.5 -56.5t100.5 -122.5 q14 -42 14 -193v-363q0 -64 5 -80.5t15 -24.5t23 -8q26 0 53 37l30 -24q-50 -74 -103.5 -107.5t-121.5 -33.5q-80 0 -125 37.5t-55 113.5q-171 -151 -307 -151q-80 0 -133 52.5t-53 131.5zM366 263q0 -46 33 -81q25 -27 70 -27q50 0 116 56v313q-121 -71 -180 -152 q-39 -54 -39 -109z" />
<glyph unicode="b" horiz-adv-x="1139" d="M43 1319v37h388v-515q118 122 258 122q96 0 181 -56.5t133 -160.5t48 -240q0 -153 -61 -278t-163 -190.5t-233 -65.5q-76 0 -135 24t-116 78l-155 -101h-34v1189q0 81 -7 100q-10 28 -31.5 41.5t-72.5 15.5zM431 336q0 -127 6 -162q10 -59 48 -95.5t97 -36.5 q51 0 87.5 29t61 115t24.5 310q0 215 -54 295q-39 58 -105 58q-86 0 -165 -97v-416z" />
<glyph unicode="c" horiz-adv-x="909" d="M78 452q0 191 102 336q123 175 339 175q145 0 230.5 -73t85.5 -163q0 -57 -34.5 -91t-90.5 -34q-59 0 -97.5 39t-47.5 139q-6 63 -29 88t-54 25q-48 0 -82 -51q-52 -77 -52 -236q0 -132 42 -252.5t115 -179.5q55 -43 130 -43q49 0 93 23t104 87l31 -24 q-66 -124 -164.5 -184.5t-209.5 -60.5q-187 0 -299 141t-112 339z" />
<glyph unicode="d" horiz-adv-x="1139" d="M79 451q0 151 52 270.5t142.5 180.5t194.5 61q67 0 119 -26t111 -91v282q0 107 -9 129q-12 29 -36 43t-90 14v42h415v-1076q0 -109 6 -129q8 -33 30.5 -49t78.5 -20v-33l-395 -77v148q-71 -86 -126.5 -117t-125.5 -31q-179 0 -283 160q-84 130 -84 319zM372 496 q0 -177 26 -262t71 -123q23 -19 63 -19q88 0 166 138v492q-74 142 -181 142q-37 0 -61 -20q-37 -31 -60.5 -109t-23.5 -239z" />
<glyph unicode="e" horiz-adv-x="909" d="M79 452q0 234 126.5 372.5t296.5 138.5q142 0 246.5 -116.5t112.5 -345.5h-513q9 -186 99 -294q69 -83 166 -83q60 0 109 33.5t105 120.5l34 -22q-76 -155 -168 -219.5t-213 -64.5q-208 0 -315 160q-86 129 -86 320zM343 568h272q0 161 -17.5 221t-54.5 91q-21 18 -56 18 q-52 0 -85 -51q-59 -89 -59 -244v-35z" />
<glyph unicode="f" horiz-adv-x="682" d="M66 0v36q63 1 89.5 14.5t36.5 37.5t10 100v649h-136v98h136v69l-1 47q0 144 105.5 240t285.5 96q123 0 182.5 -46t59.5 -102q0 -45 -37 -78t-98 -33q-52 0 -82.5 27t-30.5 60q0 9 6 37q4 17 4 32q0 21 -12 31q-16 15 -39 15q-29 0 -48.5 -24t-19.5 -77l2 -175v-119h138 v-98h-138v-649q0 -94 20 -118q30 -34 105 -34h13v-36h-551z" />
<glyph unicode="g" d="M77 -258q0 46 34.5 82.5t128.5 61.5q-130 64 -130 178q0 69 53 134t168 113q-134 49 -194 129t-60 185q0 137 112 237.5t288 100.5q93 0 192 -39h315v-110h-179q49 -49 68 -89q24 -54 24 -113q0 -100 -55.5 -173.5t-151 -115t-169.5 -41.5q-6 0 -120 5q-45 0 -75.5 -29.5 t-30.5 -70.5q0 -36 27.5 -59t89.5 -23l173 2q210 0 289 -46q113 -64 113 -197q0 -85 -52 -154.5t-137 -102.5q-129 -49 -297 -49q-126 0 -230 24.5t-149 68t-45 91.5zM245 -239q0 -51 59 -92.5t222 -41.5q139 0 218.5 37t79.5 104q0 25 -15 42q-27 30 -81.5 41t-290.5 11 q-102 0 -135 -17q-57 -31 -57 -84zM358 600q0 -149 39.5 -204.5t93.5 -55.5q60 0 100 55t40 214q0 179 -45 244q-32 48 -90 48t-98 -58.5t-40 -242.5z" />
<glyph unicode="h" horiz-adv-x="1139" d="M70 0v36q59 6 84 38q17 22 17 129v950q0 106 -19.5 132t-81.5 34v37h381v-541q77 81 141 114.5t133 33.5q88 0 150.5 -50t83 -117.5t20.5 -227.5v-365q0 -107 20 -133.5t81 -33.5v-36h-474v36q50 7 75 40q18 26 18 127v417q0 116 -9 145.5t-30.5 46t-48.5 16.5 q-40 0 -78 -27.5t-82 -96.5v-501q0 -100 15 -125q19 -34 78 -42v-36h-474z" />
<glyph unicode="i" horiz-adv-x="569" d="M42 0v36q62 2 92 36q20 23 20 122v546q0 99 -23 126.5t-89 31.5v37h392v-741q0 -99 23 -126.5t90 -31.5v-36h-505zM140 1233q0 64 45 109.5t109 45.5q65 0 110 -45.5t45 -109.5t-45.5 -109t-109.5 -45t-109 45t-45 109z" />
<glyph unicode="j" horiz-adv-x="682" d="M-57 -271q0 44 30.5 76.5t71.5 32.5q38 0 60 -22.5t22 -67.5q0 -12 -1 -28q-2 -21 -2 -29q0 -35 16 -52t41 -17q23 0 39.5 20t16.5 57q0 20 -6 81q-10 111 -11 134l-3 237v578l1 52q0 63 -21.5 86.5t-90.5 30.5v37h390v-968q0 -136 -17 -201q-25 -94 -99.5 -151 t-196.5 -57q-123 0 -181.5 50t-58.5 121zM203 1235q0 63 44.5 107.5t108.5 44.5t108.5 -44.5t44.5 -107.5q0 -64 -45 -109t-108 -45t-108 45t-45 109z" />
<glyph unicode="k" horiz-adv-x="1139" d="M68 0v36q59 6 84 38q17 22 17 129v950q0 106 -19.5 132t-81.5 34v37h381v-892l217 213q67 65 83.5 94t16.5 56t-22 45t-86 26v37h419v-37q-60 -3 -105 -28.5t-176 -153.5l-102 -100l220 -322q133 -196 158 -220q34 -34 86 -38v-36h-483v36q32 0 46.5 12t14.5 26 q0 23 -42 85l-185 271l-60 -59v-168q0 -107 20 -133.5t82 -33.5v-36h-483z" />
<glyph unicode="l" horiz-adv-x="569" d="M43 0v36q62 2 92 36q20 23 20 122v968q0 98 -23 125.5t-89 31.5v37h392v-1162q0 -99 23 -126.5t90 -31.5v-36h-505z" />
<glyph unicode="m" horiz-adv-x="1706" d="M76 0v36q59 6 84 38q17 22 17 130v528q0 106 -19.5 132t-81.5 34v37h381v-123q77 84 142.5 117.5t143.5 33.5q90 0 151 -42t94 -128q80 90 153.5 130t153.5 40q97 0 154.5 -44.5t80 -113t22.5 -218.5v-383q0 -108 19.5 -134t81.5 -34v-36h-483v36q57 5 84 44 q18 27 18 124v402q0 125 -10 159t-31.5 50.5t-50.5 16.5q-43 0 -87 -31.5t-89 -94.5v-502q0 -101 17 -127q23 -37 88 -41v-36h-484v36q39 2 61.5 19.5t30 42t7.5 106.5v402q0 127 -10 159t-33.5 50t-50.5 18q-40 0 -73 -21q-47 -31 -100 -106v-502q0 -99 19.5 -130.5 t81.5 -37.5v-36h-482z" />
<glyph unicode="n" horiz-adv-x="1139" d="M70 0v36q59 6 84 38q17 22 17 130v528q0 106 -19.5 132t-81.5 34v37h381v-121q72 78 138 113.5t142 35.5q91 0 151 -50.5t80 -125.5q16 -57 16 -219v-364q0 -108 19.5 -134.5t81.5 -33.5v-36h-473v36q53 7 76 44q16 25 16 124v416q0 115 -9 145t-30.5 46.5t-47.5 16.5 q-86 0 -160 -123v-501q0 -105 19.5 -133t72.5 -35v-36h-473z" />
<glyph unicode="o" d="M74 463q0 201 116.5 350.5t319.5 149.5q122 0 227 -63t159.5 -179t54.5 -254q0 -199 -101 -333q-122 -162 -337 -162q-211 0 -325 148t-114 343zM367 386q0 -107 14 -200q11 -71 47 -108t82 -37q45 0 75 25q39 34 52 95q20 95 20 384q0 170 -19 233.5t-56 92.5 q-26 21 -68 21q-51 0 -87.5 -38.5t-48 -152t-11.5 -315.5z" />
<glyph unicode="p" horiz-adv-x="1139" d="M39 -401q62 2 92 35q20 23 20 119v987q0 99 -23 126.5t-89 31.5v37h392v-123q49 72 100 104q73 47 159 47q103 0 187.5 -65t128.5 -179.5t44 -246.5q0 -142 -45.5 -259.5t-132 -179t-192.5 -61.5q-77 0 -144 34q-50 26 -105 89v-348q0 -72 11.5 -98t35.5 -38t94 -12v-37 h-533v37zM431 196q86 -122 184 -122q54 0 89 57q52 84 52 320q0 242 -57 331q-38 59 -102 59q-101 0 -166 -146v-499z" />
<glyph unicode="q" horiz-adv-x="1139" d="M78 428q0 145 61.5 272.5t169 195t227.5 67.5q80 0 142.5 -27t107.5 -82l157 109h34v-1211q0 -92 16 -115q26 -37 105 -38v-37h-540v37q62 0 90 14t38.5 37t10.5 94v354q-61 -64 -114 -90q-70 -36 -146 -36q-176 0 -278 157q-81 125 -81 299zM370 446q0 -215 57 -302 q39 -59 101 -59q36 0 81.5 25t87.5 79v385q0 161 -17.5 213t-64.5 90q-24 19 -61 19q-76 0 -118 -67q-66 -103 -66 -383z" />
<glyph unicode="r" horiz-adv-x="909" d="M75 0v36q61 5 82.5 33.5t21.5 150.5v517q0 80 -8 102q-10 28 -29 41t-67 18v37h382v-212q93 145 163 192.5t135 47.5q56 0 89.5 -34.5t33.5 -97.5q0 -67 -32.5 -104t-78.5 -37q-53 0 -92 34t-46 38q-10 6 -23 6q-29 0 -55 -22q-41 -34 -62 -97q-32 -97 -32 -214v-215 l1 -56q0 -57 7 -73q12 -27 35.5 -39.5t79.5 -15.5v-36h-505z" />
<glyph unicode="s" horiz-adv-x="797" d="M81 680q0 108 74.5 195.5t215.5 87.5q76 0 147 -37q27 -15 44 -15q18 0 29 7.5t35 42.5h34l15 -319h-34q-61 142 -126.5 194t-130.5 52q-41 0 -70 -27.5t-29 -63.5q0 -27 20 -52q32 -41 179 -140.5t193.5 -169t46.5 -155.5q0 -78 -39 -153t-110 -115t-157 -40 q-67 0 -179 42q-30 11 -41 11q-33 0 -55 -50h-33l-16 336h34q45 -132 123.5 -198t148.5 -66q48 0 78.5 29.5t30.5 71.5q0 48 -30 83t-134 106q-153 106 -198 162q-66 82 -66 181z" />
<glyph unicode="t" horiz-adv-x="682" d="M38 836v35q126 89 214.5 187t154.5 219h33v-342h222v-99h-222v-577q0 -81 7.5 -104.5t26.5 -38t35 -14.5q65 0 123 99l30 -22q-81 -192 -263 -192q-89 0 -150.5 49.5t-78.5 110.5q-10 34 -10 184v505h-122z" />
<glyph unicode="u" horiz-adv-x="1139" d="M63 898v37h381v-639q0 -100 9.5 -129t30 -44t47.5 -15q36 0 65 19q40 26 96 105v500q0 106 -19.5 132t-81.5 34v37h381v-732q0 -107 20 -133.5t81 -33.5v-36h-381v125q-67 -80 -134 -116.5t-150 -36.5q-79 0 -140.5 48.5t-82.5 113.5t-21 227v371q0 106 -19.5 132 t-81.5 34z" />
<glyph unicode="v" d="M19 898v37h497v-37q-47 0 -64 -17q-24 -22 -24 -52q0 -37 44 -139l154 -351l123 303q53 130 53 184q0 31 -22.5 50.5t-79.5 21.5v37h306v-37q-44 -6 -72 -33t-84 -159l-312 -734h-47l-315 725q-57 131 -89 166q-23 26 -68 35z" />
<glyph unicode="w" horiz-adv-x="1479" d="M17 898v37h472v-37q-48 0 -66 -14t-18 -32q0 -17 32 -102l137 -365l132 365l-10 24q-30 75 -52.5 95.5t-69.5 28.5v37h479v-37q-56 -3 -71 -15.5t-15 -35.5q0 -22 29 -97l132 -365l120 336q26 72 26 98q0 39 -19 57t-74 22v37h277v-37q-46 -6 -73 -32.5t-70 -150.5 l-262 -743h-57l-256 686l-251 -686h-52l-249 678q-56 155 -95 202q-25 32 -76 46z" />
<glyph unicode="x" d="M47 0v36q68 0 124.5 37.5t164.5 196.5l77 114l-161 298q-79 146 -118 179t-87 37v37h518v-37l-27 -1l-52 -18q-8 -7 -8 -23q0 -15 5 -31q3 -7 28 -54l73 -136l38 54q80 110 80 154q0 21 -17.5 35.5t-62.5 19.5v37h331v-37q-61 -2 -114 -37.5t-119 -137.5l-98 -150 l162 -308q84 -161 133 -204q27 -23 74 -25v-36h-521v36q61 5 75.5 16t14.5 30q0 28 -32 88l-81 152l-69 -101q-47 -69 -53 -82q-8 -19 -8 -34q0 -23 9.5 -38.5t26 -23t60.5 -7.5v-36h-366z" />
<glyph unicode="y" d="M17 898v37h497v-37q-49 -2 -69 -19t-20 -41q0 -38 50 -150l160 -366l109 283q59 151 59 210q0 37 -24.5 59t-86.5 24v37h313v-37q-46 -5 -75 -35.5t-97 -207.5l-267 -693q-101 -260 -150 -320q-69 -84 -173 -84q-83 0 -134.5 47.5t-51.5 114.5q0 58 35.5 96t87.5 38 q50 0 80.5 -32t31.5 -99q1 -38 9 -49t23 -11q24 0 51 29q40 42 94 192l29 78l-302 693q-68 157 -100.5 193t-78.5 50z" />
<glyph unicode="z" horiz-adv-x="909" d="M21 0v22l514 852h-150q-97 0 -139 -17.5t-68 -56t-54 -137.5h-35v272h787v-27l-510 -844h64q192 0 277 55t128 201h28l-28 -320h-814z" />
<glyph unicode="{" horiz-adv-x="807" d="M165 457v61q96 16 146 74t50 141q0 68 -22 153q-31 119 -31 181q0 65 39 132t98 109t129 61q54 15 146 18v-45q-100 -19 -147.5 -70.5t-47.5 -117.5q0 -67 24 -166.5t24 -173.5q0 -68 -40.5 -138.5t-116.5 -120.5q-53 -35 -169 -66q124 -39 180 -77q74 -51 111 -120 t37 -131q0 -60 -24.5 -160t-24.5 -174q0 -71 45.5 -122.5t148.5 -71.5v-47h-35q-102 -1 -193.5 47t-138 123.5t-46.5 146.5q0 69 31 189q23 89 23 159q0 79 -50 134.5t-146 71.5z" />
<glyph unicode="|" horiz-adv-x="451" d="M159 -442v1829h130v-1829h-130z" />
<glyph unicode="}" horiz-adv-x="807" d="M91 -368q99 19 147 70.5t48 117.5t-24 165.5t-24 173.5q0 69 40 139.5t117 120.5q53 34 169 66q-124 39 -180 77q-75 51 -112 120t-37 131q0 60 24.5 160t24.5 173q0 72 -45 123t-148 72v46l35 1q101 1 193 -47t138.5 -123.5t46.5 -147.5q0 -68 -31 -188 q-23 -89 -23 -159q0 -79 49.5 -135t146.5 -71v-61q-97 -16 -146.5 -74t-49.5 -141q0 -68 22 -153q30 -119 30 -181q0 -66 -38.5 -132.5t-97.5 -108.5t-129 -61q-54 -15 -146 -19v46z" />
<glyph unicode="~" horiz-adv-x="1065" d="M12 387q8 164 81.5 243.5t178.5 79.5q53 0 104 -14q101 -29 279 -105q96 -42 147 -56q30 -8 65 -8q71 0 119.5 47t57.5 135h57q-6 -159 -82.5 -241t-186.5 -82q-53 0 -112.5 17t-262.5 102q-146 61 -211 61q-68 0 -113.5 -41.5t-62.5 -137.5h-58z" />
<glyph unicode="&#xa1;" horiz-adv-x="682" d="M175 -273q0 75 50 284l53 218q28 116 41 276h45q6 -114 45 -276l52 -218q47 -196 47 -281q0 -77 -46 -124.5t-120 -47.5q-72 0 -119.5 48t-47.5 121zM178 810q0 68 47.5 115.5t114.5 47.5q68 0 115 -47.5t47 -115.5q0 -67 -47.5 -114.5t-114.5 -47.5t-114.5 47.5 t-47.5 114.5z" />
<glyph unicode="&#xa2;" d="M128 456q0 206 119.5 354.5t305.5 148.5q39 0 94 -4l150 393h72l-158 -413q89 -34 130.5 -89.5t41.5 -118.5q0 -56 -34 -90.5t-88 -34.5q-50 0 -83.5 24t-53.5 81l-159 -418q45 -81 96.5 -119t118.5 -38q110 0 200 111l32 -23q-134 -248 -383 -248q-87 0 -168 43 l-153 -392h-69l164 431q-87 72 -131 176t-44 226zM396 624q0 -104 33 -241l173 456q-32 55 -72 55q-47 0 -82 -52q-52 -75 -52 -218z" />
<glyph unicode="&#xa3;" d="M35 138q0 72 56 125.5t155 53.5q22 0 47 -4t53 -13q-5 62 -16 106l-71 225h-217v152h185q-15 111 -15 171q0 162 93 287q112 151 290 151q130 0 217.5 -77.5t87.5 -169.5q0 -62 -36.5 -100t-94.5 -38q-61 0 -97.5 38t-36.5 100q0 10 2 51q1 19 1 34q0 49 -21 72 q-22 23 -60 23q-35 0 -59 -29t-24 -91q0 -73 26 -207t34 -215h219v-152h-206q2 -51 2 -77q0 -146 -49 -294q53 -12 107.5 -18t110.5 -6q106 0 163 33q40 23 60 76h41q0 -177 -88.5 -275t-219.5 -98q-62 0 -116 23.5t-137 92.5q-43 -58 -84 -83q-56 -33 -120 -33 q-80 0 -131 50t-51 116zM115 131q0 -31 25 -54t61 -23q38 0 73 25.5t59 83.5q-40 29 -65 38.5t-54 9.5q-47 0 -73 -23.5t-26 -56.5z" />
<glyph unicode="&#xa4;" d="M21 1070l93 92l133 -135q124 90 261 90q134 0 271 -90l138 135l89 -87l-140 -140q87 -122 87 -260q0 -135 -87 -265l129 -128l-92 -91l-130 129q-80 -50 -136.5 -67.5t-126.5 -17.5q-74 0 -132.5 19t-130.5 66l-133 -129l-88 91l131 128q-88 117 -88 261q0 70 22 140 t66 124zM197 675q0 -130 92 -221.5t221 -91.5q130 0 221.5 91.5t91.5 221.5q0 129 -91.5 220.5t-221.5 91.5t-221.5 -91.5t-91.5 -220.5z" />
<glyph unicode="&#xa5;" d="M0 289v76h368v136l-14 40h-354v76h327l-183 509q-44 121 -80 159q-22 23 -64 27v44h493v-44q-61 -1 -80 -15t-19 -31q0 -21 29 -101l199 -548l164 475q39 115 39 162q0 29 -17 42.5t-79 15.5v44h293v-44q-46 -13 -77.5 -48t-71.5 -150l-172 -497h321v-76h-348l-13 -40 v-136h361v-76h-361v-44q0 -91 8 -118q14 -44 46 -67t108 -23h36v-37h-710v37h34q83 0 120.5 20t51 52.5t13.5 139.5v40h-368z" />
<glyph unicode="&#xa6;" horiz-adv-x="451" d="M159 289h130v-731h-130v731zM159 657v730h130v-730h-130z" />
<glyph unicode="&#xa7;" d="M92 464q0 87 48 167.5t166 175.5q-82 73 -117 136.5t-35 134.5q0 122 102.5 215.5t264.5 93.5q151 0 243.5 -76.5t92.5 -165.5q0 -54 -32.5 -88t-82.5 -34q-49 0 -80 31t-31 74q0 19 6 48.5t6 48.5q0 40 -31.5 67.5t-92.5 27.5q-75 0 -126 -47t-51 -102q0 -64 41 -117 q40 -54 189 -148q360 -223 360 -447q0 -89 -48 -163.5t-167 -156.5q88 -85 119.5 -146.5t31.5 -134.5q0 -83 -43 -151.5t-128 -108.5t-196 -40q-158 0 -243 73t-85 168q0 51 34 86.5t84 35.5q48 0 80.5 -32t32.5 -71q0 -23 -12.5 -58.5t-12.5 -58.5q0 -27 30 -50t93 -23 q88 0 136.5 43t48.5 101q0 67 -33 111q-45 59 -190 147q-181 111 -287 237q-85 102 -85 197zM265 590q0 -49 29 -99.5t98 -106.5l274 -204q53 49 75 90.5t22 83.5q0 47 -23 88q-37 64 -110 121q-35 28 -270 200q-95 -82 -95 -173z" />
<glyph unicode="&#xa8;" horiz-adv-x="682" d="M22 1235q0 55 39 94t94 39q56 0 94.5 -39t38.5 -94t-39 -94t-94 -39t-94 39t-39 94zM396 1235q0 55 39 94t94 39q56 0 94.5 -39t38.5 -94t-39 -94t-94 -39t-94 39t-39 94z" />
<glyph unicode="&#xa9;" horiz-adv-x="1530" d="M59 678q0 185 95.5 355.5t265.5 262t348 91.5q179 0 349 -91.5t265.5 -262t95.5 -355.5q0 -184 -94 -353t-263 -262.5t-353 -93.5t-352.5 93.5t-262.5 262.5t-94 353zM148 678q0 -161 82 -308.5t230 -229.5t308 -82q161 0 308.5 82t229.5 229.5t82 308.5t-83 310.5 t-231.5 229.5t-305.5 80q-156 0 -304.5 -80t-232 -229.5t-83.5 -310.5zM336 668q0 191 125 315t315 124q86 0 197 -40q32 -12 46 -12q18 0 30.5 12t15.5 39h38v-264h-38q-20 101 -87.5 158.5t-158.5 57.5q-110 0 -184 -87.5t-74 -276.5q0 -202 72.5 -288t180.5 -86 q148 0 261 138v-70q-121 -127 -318 -127q-188 0 -304.5 113.5t-116.5 293.5z" />
<glyph unicode="&#xaa;" horiz-adv-x="614" d="M46 911q0 52 43 97q56 59 277 153v56q0 63 -7 79.5t-27.5 29.5t-49.5 13q-41 0 -69 -19q-16 -10 -16 -24q0 -12 19 -31q24 -26 24 -49q0 -30 -23 -51t-62 -21q-43 0 -69.5 23.5t-26.5 54.5q0 56 59 100q82 62 209 62q83 0 137 -28.5t69 -64t15 -130.5v-218q0 -39 3 -48.5 t9.5 -14.5t15.5 -5q17 0 34 22l20 -14q-63 -85 -147 -85q-53 0 -81.5 22.5t-35.5 68.5q-110 -91 -198 -91q-55 0 -88.5 32.5t-33.5 80.5zM224 966q0 -28 18.5 -47.5t47.5 -19.5q34 0 76 34v187q-79 -42 -117 -92q-25 -31 -25 -62z" />
<glyph unicode="&#xab;" d="M36 469l423 458h79l-239 -453l239 -466h-79zM491 469l424 458h72l-235 -458l235 -461h-77z" />
<glyph unicode="&#xac;" horiz-adv-x="1167" d="M41 774v128h1094v-455h-129v329z" />
<glyph unicode="&#xad;" horiz-adv-x="682" d="M50 367v207h583v-207h-583z" />
<glyph unicode="&#xae;" horiz-adv-x="1530" d="M59 678q0 185 95.5 355.5t265.5 262t348 91.5q179 0 349 -91.5t265.5 -262t95.5 -355.5q0 -184 -94 -353t-263 -262.5t-353 -93.5t-352.5 93.5t-262.5 262.5t-94 353zM148 678q0 -161 82 -308.5t230 -229.5t308 -82q161 0 308.5 82t229.5 229.5t82 308.5t-83 310.5 t-231.5 229.5t-305.5 80q-156 0 -304.5 -80t-232 -229.5t-83.5 -310.5zM373 281v34q62 0 80 21q25 29 25 115v472q0 82 -17.5 104.5t-71.5 28.5v34h362q183 0 254 -44q101 -63 101 -175q0 -71 -44.5 -126.5t-134.5 -80.5l137 -250q30 -54 62 -81q15 -13 43 -18v-34h-242 l-205 368h-46v-198q0 -85 22.5 -109t97.5 -27v-34h-423zM676 700q34 -5 57 -5q65 0 111.5 49t46.5 131q0 84 -43.5 127.5t-133.5 43.5h-38v-346z" />
<glyph unicode="&#xaf;" d="M-19 1462v131h1062v-131h-1062z" />
<glyph unicode="&#xb0;" horiz-adv-x="819" d="M59 1038q0 90 46.5 173.5t129.5 128t170 44.5t170 -44.5t129.5 -128t46.5 -173.5q0 -143 -101.5 -244.5t-244.5 -101.5t-244.5 101.5t-101.5 244.5zM190 1039q0 -89 63 -152t152 -63t152 63t63 152t-63 152t-152 63q-90 0 -152.5 -63t-62.5 -152z" />
<glyph unicode="&#xb1;" horiz-adv-x="1124" d="M15 267h482v345h-481v132h481v480h131v-480h481v-132h-481l1 -344h480v-132h-1093z" />
<glyph unicode="&#xb2;" horiz-adv-x="614" d="M24 664v18q227 235 268 310t41 139q0 51 -34 85.5t-86 34.5q-85 0 -134 -82l-42 13q32 101 99 151.5t159 50.5q104 0 168 -57t64 -126q0 -61 -51.5 -144.5t-243.5 -245.5h152q73 0 91 9t36 43q5 10 8 14h46l-46 -213h-495z" />
<glyph unicode="&#xb3;" horiz-adv-x="614" d="M15 737q0 25 22 44t56 19q21 0 43 -9q11 -4 65.5 -43.5t101.5 -39.5q39 0 66.5 28.5t27.5 71.5q0 67 -53.5 124.5t-168.5 80.5v27q87 21 110 41q46 38 46 90q0 40 -31 69t-82 29q-76 0 -134 -79l-41 14q90 180 269 180q94 0 149.5 -47.5t55.5 -106.5q0 -83 -97 -135 q134 -63 134 -180q0 -105 -91 -185.5t-252 -80.5q-112 0 -162 33q-34 23 -34 55z" />
<glyph unicode="&#xb4;" horiz-adv-x="682" d="M228 1055l116 347h301l-331 -347h-86z" />
<glyph unicode="&#xb5;" horiz-adv-x="1180" d="M79 -324q0 44 24 138q32 125 40.5 197.5t8.5 247.5v676h278v-694q1 -79 22.5 -105.5t62.5 -26.5q90 0 165 121v705h277v-625l1 -53q0 -81 19.5 -107.5t48.5 -26.5q23 0 41 24q27 36 35 120h43q-4 -141 -77.5 -218t-180.5 -77q-72 0 -123.5 38t-76.5 119 q-75 -83 -144 -120t-147 -37q-40 0 -70 10.5t-79 45.5q0 -61 5.5 -96.5t29.5 -121t24 -119.5q0 -62 -33 -97t-86 -35q-50 0 -79 30.5t-29 86.5z" />
<glyph unicode="&#xb6;" horiz-adv-x="1106" d="M1 903q0 102 25 168.5t79.5 127t111.5 93.5t131 46q96 18 321 18h440v-44h-44q-59 0 -89 -18t-45 -52q-11 -25 -11 -133v-1551h-99v1722h-182v-1722h-100v871q-186 8 -301.5 62t-176 164.5t-60.5 247.5z" />
<glyph unicode="&#xb7;" horiz-adv-x="683" d="M209 707q0 54 38.5 92.5t93.5 38.5t93.5 -38.5t38.5 -92.5q0 -55 -39 -93.5t-93 -38.5q-55 0 -93.5 38.5t-38.5 93.5z" />
<glyph unicode="&#xb8;" horiz-adv-x="682" d="M145 -338q100 4 135.5 32.5t35.5 78.5q0 30 -23.5 50t-67.5 20l118 169h66l-47 -73q60 -10 91.5 -48.5t31.5 -96.5q0 -52 -31 -95t-79 -60q-76 -25 -230 -24v47z" />
<glyph unicode="&#xb9;" horiz-adv-x="614" d="M74 1263l305 121h35v-573q0 -66 7 -85q5 -12 21.5 -21t59.5 -9h30v-32h-446v32h33q52 0 72 10q13 7 18 18q9 21 9 87v359q0 46 -4 57t-15 18t-28 7q-28 0 -79 -20z" />
<glyph unicode="&#xba;" horiz-adv-x="676" d="M56 1084q0 132 80.5 216t202.5 84q125 0 206 -82.5t81 -214.5q0 -134 -79.5 -216t-204.5 -82q-126 0 -206 82.5t-80 212.5zM246 1033q0 -125 26.5 -164t67.5 -39q30 0 52 19t30 53q13 58 13 227q0 137 -25 174.5t-67 37.5q-31 0 -53.5 -18t-29.5 -55q-14 -60 -14 -235z " />
<glyph unicode="&#xbb;" d="M38 8l234 458l-234 461h77l418 -461l-423 -458h-72zM487 8l238 453l-238 466h79l423 -461l-423 -458h-79z" />
<glyph unicode="&#xbc;" horiz-adv-x="1536" d="M72 1263l305 121h35v-573q0 -66 7 -85q5 -12 21.5 -21t59.5 -9h30v-32h-446v32h33q52 0 72 10q13 7 18 18q9 21 9 87v359q0 46 -4 57t-15 18t-28 7q-28 0 -79 -20zM245 -59l959 1443h136l-963 -1443h-132zM945 108v113l385 454h91v-454h74v-113h-74v-155h-180v155h-296z M1028 221h213v249z" />
<glyph unicode="&#xbd;" horiz-adv-x="1536" d="M72 1263l305 121h35v-573q0 -66 7 -85q5 -12 21.5 -21t59.5 -9h30v-32h-446v32h33q52 0 72 10q13 7 18 18q9 21 9 87v359q0 46 -4 57t-15 18t-28 7q-28 0 -79 -20zM216 -59l964 1443h136l-963 -1443h-137zM944 -28q227 235 268 309.5t41 138.5q0 52 -34 86t-86 34 q-85 0 -135 -82l-41 14q32 100 99 150.5t159 50.5q104 0 168 -56.5t64 -125.5q0 -61 -51.5 -145t-243.5 -246h152q73 0 91 9t36 44q5 10 8 14h46l-46 -214h-495v19z" />
<glyph unicode="&#xbe;" horiz-adv-x="1536" d="M13 737q0 25 22 44t56 19q21 0 43 -9q11 -4 65.5 -43.5t101.5 -39.5q39 0 66.5 28.5t27.5 71.5q0 67 -53.5 124.5t-168.5 80.5v27q87 21 110 41q46 38 46 90q0 40 -31 69t-82 29q-76 0 -134 -79l-41 14q90 180 269 180q94 0 149.5 -47.5t55.5 -106.5q0 -83 -97 -135 q134 -63 134 -180q0 -105 -91 -185.5t-252 -80.5q-112 0 -162 33q-34 23 -34 55zM245 -59l959 1443h136l-963 -1443h-132zM945 108v113l385 454h91v-454h74v-113h-74v-155h-180v155h-296zM1028 221h213v249z" />
<glyph unicode="&#xbf;" d="M115 -125q0 95 51.5 175t201.5 179q100 66 131 117.5t39 156.5h41q2 -110 -11 -165t-65 -151.5t-68.5 -155t-16.5 -144.5q0 -133 52 -196t123 -63q54 0 91 29q28 22 28 46q0 16 -19 50q-43 77 -43 132q0 49 33.5 82t83.5 33q55 0 93.5 -39.5t38.5 -104.5 q0 -119 -102 -208.5t-285 -89.5q-194 0 -295.5 93t-101.5 224zM387 811q0 67 47 114t115 47q67 0 114 -47t47 -114t-47.5 -114t-113.5 -47q-67 0 -114.5 47t-47.5 114z" />
<glyph unicode="&#xc0;" horiz-adv-x="1479" d="M16 0v37q73 11 120 60.5t116 204.5l485 1082h19l489 -1112q70 -158 115 -199q34 -31 96 -36v-37h-656v37h27q79 0 111 22q22 16 22 46q0 18 -6 37q-2 9 -30 75l-72 169h-479l-57 -132q-28 -66 -28 -109q0 -57 46 -84q27 -16 133 -24v-37h-451zM408 460h410l-202 467z M432 1819h301l116 -347h-85z" />
<glyph unicode="&#xc1;" horiz-adv-x="1479" d="M16 0v37q73 11 120 60.5t116 204.5l485 1082h19l489 -1112q70 -158 115 -199q34 -31 96 -36v-37h-656v37h27q79 0 111 22q22 16 22 46q0 18 -6 37q-2 9 -30 75l-72 169h-479l-57 -132q-28 -66 -28 -109q0 -57 46 -84q27 -16 133 -24v-37h-451zM408 460h410l-202 467z M622 1472l116 347h301l-331 -347h-86z" />
<glyph unicode="&#xc2;" horiz-adv-x="1479" d="M16 0v37q73 11 120 60.5t116 204.5l485 1082h19l489 -1112q70 -158 115 -199q34 -31 96 -36v-37h-656v37h27q79 0 111 22q22 16 22 46q0 18 -6 37q-2 9 -30 75l-72 169h-479l-57 -132q-28 -66 -28 -109q0 -57 46 -84q27 -16 133 -24v-37h-451zM408 460h410l-202 467z M413 1443l213 376h226l203 -382h-77l-238 206l-245 -200h-82z" />
<glyph unicode="&#xc3;" horiz-adv-x="1479" d="M16 0v37q73 11 120 60.5t116 204.5l485 1082h19l489 -1112q70 -158 115 -199q34 -31 96 -36v-37h-656v37h27q79 0 111 22q22 16 22 46q0 18 -6 37q-2 9 -30 75l-72 169h-479l-57 -132q-28 -66 -28 -109q0 -57 46 -84q27 -16 133 -24v-37h-451zM408 460h410l-202 467z M414 1476q-4 130 59.5 204t156.5 74q30 0 50 -6q28 -8 96 -40q103 -47 147 -47q22 0 42 18t38 73h53q1 -20 1 -34q0 -110 -62 -177t-150 -67q-65 0 -163.5 47t-131.5 47q-30 0 -50 -20t-28 -72h-58z" />
<glyph unicode="&#xc4;" horiz-adv-x="1479" d="M16 0v37q73 11 120 60.5t116 204.5l485 1082h19l489 -1112q70 -158 115 -199q34 -31 96 -36v-37h-656v37h27q79 0 111 22q22 16 22 46q0 18 -6 37q-2 9 -30 75l-72 169h-479l-57 -132q-28 -66 -28 -109q0 -57 46 -84q27 -16 133 -24v-37h-451zM408 460h410l-202 467z M418 1623q0 55 39 94t94 39q56 0 94.5 -39t38.5 -94t-39 -94t-94 -39t-94 39t-39 94zM792 1623q0 55 39 94t94 39q56 0 94.5 -39t38.5 -94t-39 -94t-94 -39t-94 39t-39 94z" />
<glyph unicode="&#xc5;" horiz-adv-x="1479" d="M16 0v37q73 11 120 60.5t116 204.5l485 1082h19l489 -1112q70 -158 115 -199q34 -31 96 -36v-37h-656v37h27q79 0 111 22q22 16 22 46q0 18 -6 37q-2 9 -30 75l-72 169h-479l-57 -132q-28 -66 -28 -109q0 -57 46 -84q27 -16 133 -24v-37h-451zM408 460h410l-202 467z M542 1513q0 87 61 148t148 61q88 0 149 -61t61 -148t-61.5 -148.5t-148.5 -61.5q-86 0 -147.5 61.5t-61.5 148.5zM619 1513q0 -55 39 -93.5t94 -38.5q54 0 93 38.5t39 93.5t-38.5 93.5t-93.5 38.5q-56 0 -94.5 -38.5t-38.5 -93.5z" />
<glyph unicode="&#xc6;" horiz-adv-x="2048" d="M-23 0v37q54 6 99.5 39.5t117.5 148.5l549 874q68 108 68 135q0 24 -15.5 45.5t-43.5 30.5t-122 9v37h1230v-402h-39q-26 132 -76.5 200.5t-124.5 95.5t-240 27h-106v-549h36q94 0 155.5 66.5t86.5 251.5h35v-710h-35q-14 119 -54 201q-27 55 -77 87.5t-111 32.5h-36 v-413q0 -88 5 -107q8 -31 34.5 -47t110.5 -16h80q97 0 186.5 45.5t139.5 114.5t88 193h38l-62 -427h-1190v37h76q88 0 121 23.5t43 62.5q4 16 4 115v345h-439l-191 -305q-45 -71 -52 -91q-11 -28 -11 -54q0 -38 35.5 -66t126.5 -30v-37h-440zM554 657h394v620z" />
<glyph unicode="&#xc7;" horiz-adv-x="1479" d="M81 653q0 194 101.5 368t274 270t366.5 96q143 0 302 -62q92 -36 117 -36q32 0 55.5 23.5t30.5 74.5h39v-470h-39q-44 184 -164 282t-272 98q-127 0 -233 -73t-155 -191q-63 -151 -63 -336q0 -182 46 -331.5t144 -226t254 -76.5q128 0 234.5 56t224.5 193v-117 q-114 -119 -237.5 -172.5t-288.5 -53.5q-217 0 -385.5 87t-260 250t-91.5 347zM602 -338q100 4 135.5 32.5t35.5 78.5q0 30 -23.5 50t-67.5 20l118 169h66l-47 -73q60 -10 91.5 -48.5t31.5 -96.5q0 -52 -31 -95t-79 -60q-76 -25 -230 -24v47z" />
<glyph unicode="&#xc8;" horiz-adv-x="1366" d="M41 0v37h45q59 0 95 21q26 14 40 48q11 24 11 126v892q0 92 -5 113q-10 35 -37 54q-38 28 -104 28h-45v37h1135v-401h-38q-29 147 -81.5 211t-148.5 94q-56 18 -210 18h-140v-552h27q129 0 187 81t74 239h38v-710h-38q-12 116 -50.5 190t-89.5 99.5t-148 25.5v-382 q0 -112 9.5 -137t35.5 -41t84 -16h81q190 0 304.5 88t164.5 268h37l-61 -431h-1172zM379 1819h301l116 -347h-85z" />
<glyph unicode="&#xc9;" horiz-adv-x="1366" d="M41 0v37h45q59 0 95 21q26 14 40 48q11 24 11 126v892q0 92 -5 113q-10 35 -37 54q-38 28 -104 28h-45v37h1135v-401h-38q-29 147 -81.5 211t-148.5 94q-56 18 -210 18h-140v-552h27q129 0 187 81t74 239h38v-710h-38q-12 116 -50.5 190t-89.5 99.5t-148 25.5v-382 q0 -112 9.5 -137t35.5 -41t84 -16h81q190 0 304.5 88t164.5 268h37l-61 -431h-1172zM569 1472l116 347h301l-331 -347h-86z" />
<glyph unicode="&#xca;" horiz-adv-x="1366" d="M41 0v37h45q59 0 95 21q26 14 40 48q11 24 11 126v892q0 92 -5 113q-10 35 -37 54q-38 28 -104 28h-45v37h1135v-401h-38q-29 147 -81.5 211t-148.5 94q-56 18 -210 18h-140v-552h27q129 0 187 81t74 239h38v-710h-38q-12 116 -50.5 190t-89.5 99.5t-148 25.5v-382 q0 -112 9.5 -137t35.5 -41t84 -16h81q190 0 304.5 88t164.5 268h37l-61 -431h-1172zM360 1443l213 376h226l203 -382h-77l-238 206l-245 -200h-82z" />
<glyph unicode="&#xcb;" horiz-adv-x="1366" d="M41 0v37h45q59 0 95 21q26 14 40 48q11 24 11 126v892q0 92 -5 113q-10 35 -37 54q-38 28 -104 28h-45v37h1135v-401h-38q-29 147 -81.5 211t-148.5 94q-56 18 -210 18h-140v-552h27q129 0 187 81t74 239h38v-710h-38q-12 116 -50.5 190t-89.5 99.5t-148 25.5v-382 q0 -112 9.5 -137t35.5 -41t84 -16h81q190 0 304.5 88t164.5 268h37l-61 -431h-1172zM365 1623q0 55 39 94t94 39q56 0 94.5 -39t38.5 -94t-39 -94t-94 -39t-94 39t-39 94zM739 1623q0 55 39 94t94 39q56 0 94.5 -39t38.5 -94t-39 -94t-94 -39t-94 39t-39 94z" />
<glyph unicode="&#xcc;" horiz-adv-x="797" d="M41 0v37h45q59 0 95 21q26 14 40 48q11 24 11 126v892q0 104 -11 130t-44.5 45.5t-90.5 19.5h-45v37h709v-37h-45q-59 0 -95 -21q-26 -14 -41 -48q-11 -24 -11 -126v-892q0 -104 11.5 -130t45 -45.5t90.5 -19.5h45v-37h-709zM90 1819h301l116 -347h-85z" />
<glyph unicode="&#xcd;" horiz-adv-x="797" d="M41 0v37h45q59 0 95 21q26 14 40 48q11 24 11 126v892q0 104 -11 130t-44.5 45.5t-90.5 19.5h-45v37h709v-37h-45q-59 0 -95 -21q-26 -14 -41 -48q-11 -24 -11 -126v-892q0 -104 11.5 -130t45 -45.5t90.5 -19.5h45v-37h-709zM281 1472l116 347h301l-331 -347h-86z" />
<glyph unicode="&#xce;" horiz-adv-x="797" d="M41 0v37h45q59 0 95 21q26 14 40 48q11 24 11 126v892q0 104 -11 130t-44.5 45.5t-90.5 19.5h-45v37h709v-37h-45q-59 0 -95 -21q-26 -14 -41 -48q-11 -24 -11 -126v-892q0 -104 11.5 -130t45 -45.5t90.5 -19.5h45v-37h-709zM72 1443l213 376h226l203 -382h-77l-238 206 l-245 -200h-82z" />
<glyph unicode="&#xcf;" horiz-adv-x="797" d="M41 0v37h45q59 0 95 21q26 14 40 48q11 24 11 126v892q0 104 -11 130t-44.5 45.5t-90.5 19.5h-45v37h709v-37h-45q-59 0 -95 -21q-26 -14 -41 -48q-11 -24 -11 -126v-892q0 -104 11.5 -130t45 -45.5t90.5 -19.5h45v-37h-709zM77 1623q0 55 39 94t94 39q56 0 94.5 -39 t38.5 -94t-39 -94t-94 -39t-94 39t-39 94zM451 1623q0 55 39 94t94 39q56 0 94.5 -39t38.5 -94t-39 -94t-94 -39t-94 39t-39 94z" />
<glyph unicode="&#xd0;" horiz-adv-x="1479" d="M35 0v37h45q59 0 90.5 18.5t46.5 50.5q10 22 10 126v446h-192v74h192v372q0 104 -11.5 130t-45 45.5t-90.5 19.5h-45v37h608q243 0 391 -66q181 -81 274 -245t93 -371q0 -143 -45.5 -263.5t-119 -199t-169 -126t-233.5 -73.5q-60 -12 -191 -12h-608zM552 678l1 -457 q0 -84 8 -103t26 -29q28 -15 78 -15q167 0 256 114q119 154 119 478q0 261 -82 417q-64 122 -166 166q-72 31 -239 30l-1 -527h301v-74h-301z" />
<glyph unicode="&#xd1;" horiz-adv-x="1479" d="M29 0v37q112 1 156 46t44 153v957l-29 36q-43 54 -76 71t-95 19v37h481l669 -841v583q0 122 -35 165q-48 58 -161 56v37h448v-37q-86 -11 -115.5 -28.5t-46 -57t-16.5 -135.5v-1129h-34l-917 1129v-862q0 -117 53.5 -158t122.5 -41h32v-37h-481zM413 1478 q-4 130 59.5 204t156.5 74q30 0 50 -6q28 -8 96 -40q103 -47 147 -47q22 0 42 18t38 73h53q1 -20 1 -34q0 -110 -62 -177t-150 -67q-65 0 -163.5 47t-131.5 47q-30 0 -50 -20t-28 -72h-58z" />
<glyph unicode="&#xd2;" horiz-adv-x="1593" d="M80 682q0 302 205.5 503.5t505.5 189.5q324 12 526.5 -189t202.5 -503q0 -258 -151 -454q-200 -260 -565 -260q-366 0 -566 248q-158 196 -158 465zM441 673q0 -347 122 -513q85 -116 238 -116q103 0 172 50q88 64 137 204.5t49 366.5q0 269 -50 402.5t-127.5 188.5 t-178.5 55q-186 0 -283 -190q-79 -156 -79 -448zM495 1819h301l116 -347h-85z" />
<glyph unicode="&#xd3;" horiz-adv-x="1593" d="M80 682q0 302 205.5 503.5t505.5 189.5q324 12 526.5 -189t202.5 -503q0 -258 -151 -454q-200 -260 -565 -260q-366 0 -566 248q-158 196 -158 465zM441 673q0 -347 122 -513q85 -116 238 -116q103 0 172 50q88 64 137 204.5t49 366.5q0 269 -50 402.5t-127.5 188.5 t-178.5 55q-186 0 -283 -190q-79 -156 -79 -448zM685 1472l116 347h301l-331 -347h-86z" />
<glyph unicode="&#xd4;" horiz-adv-x="1593" d="M80 682q0 302 205.5 503.5t505.5 189.5q324 12 526.5 -189t202.5 -503q0 -258 -151 -454q-200 -260 -565 -260q-366 0 -566 248q-158 196 -158 465zM441 673q0 -347 122 -513q85 -116 238 -116q103 0 172 50q88 64 137 204.5t49 366.5q0 269 -50 402.5t-127.5 188.5 t-178.5 55q-186 0 -283 -190q-79 -156 -79 -448zM476 1443l213 376h226l203 -382h-77l-238 206l-245 -200h-82z" />
<glyph unicode="&#xd5;" horiz-adv-x="1593" d="M80 682q0 302 205.5 503.5t505.5 189.5q324 12 526.5 -189t202.5 -503q0 -258 -151 -454q-200 -260 -565 -260q-366 0 -566 248q-158 196 -158 465zM441 673q0 -347 122 -513q85 -116 238 -116q103 0 172 50q88 64 137 204.5t49 366.5q0 269 -50 402.5t-127.5 188.5 t-178.5 55q-186 0 -283 -190q-79 -156 -79 -448zM476 1478q-4 130 59.5 204t156.5 74q30 0 50 -6q28 -8 96 -40q103 -47 147 -47q22 0 42 18t38 73h53q1 -20 1 -34q0 -110 -62 -177t-150 -67q-65 0 -163.5 47t-131.5 47q-30 0 -50 -20t-28 -72h-58z" />
<glyph unicode="&#xd6;" horiz-adv-x="1593" d="M80 682q0 302 205.5 503.5t505.5 189.5q324 12 526.5 -189t202.5 -503q0 -258 -151 -454q-200 -260 -565 -260q-366 0 -566 248q-158 196 -158 465zM441 673q0 -347 122 -513q85 -116 238 -116q103 0 172 50q88 64 137 204.5t49 366.5q0 269 -50 402.5t-127.5 188.5 t-178.5 55q-186 0 -283 -190q-79 -156 -79 -448zM481 1623q0 55 39 94t94 39q56 0 94.5 -39t38.5 -94t-39 -94t-94 -39t-94 39t-39 94zM855 1623q0 55 39 94t94 39q56 0 94.5 -39t38.5 -94t-39 -94t-94 -39t-94 39t-39 94z" />
<glyph unicode="&#xd7;" horiz-adv-x="1167" d="M154 1019l93 93l340 -340l340 339l92 -92l-339 -340l340 -340l-93 -93l-340 340l-338 -337l-92 92l337 337z" />
<glyph unicode="&#xd8;" horiz-adv-x="1593" d="M81 682q0 192 93.5 358.5t262.5 256.5t367 90q259 0 445 -145l154 178l57 -49l-154 -178q213 -208 213 -513q0 -205 -96.5 -372t-267.5 -253t-348 -86q-107 0 -229.5 34t-218.5 99l-157 -179l-55 49l156 179q-109 101 -165.5 242t-56.5 289zM442 667q0 -159 34 -317 l625 722q-53 127 -113 174q-80 63 -188 63q-150 0 -243 -125q-115 -155 -115 -517zM504 268q59 -125 127 -175t170 -50q108 0 186.5 63.5t130.5 227.5q39 122 39 323q0 111 -7 185q-5 53 -22 144z" />
<glyph unicode="&#xd9;" horiz-adv-x="1479" d="M48 1319v37h700v-37h-35q-79 0 -108.5 -16.5t-42 -45.5t-12.5 -145v-664q0 -182 27.5 -241t90.5 -98t159 -39q110 0 187.5 49.5t116 136.5t38.5 303v553q0 91 -19 130t-48 54q-45 23 -127 23v37h469v-37h-28q-57 0 -95 -23t-55 -69q-13 -32 -13 -115v-515 q0 -239 -31.5 -345t-153.5 -195t-333 -89q-176 0 -272 47q-131 64 -185 164t-54 269v664q0 117 -13 145.5t-45 45.5t-118 16zM459 1819h301l116 -347h-85z" />
<glyph unicode="&#xda;" horiz-adv-x="1479" d="M48 1319v37h700v-37h-35q-79 0 -108.5 -16.5t-42 -45.5t-12.5 -145v-664q0 -182 27.5 -241t90.5 -98t159 -39q110 0 187.5 49.5t116 136.5t38.5 303v553q0 91 -19 130t-48 54q-45 23 -127 23v37h469v-37h-28q-57 0 -95 -23t-55 -69q-13 -32 -13 -115v-515 q0 -239 -31.5 -345t-153.5 -195t-333 -89q-176 0 -272 47q-131 64 -185 164t-54 269v664q0 117 -13 145.5t-45 45.5t-118 16zM599 1472l116 347h301l-331 -347h-86z" />
<glyph unicode="&#xdb;" horiz-adv-x="1479" d="M48 1319v37h700v-37h-35q-79 0 -108.5 -16.5t-42 -45.5t-12.5 -145v-664q0 -182 27.5 -241t90.5 -98t159 -39q110 0 187.5 49.5t116 136.5t38.5 303v553q0 91 -19 130t-48 54q-45 23 -127 23v37h469v-37h-28q-57 0 -95 -23t-55 -69q-13 -32 -13 -115v-515 q0 -239 -31.5 -345t-153.5 -195t-333 -89q-176 0 -272 47q-131 64 -185 164t-54 269v664q0 117 -13 145.5t-45 45.5t-118 16zM446 1443l213 376h226l203 -382h-77l-238 206l-245 -200h-82z" />
<glyph unicode="&#xdc;" horiz-adv-x="1479" d="M48 1319v37h700v-37h-35q-79 0 -108.5 -16.5t-42 -45.5t-12.5 -145v-664q0 -182 27.5 -241t90.5 -98t159 -39q110 0 187.5 49.5t116 136.5t38.5 303v553q0 91 -19 130t-48 54q-45 23 -127 23v37h469v-37h-28q-57 0 -95 -23t-55 -69q-13 -32 -13 -115v-515 q0 -239 -31.5 -345t-153.5 -195t-333 -89q-176 0 -272 47q-131 64 -185 164t-54 269v664q0 117 -13 145.5t-45 45.5t-118 16zM418 1623q0 55 39 94t94 39q56 0 94.5 -39t38.5 -94t-39 -94t-94 -39t-94 39t-39 94zM792 1623q0 55 39 94t94 39q56 0 94.5 -39t38.5 -94t-39 -94 t-94 -39t-94 39t-39 94z" />
<glyph unicode="&#xdd;" horiz-adv-x="1479" d="M18 1319v37h650v-37h-29q-59 0 -82.5 -17t-23.5 -36q0 -36 80 -181l245 -449l244 409q91 150 91 199q0 27 -26 45q-34 25 -125 30v37h414v-37q-67 -9 -103 -39q-50 -42 -158 -229l-294 -491v-328q0 -105 11 -130.5t43.5 -45t86.5 -19.5h76v-37h-761v37h71q60 0 95 21 q26 14 41 48q11 24 11 126v272l-319 581q-95 172 -134 202.5t-104 31.5zM667 1472l116 347h301l-331 -347h-86z" />
<glyph unicode="&#xde;" horiz-adv-x="1251" d="M41 0v37h49q63 0 99 27q25 18 35 55q5 18 5 107v886q0 119 -10.5 145.5t-36.5 41.5q-37 22 -96 22h-45v35h685v-35h-45q-64 0 -99 -25q-25 -18 -35 -55q-5 -20 -5 -126v-61h72q185 0 284 -25q128 -33 205.5 -125t77.5 -220q0 -107 -56 -197t-163 -135t-349 -45h-71v-62 q0 -119 10 -144t38 -41q37 -23 93 -23h43v-37h-685zM542 385q140 0 191.5 25.5t78.5 77.5q36 73 36 196q0 106 -35.5 175.5t-94.5 96.5q-44 20 -152 20h-24v-591z" />
<glyph unicode="&#xdf;" horiz-adv-x="1139" d="M58 0v36q55 7 77.5 37t22.5 130v798q0 141 48 220t148 122.5t219 43.5q209 0 307.5 -84t98.5 -214q0 -120 -69 -186q-50 -47 -168 -67q103 -21 161 -66t96 -138t38 -203q0 -136 -41.5 -237t-117.5 -151.5t-166 -50.5q-94 0 -146 46t-52 109q0 46 26.5 73t70.5 27 q29 0 46 -9t33.5 -32t16.5 -29l-7 -90q0 -5 15 -17t34 -12t36.5 20t17.5 47q0 24 -36 131q-18 55 -20 67q-5 32 -5 90v143q0 114 -12.5 151.5t-46.5 60t-106 26.5v61q58 0 84 22t36 68q4 24 4 129q0 139 -22 183q-33 64 -112 64q-41 0 -68 -19q-37 -26 -51 -62t-14 -158 v-1080h-376z" />
<glyph unicode="&#xe0;" d="M92 171q0 107 92 192.5t401 227.5v94q0 106 -11.5 133.5t-43.5 48t-72 20.5q-65 0 -107 -29q-26 -18 -26 -42q0 -21 28 -52q38 -43 38 -83q0 -49 -36.5 -83.5t-95.5 -34.5q-63 0 -105.5 38t-42.5 89q0 72 57 137.5t159 100.5t212 35q133 0 210.5 -56.5t100.5 -122.5 q14 -42 14 -193v-363q0 -64 5 -80.5t15 -24.5t23 -8q26 0 53 37l30 -24q-50 -74 -103.5 -107.5t-121.5 -33.5q-80 0 -125 37.5t-55 113.5q-171 -151 -307 -151q-80 0 -133 52.5t-53 131.5zM208 1402h301l116 -347h-85zM366 263q0 -46 33 -81q25 -27 70 -27q50 0 116 56v313 q-121 -71 -180 -152q-39 -54 -39 -109z" />
<glyph unicode="&#xe1;" d="M92 171q0 107 92 192.5t401 227.5v94q0 106 -11.5 133.5t-43.5 48t-72 20.5q-65 0 -107 -29q-26 -18 -26 -42q0 -21 28 -52q38 -43 38 -83q0 -49 -36.5 -83.5t-95.5 -34.5q-63 0 -105.5 38t-42.5 89q0 72 57 137.5t159 100.5t212 35q133 0 210.5 -56.5t100.5 -122.5 q14 -42 14 -193v-363q0 -64 5 -80.5t15 -24.5t23 -8q26 0 53 37l30 -24q-50 -74 -103.5 -107.5t-121.5 -33.5q-80 0 -125 37.5t-55 113.5q-171 -151 -307 -151q-80 0 -133 52.5t-53 131.5zM366 263q0 -46 33 -81q25 -27 70 -27q50 0 116 56v313q-121 -71 -180 -152 q-39 -54 -39 -109zM398 1055l116 347h301l-331 -347h-86z" />
<glyph unicode="&#xe2;" d="M92 171q0 107 92 192.5t401 227.5v94q0 106 -11.5 133.5t-43.5 48t-72 20.5q-65 0 -107 -29q-26 -18 -26 -42q0 -21 28 -52q38 -43 38 -83q0 -49 -36.5 -83.5t-95.5 -34.5q-63 0 -105.5 38t-42.5 89q0 72 57 137.5t159 100.5t212 35q133 0 210.5 -56.5t100.5 -122.5 q14 -42 14 -193v-363q0 -64 5 -80.5t15 -24.5t23 -8q26 0 53 37l30 -24q-50 -74 -103.5 -107.5t-121.5 -33.5q-80 0 -125 37.5t-55 113.5q-171 -151 -307 -151q-80 0 -133 52.5t-53 131.5zM189 1051l213 376h226l203 -382h-77l-238 206l-245 -200h-82zM366 263q0 -46 33 -81 q25 -27 70 -27q50 0 116 56v313q-121 -71 -180 -152q-39 -54 -39 -109z" />
<glyph unicode="&#xe3;" d="M92 171q0 107 92 192.5t401 227.5v94q0 106 -11.5 133.5t-43.5 48t-72 20.5q-65 0 -107 -29q-26 -18 -26 -42q0 -21 28 -52q38 -43 38 -83q0 -49 -36.5 -83.5t-95.5 -34.5q-63 0 -105.5 38t-42.5 89q0 72 57 137.5t159 100.5t212 35q133 0 210.5 -56.5t100.5 -122.5 q14 -42 14 -193v-363q0 -64 5 -80.5t15 -24.5t23 -8q26 0 53 37l30 -24q-50 -74 -103.5 -107.5t-121.5 -33.5q-80 0 -125 37.5t-55 113.5q-171 -151 -307 -151q-80 0 -133 52.5t-53 131.5zM189 1094q-4 130 59.5 204t156.5 74q30 0 50 -6q28 -8 96 -40q103 -47 147 -47 q22 0 42 18t38 73h53q1 -20 1 -34q0 -110 -62 -177t-150 -67q-65 0 -163.5 47t-131.5 47q-30 0 -50 -20t-28 -72h-58zM366 263q0 -46 33 -81q25 -27 70 -27q50 0 116 56v313q-121 -71 -180 -152q-39 -54 -39 -109z" />
<glyph unicode="&#xe4;" d="M92 171q0 107 92 192.5t401 227.5v94q0 106 -11.5 133.5t-43.5 48t-72 20.5q-65 0 -107 -29q-26 -18 -26 -42q0 -21 28 -52q38 -43 38 -83q0 -49 -36.5 -83.5t-95.5 -34.5q-63 0 -105.5 38t-42.5 89q0 72 57 137.5t159 100.5t212 35q133 0 210.5 -56.5t100.5 -122.5 q14 -42 14 -193v-363q0 -64 5 -80.5t15 -24.5t23 -8q26 0 53 37l30 -24q-50 -74 -103.5 -107.5t-121.5 -33.5q-80 0 -125 37.5t-55 113.5q-171 -151 -307 -151q-80 0 -133 52.5t-53 131.5zM194 1236q0 55 39 94t94 39q56 0 94.5 -39t38.5 -94t-39 -94t-94 -39t-94 39t-39 94 zM366 263q0 -46 33 -81q25 -27 70 -27q50 0 116 56v313q-121 -71 -180 -152q-39 -54 -39 -109zM568 1236q0 55 39 94t94 39q56 0 94.5 -39t38.5 -94t-39 -94t-94 -39t-94 39t-39 94z" />
<glyph unicode="&#xe5;" d="M92 171q0 107 92 192.5t401 227.5v94q0 106 -11.5 133.5t-43.5 48t-72 20.5q-65 0 -107 -29q-26 -18 -26 -42q0 -21 28 -52q38 -43 38 -83q0 -49 -36.5 -83.5t-95.5 -34.5q-63 0 -105.5 38t-42.5 89q0 72 57 137.5t159 100.5t212 35q133 0 210.5 -56.5t100.5 -122.5 q14 -42 14 -193v-363q0 -64 5 -80.5t15 -24.5t23 -8q26 0 53 37l30 -24q-50 -74 -103.5 -107.5t-121.5 -33.5q-80 0 -125 37.5t-55 113.5q-171 -151 -307 -151q-80 0 -133 52.5t-53 131.5zM302 1228q0 87 61 148t148 61q88 0 149 -61t61 -148t-61.5 -148.5t-148.5 -61.5 q-86 0 -147.5 61.5t-61.5 148.5zM366 263q0 -46 33 -81q25 -27 70 -27q50 0 116 56v313q-121 -71 -180 -152q-39 -54 -39 -109zM379 1228q0 -55 39 -93.5t94 -38.5q54 0 93 38.5t39 93.5t-38.5 93.5t-93.5 38.5q-56 0 -94.5 -38.5t-38.5 -93.5z" />
<glyph unicode="&#xe6;" horiz-adv-x="1479" d="M90 152q0 89 82.5 181.5t439.5 253.5v77q0 99 -13.5 135t-54.5 60.5t-94 24.5q-59 0 -100 -31q-30 -23 -30 -48q0 -7 4 -14t29 -33q36 -37 36 -83q0 -45 -34 -75q-47 -41 -105 -41q-56 0 -97 40t-41 94q0 111 128 190.5t273 79.5q101 0 183 -38q49 -23 97 -77 q58 61 115.5 88t137.5 27q161 0 262.5 -112t111.5 -352h-540q21 -204 98.5 -291t173.5 -87q141 0 235 153l33 -23q-89 -160 -180.5 -219.5t-233.5 -59.5q-107 0 -191 49q-63 36 -118 112q-105 -80 -203.5 -120.5t-189.5 -40.5q-98 0 -156 54t-58 126zM366 245 q0 -48 37.5 -83.5t88.5 -35.5q34 0 78.5 15t99.5 45q-31 65 -44.5 136t-13.5 203q-152 -101 -199 -155t-47 -125zM877 565h298q1 33 1 49q0 158 -51 231q-34 49 -90 49q-34 0 -60 -20q-43 -35 -66 -101q-31 -88 -32 -208z" />
<glyph unicode="&#xe7;" horiz-adv-x="909" d="M78 452q0 191 102 336q123 175 339 175q145 0 230.5 -73t85.5 -163q0 -57 -34.5 -91t-90.5 -34q-59 0 -97.5 39t-47.5 139q-6 63 -29 88t-54 25q-48 0 -82 -51q-52 -77 -52 -236q0 -132 42 -252.5t115 -179.5q55 -43 130 -43q49 0 93 23t104 87l31 -24 q-66 -124 -164.5 -184.5t-209.5 -60.5q-187 0 -299 141t-112 339zM282 -338q100 4 135.5 32.5t35.5 78.5q0 30 -23.5 50t-67.5 20l118 169h66l-47 -73q60 -10 91.5 -48.5t31.5 -96.5q0 -52 -31 -95t-79 -60q-76 -25 -230 -24v47z" />
<glyph unicode="&#xe8;" horiz-adv-x="909" d="M79 452q0 234 126.5 372.5t296.5 138.5q142 0 246.5 -116.5t112.5 -345.5h-513q9 -186 99 -294q69 -83 166 -83q60 0 109 33.5t105 120.5l34 -22q-76 -155 -168 -219.5t-213 -64.5q-208 0 -315 160q-86 129 -86 320zM195 1402h301l116 -347h-85zM343 568h272 q0 161 -17.5 221t-54.5 91q-21 18 -56 18q-52 0 -85 -51q-59 -89 -59 -244v-35z" />
<glyph unicode="&#xe9;" horiz-adv-x="909" d="M79 452q0 234 126.5 372.5t296.5 138.5q142 0 246.5 -116.5t112.5 -345.5h-513q9 -186 99 -294q69 -83 166 -83q60 0 109 33.5t105 120.5l34 -22q-76 -155 -168 -219.5t-213 -64.5q-208 0 -315 160q-86 129 -86 320zM343 568h272q0 161 -17.5 221t-54.5 91q-21 18 -56 18 q-52 0 -85 -51q-59 -89 -59 -244v-35zM345 1055l116 347h301l-331 -347h-86z" />
<glyph unicode="&#xea;" horiz-adv-x="909" d="M79 452q0 234 126.5 372.5t296.5 138.5q142 0 246.5 -116.5t112.5 -345.5h-513q9 -186 99 -294q69 -83 166 -83q60 0 109 33.5t105 120.5l34 -22q-76 -155 -168 -219.5t-213 -64.5q-208 0 -315 160q-86 129 -86 320zM136 1051l213 376h226l203 -382h-77l-238 206 l-245 -200h-82zM343 568h272q0 161 -17.5 221t-54.5 91q-21 18 -56 18q-52 0 -85 -51q-59 -89 -59 -244v-35z" />
<glyph unicode="&#xeb;" horiz-adv-x="909" d="M79 452q0 234 126.5 372.5t296.5 138.5q142 0 246.5 -116.5t112.5 -345.5h-513q9 -186 99 -294q69 -83 166 -83q60 0 109 33.5t105 120.5l34 -22q-76 -155 -168 -219.5t-213 -64.5q-208 0 -315 160q-86 129 -86 320zM165 1236q0 55 39 94t94 39q56 0 94.5 -39t38.5 -94 t-39 -94t-94 -39t-94 39t-39 94zM343 568h272q0 161 -17.5 221t-54.5 91q-21 18 -56 18q-52 0 -85 -51q-59 -89 -59 -244v-35zM539 1236q0 55 39 94t94 39q56 0 94.5 -39t38.5 -94t-39 -94t-94 -39t-94 39t-39 94z" />
<glyph unicode="&#xec;" horiz-adv-x="569" d="M-15 1402h301l116 -347h-85zM42 0v36q62 2 92 36q20 23 20 122v546q0 99 -23 126.5t-89 31.5v37h392v-741q0 -99 23 -126.5t90 -31.5v-36h-505z" />
<glyph unicode="&#xed;" horiz-adv-x="569" d="M42 0v36q62 2 92 36q20 23 20 122v546q0 99 -23 126.5t-89 31.5v37h392v-741q0 -99 23 -126.5t90 -31.5v-36h-505zM175 1055l116 347h301l-331 -347h-86z" />
<glyph unicode="&#xee;" horiz-adv-x="569" d="M-35 1051l213 376h226l203 -382h-77l-238 206l-245 -200h-82zM42 0v36q62 2 92 36q20 23 20 122v546q0 99 -23 126.5t-89 31.5v37h392v-741q0 -99 23 -126.5t90 -31.5v-36h-505z" />
<glyph unicode="&#xef;" horiz-adv-x="569" d="M-30 1236q0 55 39 94t94 39q56 0 94.5 -39t38.5 -94t-39 -94t-94 -39t-94 39t-39 94zM42 0v36q62 2 92 36q20 23 20 122v546q0 99 -23 126.5t-89 31.5v37h392v-741q0 -99 23 -126.5t90 -31.5v-36h-505zM344 1236q0 55 39 94t94 39q56 0 94.5 -39t38.5 -94t-39 -94 t-94 -39t-94 39t-39 94z" />
<glyph unicode="&#xf0;" d="M74 462q0 177 83 307q104 162 298 162q61 0 147 -29q-33 85 -58.5 131t-72.5 109l-251 -140l-33 57l240 135q-72 77 -186 158l23 35q79 -30 131.5 -58t130.5 -82l236 133l31 -58l-209 -116q185 -150 276 -316.5t91 -365.5q0 -165 -52 -293.5t-155 -193.5t-231 -65 q-126 0 -229 64t-156.5 176t-53.5 250zM367 516q0 -277 19 -360q12 -58 46 -86.5t78 -28.5t77 27.5t47 88.5q19 82 19 338q0 194 -17 257t-48 87t-75 24q-45 0 -77 -24.5t-50.5 -86t-18.5 -236.5z" />
<glyph unicode="&#xf1;" horiz-adv-x="1139" d="M70 0v36q59 6 84 38q17 22 17 130v528q0 106 -19.5 132t-81.5 34v37h381v-121q72 78 138 113.5t142 35.5q91 0 151 -50.5t80 -125.5q16 -57 16 -219v-364q0 -108 19.5 -134.5t81.5 -33.5v-36h-473v36q53 7 76 44q16 25 16 124v416q0 115 -9 145t-30.5 46.5t-47.5 16.5 q-86 0 -160 -123v-501q0 -105 19.5 -133t72.5 -35v-36h-473zM242 1094q-4 130 59.5 204t156.5 74q30 0 50 -6q28 -8 96 -40q103 -47 147 -47q22 0 42 18t38 73h53q1 -20 1 -34q0 -110 -62 -177t-150 -67q-65 0 -163.5 47t-131.5 47q-30 0 -50 -20t-28 -72h-58z" />
<glyph unicode="&#xf2;" d="M74 463q0 201 116.5 350.5t319.5 149.5q122 0 227 -63t159.5 -179t54.5 -254q0 -199 -101 -333q-122 -162 -337 -162q-211 0 -325 148t-114 343zM207 1402h301l116 -347h-85zM367 386q0 -107 14 -200q11 -71 47 -108t82 -37q45 0 75 25q39 34 52 95q20 95 20 384 q0 170 -19 233.5t-56 92.5q-26 21 -68 21q-51 0 -87.5 -38.5t-48 -152t-11.5 -315.5z" />
<glyph unicode="&#xf3;" d="M74 463q0 201 116.5 350.5t319.5 149.5q122 0 227 -63t159.5 -179t54.5 -254q0 -199 -101 -333q-122 -162 -337 -162q-211 0 -325 148t-114 343zM367 386q0 -107 14 -200q11 -71 47 -108t82 -37q45 0 75 25q39 34 52 95q20 95 20 384q0 170 -19 233.5t-56 92.5 q-26 21 -68 21q-51 0 -87.5 -38.5t-48 -152t-11.5 -315.5zM398 1055l116 347h301l-331 -347h-86z" />
<glyph unicode="&#xf4;" d="M74 463q0 201 116.5 350.5t319.5 149.5q122 0 227 -63t159.5 -179t54.5 -254q0 -199 -101 -333q-122 -162 -337 -162q-211 0 -325 148t-114 343zM188 1051l213 376h226l203 -382h-77l-238 206l-245 -200h-82zM367 386q0 -107 14 -200q11 -71 47 -108t82 -37q45 0 75 25 q39 34 52 95q20 95 20 384q0 170 -19 233.5t-56 92.5q-26 21 -68 21q-51 0 -87.5 -38.5t-48 -152t-11.5 -315.5z" />
<glyph unicode="&#xf5;" d="M74 463q0 201 116.5 350.5t319.5 149.5q122 0 227 -63t159.5 -179t54.5 -254q0 -199 -101 -333q-122 -162 -337 -162q-211 0 -325 148t-114 343zM188 1094q-4 130 59.5 204t156.5 74q30 0 50 -6q28 -8 96 -40q103 -47 147 -47q22 0 42 18t38 73h53q1 -20 1 -34 q0 -110 -62 -177t-150 -67q-65 0 -163.5 47t-131.5 47q-30 0 -50 -20t-28 -72h-58zM367 386q0 -107 14 -200q11 -71 47 -108t82 -37q45 0 75 25q39 34 52 95q20 95 20 384q0 170 -19 233.5t-56 92.5q-26 21 -68 21q-51 0 -87.5 -38.5t-48 -152t-11.5 -315.5z" />
<glyph unicode="&#xf6;" d="M74 463q0 201 116.5 350.5t319.5 149.5q122 0 227 -63t159.5 -179t54.5 -254q0 -199 -101 -333q-122 -162 -337 -162q-211 0 -325 148t-114 343zM193 1236q0 55 39 94t94 39q56 0 94.5 -39t38.5 -94t-39 -94t-94 -39t-94 39t-39 94zM367 386q0 -107 14 -200 q11 -71 47 -108t82 -37q45 0 75 25q39 34 52 95q20 95 20 384q0 170 -19 233.5t-56 92.5q-26 21 -68 21q-51 0 -87.5 -38.5t-48 -152t-11.5 -315.5zM567 1236q0 55 39 94t94 39q56 0 94.5 -39t38.5 -94t-39 -94t-94 -39t-94 39t-39 94z" />
<glyph unicode="&#xf7;" horiz-adv-x="1124" d="M16 612v132h1093v-132h-1093zM460 351q0 42 30 72.5t73 30.5t73 -30.5t30 -72.5q0 -43 -30 -73t-73 -30q-42 0 -72.5 30t-30.5 73zM462 1014q0 42 30 72t72 30q43 0 73 -30t30 -72t-30 -72t-73 -30q-42 0 -72 30t-30 72z" />
<glyph unicode="&#xf8;" d="M68 16l111 130q-51 81 -70 143q-24 81 -24 175q0 200 115 349.5t324 149.5q83 0 145 -23.5t129 -78.5l111 128l48 -44l-113 -131q65 -89 86 -151q27 -81 27 -189q0 -144 -53.5 -262.5t-156.5 -179t-223 -60.5q-88 0 -155.5 27.5t-146.5 95.5l-107 -123zM383 279 q5 -136 44 -186t92 -50q45 0 70 20q35 28 53 89q24 81 24 252q0 10 -3 201zM383 374l275 326q-10 109 -45 150.5t-82 41.5q-42 0 -65 -15q-32 -22 -52.5 -69.5t-27.5 -175.5q-1 -34 -3 -258z" />
<glyph unicode="&#xf9;" horiz-adv-x="1139" d="M63 898v37h381v-639q0 -100 9.5 -129t30 -44t47.5 -15q36 0 65 19q40 26 96 105v500q0 106 -19.5 132t-81.5 34v37h381v-732q0 -107 20 -133.5t81 -33.5v-36h-381v125q-67 -80 -134 -116.5t-150 -36.5q-79 0 -140.5 48.5t-82.5 113.5t-21 227v371q0 106 -19.5 132 t-81.5 34zM259 1402h301l116 -347h-85z" />
<glyph unicode="&#xfa;" horiz-adv-x="1139" d="M63 898v37h381v-639q0 -100 9.5 -129t30 -44t47.5 -15q36 0 65 19q40 26 96 105v500q0 106 -19.5 132t-81.5 34v37h381v-732q0 -107 20 -133.5t81 -33.5v-36h-381v125q-67 -80 -134 -116.5t-150 -36.5q-79 0 -140.5 48.5t-82.5 113.5t-21 227v371q0 106 -19.5 132 t-81.5 34zM452 1055l116 347h301l-331 -347h-86z" />
<glyph unicode="&#xfb;" horiz-adv-x="1139" d="M63 898v37h381v-639q0 -100 9.5 -129t30 -44t47.5 -15q36 0 65 19q40 26 96 105v500q0 106 -19.5 132t-81.5 34v37h381v-732q0 -107 20 -133.5t81 -33.5v-36h-381v125q-67 -80 -134 -116.5t-150 -36.5q-79 0 -140.5 48.5t-82.5 113.5t-21 227v371q0 106 -19.5 132 t-81.5 34zM243 1051l213 376h226l203 -382h-77l-238 206l-245 -200h-82z" />
<glyph unicode="&#xfc;" horiz-adv-x="1139" d="M63 898v37h381v-639q0 -100 9.5 -129t30 -44t47.5 -15q36 0 65 19q40 26 96 105v500q0 106 -19.5 132t-81.5 34v37h381v-732q0 -107 20 -133.5t81 -33.5v-36h-381v125q-67 -80 -134 -116.5t-150 -36.5q-79 0 -140.5 48.5t-82.5 113.5t-21 227v371q0 106 -19.5 132 t-81.5 34zM248 1236q0 55 39 94t94 39q56 0 94.5 -39t38.5 -94t-39 -94t-94 -39t-94 39t-39 94zM622 1236q0 55 39 94t94 39q56 0 94.5 -39t38.5 -94t-39 -94t-94 -39t-94 39t-39 94z" />
<glyph unicode="&#xfd;" d="M17 898v37h497v-37q-49 -2 -69 -19t-20 -41q0 -38 50 -150l160 -366l109 283q59 151 59 210q0 37 -24.5 59t-86.5 24v37h313v-37q-46 -5 -75 -35.5t-97 -207.5l-267 -693q-101 -260 -150 -320q-69 -84 -173 -84q-83 0 -134.5 47.5t-51.5 114.5q0 58 35.5 96t87.5 38 q50 0 80.5 -32t31.5 -99q1 -38 9 -49t23 -11q24 0 51 29q40 42 94 192l29 78l-302 693q-68 157 -100.5 193t-78.5 50zM458 1055l116 347h301l-331 -347h-86z" />
<glyph unicode="&#xfe;" horiz-adv-x="1139" d="M39 -404q62 2 92 35q20 23 20 122v1440q0 99 -23 126t-89 31v37h392v-575q49 72 100 104q73 47 159 47q103 0 187.5 -65t128.5 -179.5t44 -246.5q0 -142 -45.5 -259.5t-132 -179t-192.5 -61.5q-77 0 -144 34q-50 26 -105 89v-348q0 -74 11.5 -100.5t35.5 -38.5t94 -12 v-38h-533v38zM431 196q86 -122 184 -122q54 0 89 57q52 84 52 320q0 242 -57 331q-38 59 -102 59q-101 0 -166 -146v-499z" />
<glyph unicode="&#xff;" d="M17 898v37h497v-37q-49 -2 -69 -19t-20 -41q0 -38 50 -150l160 -366l109 283q59 151 59 210q0 37 -24.5 59t-86.5 24v37h313v-37q-46 -5 -75 -35.5t-97 -207.5l-267 -693q-101 -260 -150 -320q-69 -84 -173 -84q-83 0 -134.5 47.5t-51.5 114.5q0 58 35.5 96t87.5 38 q50 0 80.5 -32t31.5 -99q1 -38 9 -49t23 -11q24 0 51 29q40 42 94 192l29 78l-302 693q-68 157 -100.5 193t-78.5 50zM219 1236q0 55 39 94t94 39q56 0 94.5 -39t38.5 -94t-39 -94t-94 -39t-94 39t-39 94zM593 1236q0 55 39 94t94 39q56 0 94.5 -39t38.5 -94t-39 -94 t-94 -39t-94 39t-39 94z" />
<glyph unicode="&#x152;" horiz-adv-x="2048" d="M74 678q0 264 160 462q190 235 506 235q121 0 249 -14q53 -5 136 -5h727v-404h-40q-19 118 -68 189t-124 102.5t-176 31.5h-161v-551h32q46 0 94 25q38 19 63.5 52.5t46 94.5t27.5 148h38v-709h-38q-31 187 -90.5 250.5t-140.5 63.5h-32v-343q0 -151 8.5 -177.5 t27.5 -37.5q27 -16 99 -16h61q164 0 277.5 91t155.5 263h38l-62 -429h-753q-30 0 -105 -6q-137 -12 -263 -12q-194 0 -332 72q-177 93 -269 263.5t-92 360.5zM434 633q0 -314 109 -458q86 -114 226 -114q103 0 145.5 47.5t42.5 192.5v726q0 108 -5 137q-11 55 -48 85 q-51 42 -129 42q-143 0 -229 -121q-112 -156 -112 -537z" />
<glyph unicode="&#x153;" horiz-adv-x="1479" d="M70 459q0 140 56.5 257t163.5 182t228 65q91 0 158.5 -33.5t131.5 -105.5q59 72 120.5 105.5t140.5 33.5q145 0 248.5 -120t104.5 -348h-492q18 -201 91 -288t157 -87q59 0 109.5 35.5t102.5 119.5l32 -23q-80 -155 -168.5 -217.5t-203.5 -62.5q-79 0 -135 27t-120 96 q-73 -71 -132 -97t-145 -26q-232 0 -355 172q-93 129 -93 315zM363 435q0 -196 20.5 -269t56.5 -102q26 -21 71 -21q52 0 84 26.5t51.5 107t19.5 335.5q0 192 -19.5 260t-56.5 98q-28 23 -70 23q-45 0 -74 -24q-39 -33 -61 -117t-22 -317zM926 564h251q1 56 1 76 q0 148 -36 200t-81 52q-30 0 -57 -22q-36 -29 -52 -84q-26 -83 -26 -222z" />
<glyph unicode="&#x178;" horiz-adv-x="1479" d="M18 1319v37h650v-37h-29q-59 0 -82.5 -17t-23.5 -36q0 -36 80 -181l245 -449l244 409q91 150 91 199q0 27 -26 45q-34 25 -125 30v37h414v-37q-67 -9 -103 -39q-50 -42 -158 -229l-294 -491v-328q0 -105 11 -130.5t43.5 -45t86.5 -19.5h76v-37h-761v37h71q60 0 95 21 q26 14 41 48q11 24 11 126v272l-319 581q-95 172 -134 202.5t-104 31.5zM465 1623q0 55 39 94t94 39q56 0 94.5 -39t38.5 -94t-39 -94t-94 -39t-94 39t-39 94zM839 1623q0 55 39 94t94 39q56 0 94.5 -39t38.5 -94t-39 -94t-94 -39t-94 39t-39 94z" />
<glyph unicode="&#x2c6;" horiz-adv-x="682" d="M21 1051l213 376h226l203 -382h-77l-238 206l-245 -200h-82z" />
<glyph unicode="&#x2dc;" horiz-adv-x="682" d="M24 1092q-4 130 59.5 204t156.5 74q30 0 50 -6q28 -8 96 -40q103 -47 147 -47q22 0 42 18t38 73h53q1 -20 1 -34q0 -110 -62 -177t-150 -67q-65 0 -163.5 47t-131.5 47q-30 0 -50 -20t-28 -72h-58z" />
<glyph unicode="&#x2000;" horiz-adv-x="909" />
<glyph unicode="&#x2001;" horiz-adv-x="1819" />
<glyph unicode="&#x2002;" horiz-adv-x="909" />
<glyph unicode="&#x2003;" horiz-adv-x="1819" />
<glyph unicode="&#x2004;" horiz-adv-x="606" />
<glyph unicode="&#x2005;" horiz-adv-x="454" />
<glyph unicode="&#x2006;" horiz-adv-x="303" />
<glyph unicode="&#x2007;" horiz-adv-x="303" />
<glyph unicode="&#x2008;" horiz-adv-x="227" />
<glyph unicode="&#x2009;" horiz-adv-x="363" />
<glyph unicode="&#x200a;" horiz-adv-x="101" />
<glyph unicode="&#x2010;" horiz-adv-x="682" d="M50 367v207h583v-207h-583z" />
<glyph unicode="&#x2011;" horiz-adv-x="682" d="M50 367v207h583v-207h-583z" />
<glyph unicode="&#x2012;" horiz-adv-x="682" d="M50 367v207h583v-207h-583z" />
<glyph unicode="&#x2013;" d="M-17 413v121h1057v-121h-1057z" />
<glyph unicode="&#x2014;" horiz-adv-x="2048" d="M-20 412v122h2087v-122h-2087z" />
<glyph unicode="&#x2018;" horiz-adv-x="682" d="M152 970q0 143 86.5 254t256.5 163v-44q-116 -50 -168.5 -129.5t-52.5 -162.5q0 -17 7 -25q7 -9 14 -9q6 0 18 7q29 17 72 17q59 0 102.5 -46t43.5 -108q0 -66 -50 -116t-121 -50q-86 0 -147 66.5t-61 182.5z" />
<glyph unicode="&#x2019;" horiz-adv-x="682" d="M152 1221q0 66 50 116t121 50q86 0 147 -66.5t61 -182.5q0 -143 -86.5 -254t-256.5 -163v44q116 50 168.5 129.5t52.5 163.5q0 16 -7 25q-7 8 -14 8q-6 0 -18 -7q-29 -17 -72 -17q-59 0 -102.5 46t-43.5 108z" />
<glyph unicode="&#x201a;" horiz-adv-x="682" d="M152 141q0 66 50 116t121 50q86 0 147 -66.5t61 -182.5q0 -143 -86.5 -254t-256.5 -163v44q116 50 168.5 129.5t52.5 162.5q0 17 -7 26q-7 8 -14 8q-6 0 -18 -7q-29 -17 -72 -17q-59 0 -102.5 46t-43.5 108z" />
<glyph unicode="&#x201c;" d="M81 973q0 135 83 242t262 172v-49q-104 -38 -163 -119.5t-59 -169.5q0 -19 6 -28q4 -6 9 -6t15 7q32 23 81 23q57 0 101 -46.5t44 -110.5q0 -67 -50.5 -118t-122.5 -51q-84 0 -145 69t-61 185zM562 973q0 135 83 242t262 172v-49q-104 -38 -163 -119.5t-59 -169.5 q0 -19 6 -28q4 -6 9 -6t15 7q32 23 81 23q57 0 101 -46.5t44 -110.5q0 -67 -50.5 -118t-122.5 -51q-84 0 -145 69t-61 185z" />
<glyph unicode="&#x201d;" d="M83 1218q0 68 50 118.5t123 50.5q83 0 144.5 -68.5t61.5 -184.5q0 -135 -83 -242t-262 -173v50q103 38 162 119.5t59 169.5q0 19 -6 28q-3 6 -8 6t-16 -8q-32 -23 -80 -23q-58 0 -101.5 46.5t-43.5 110.5zM564 1218q0 68 50 118.5t123 50.5q83 0 144.5 -68.5t61.5 -184.5 q0 -135 -83 -242t-262 -173v50q103 38 162 119.5t59 169.5q0 19 -6 28q-3 6 -8 6t-16 -8q-32 -23 -80 -23q-58 0 -101.5 46.5t-43.5 110.5z" />
<glyph unicode="&#x201e;" d="M83 140q0 67 50 118t123 51q83 0 144.5 -69t61.5 -185q0 -134 -83 -241.5t-262 -172.5v49q103 38 162 119.5t59 169.5q0 19 -6 28q-3 6 -8 6t-16 -7q-32 -23 -80 -23q-58 0 -101.5 46.5t-43.5 110.5zM564 140q0 67 50 118t123 51q83 0 144.5 -69t61.5 -185 q0 -134 -83 -241.5t-262 -172.5v49q103 38 162 119.5t59 169.5q0 19 -6 28q-3 6 -8 6t-16 -7q-32 -23 -80 -23q-58 0 -101.5 46.5t-43.5 110.5z" />
<glyph unicode="&#x2022;" horiz-adv-x="717" d="M77 676q0 119 83 202.5t203 83.5q119 0 202 -83.5t83 -202.5q0 -118 -83.5 -202t-201.5 -84q-119 0 -202.5 84t-83.5 202z" />
<glyph unicode="&#x2026;" horiz-adv-x="2048" d="M175 141q0 69 48.5 118t117.5 49q70 0 118.5 -49t48.5 -118t-49 -117.5t-118 -48.5t-117.5 48.5t-48.5 117.5zM858 141q0 69 48.5 117.5t117.5 48.5t117.5 -48.5t48.5 -117.5t-48.5 -117.5t-117.5 -48.5t-117.5 48.5t-48.5 117.5zM1541 139q0 69 48.5 117.5t117.5 48.5 q70 0 118 -48.5t48 -117.5t-48.5 -117.5t-117.5 -48.5t-117.5 48.5t-48.5 117.5z" />
<glyph unicode="&#x202f;" horiz-adv-x="363" />
<glyph unicode="&#x2039;" horiz-adv-x="682" d="M93 467l424 459h71l-234 -459l234 -460h-76z" />
<glyph unicode="&#x203a;" horiz-adv-x="682" d="M95 7l234 459l-234 460h76l419 -460l-424 -459h-71z" />
<glyph unicode="&#x205f;" horiz-adv-x="454" />
<glyph unicode="&#x20ac;" d="M-23 576l23 78h74v16q0 30 2 67h-99l23 78h84q34 231 178 391q162 178 393 178q109 0 191 -30q24 -9 119 -58v-299h-39q-11 140 -77 222.5t-174 82.5q-125 0 -202 -159q-61 -127 -82 -328h482l-23 -78h-465q-3 -42 -3 -83h446l-23 -78h-421q18 -510 255 -510 q114 0 190 73q39 37 116 161l46 -35q-80 -142 -140 -196q-106 -97 -272 -97q-237 0 -371 193q-111 160 -130 411h-101z" />
<glyph unicode="&#x2122;" horiz-adv-x="2048" d="M-3 1130v226h777v-226h-35q-4 88 -49 131t-145 43h-38v-587q0 -85 18 -106q22 -28 85 -28v-34h-454v34q59 4 73.5 12t22 29t7.5 96v584h-35q-96 0 -141.5 -41t-52.5 -133h-33zM884 549v34q57 3 75 12.5t26.5 30.5t8.5 92v468q0 71 -9.5 91.5t-27.5 30.5t-73 10v38h368 l231 -495l229 495h347v-38q-48 0 -66 -10t-26.5 -30t-8.5 -94v-472q0 -76 15 -96q24 -29 86 -33v-34h-461v34q73 2 93.5 24t20.5 105v506l-320 -669h-24l-318 669v-502q0 -68 6 -84q8 -22 31 -35t78 -14v-34h-281z" />
<glyph unicode="&#x25fc;" horiz-adv-x="935" d="M0 0v935h935v-935h-935z" />
<glyph unicode="&#xfb01;" horiz-adv-x="1139" d="M59 0v36q69 3 97 42q15 21 15 120v633h-112v99h112q0 156 48.5 251t159.5 150.5t257 55.5q98 0 171.5 -26t107 -70.5t33.5 -87.5q0 -50 -38 -86.5t-104 -36.5q-63 0 -88 23q-35 33 -35 71q0 29 20 56.5t20 41.5q0 22 -17 33q-26 18 -89 18q-64 0 -97 -23q-43 -32 -60 -81 q-13 -38 -13 -155v-134h542v-732q0 -95 20.5 -126.5t84.5 -35.5v-36h-486v36q63 7 88 46q15 22 15 116v633h-264v-633q0 -91 14 -114q22 -35 88 -48v-36h-490z" />
<glyph unicode="&#xfb02;" horiz-adv-x="1139" d="M54 0v36q74 7 100 47q14 21 14 118v631h-108v103h108q-1 162 45.5 250t146 145t221.5 57q38 0 86 -7.5t106 -23.5h216v-1155q0 -84 7.5 -108t28 -39.5t64.5 -17.5v-36h-484v36q43 4 64.5 20.5t30.5 43.5q6 20 6 101v631h-259v-631q0 -97 15 -123q20 -34 82 -42v-36h-490z M447 935h259v183q-27 27 -27 54q0 23 23 63q14 22 14 39t-19 29q-29 19 -86 19q-92 0 -134 -68q-30 -48 -30 -188v-131z" />
</font>
</defs>
</svg>
