<?xml version="1.0" standalone="no"?>
<!DOCTYPE svg PUBLIC "-//W3C//DTD SVG 1.1//EN" "http://www.w3.org/Graphics/SVG/1.1/DTD/svg11.dtd" >
<svg xmlns="http://www.w3.org/2000/svg" xmlns:xlink="http://www.w3.org/1999/xlink" version="1.1">
<metadata></metadata>
<defs>
<font id="times_new_romanbold_italic" horiz-adv-x="1024" >
<font-face units-per-em="2048" ascent="1638" descent="-410" />
<missing-glyph horiz-adv-x="512" />
<glyph horiz-adv-x="0" />
<glyph unicode="&#xd;" horiz-adv-x="512" />
<glyph unicode=" "  horiz-adv-x="512" />
<glyph unicode="&#x09;" horiz-adv-x="512" />
<glyph unicode="&#xa0;" horiz-adv-x="512" />
<glyph unicode="!" horiz-adv-x="797" d="M113 135q0 67 47.5 115t115.5 48t115.5 -48t47.5 -115q0 -68 -48 -115.5t-115 -47.5q-68 0 -115.5 47.5t-47.5 115.5zM330 387q49 264 73 537.5t74.5 368t131.5 94.5q43 0 77 -38t34 -92q0 -44 -17 -97t-105 -236q-146 -306 -230 -537h-38z" />
<glyph unicode="&#x22;" horiz-adv-x="1137" d="M337 721l6 385q3 143 64 212t148 69q47 0 77.5 -29.5t30.5 -70.5q0 -56 -69 -183l-208 -383h-49zM819 721l8 384q3 105 21 150q26 60 79 96t112 36q47 0 76.5 -29.5t29.5 -73.5q0 -29 -8 -52q-13 -35 -63 -127l-206 -384h-49z" />
<glyph unicode="#" d="M80 396v133h162l59 292h-221v130h247l87 433h132l-88 -433h295l86 433h132l-88 -433h140v-130h-165l-60 -292h225v-133h-250l-86 -424h-133l86 424h-291l-90 -424h-129l86 424h-136zM375 529h294l58 292h-294z" />
<glyph unicode="$" d="M79 69l93 323h38q7 -149 37.5 -210.5t95.5 -101.5l152 526q-140 133 -191 227t-51 191q0 94 50.5 180.5t146.5 134.5t204 48q22 0 66 -3l17 58h77l-20 -69q136 -30 229 -90l-94 -293h-38q11 66 11 107q0 69 -39 126q-27 41 -92 74l-131 -456q188 -188 223 -242 q63 -99 63 -217q0 -188 -137 -300t-337 -112q-22 0 -64 2l-37 -127h-77l40 138q-66 13 -106 27t-129 59zM413 59q31 -4 50 -4q87 0 154.5 70t67.5 169q0 67 -29 125t-102 131zM479 1112q0 -108 100 -212l120 415q-97 4 -158 -54q-62 -59 -62 -149z" />
<glyph unicode="%" horiz-adv-x="1706" d="M221 914q0 196 132 344q107 121 255 121q109 0 175 -68t66 -189q0 -200 -122.5 -336.5t-274.5 -136.5q-102 0 -166.5 69t-64.5 196zM229 -55l1242 1442h124l-1246 -1442h-120zM392 775q0 -33 19 -53t47 -20q34 0 55 17q30 24 51 77q10 26 78 266q38 136 38 189 q0 34 -19 54.5t-46 20.5q-32 0 -50 -14q-33 -25 -57 -82q-17 -41 -81 -274q-35 -124 -35 -181zM968 211q0 190 122 326.5t265 136.5q106 0 174.5 -70t68.5 -186q0 -195 -126.5 -335.5t-275.5 -140.5q-98 0 -163 71t-65 198zM1141 72q0 -34 17.5 -53t43.5 -19q31 0 53 17 q32 26 56 83q15 34 81 263q36 125 36 180q0 35 -21.5 57t-50.5 22q-36 0 -65 -34.5t-75 -183.5q-75 -248 -75 -332z" />
<glyph unicode="&#x26;" horiz-adv-x="1593" d="M94 257q0 92 39 164t148 154t312 173q-7 54 -11 97.5t-4 76.5q0 200 124 332.5t293 132.5q108 0 173.5 -61t65.5 -146q0 -107 -64 -184q-95 -116 -304 -205q67 -215 92 -278t67 -137q57 63 82 122.5t25 97.5q0 32 -19 56t-62 35l12 36h384l-15 -36q-54 -13 -91 -44 t-137 -165q-71 -96 -141 -169q80 -111 146 -153q42 -28 96 -28q31 0 54 10t56 38h32q-48 -103 -127 -155t-179 -52q-84 0 -151 33.5t-142 113.5q-103 -73 -207.5 -110t-210.5 -37q-154 0 -245 86t-91 202zM394 381q0 -115 71.5 -193.5t159.5 -78.5q38 0 84 17t100 50 q-61 92 -117.5 232t-83.5 265q-115 -63 -164.5 -130.5t-49.5 -161.5zM822 1105q0 -51 6.5 -110.5t19.5 -128.5q83 59 121 121q53 85 53 181q0 72 -30 111q-24 29 -61 29q-45 0 -71 -36q-38 -54 -38 -167z" />
<glyph unicode="'" horiz-adv-x="569" d="M319 722l5 382q1 143 63 213t148 70q48 0 78.5 -29.5t30.5 -72.5q0 -56 -68 -180l-209 -383h-48z" />
<glyph unicode="(" horiz-adv-x="682" d="M103 328q0 206 90 408q106 236 314 419q159 140 383 232l-18 -55q-143 -102 -237 -237q-144 -208 -234.5 -506.5t-90.5 -560.5q0 -167 79 -360l-17 -58q-269 360 -269 718z" />
<glyph unicode=")" horiz-adv-x="682" d="M-231 -390l18 55q115 82 194.5 180t163.5 271.5t137 371.5q68 257 68 481q0 167 -79 361l16 57q269 -360 269 -717q0 -207 -90 -409q-105 -235 -314 -418q-159 -140 -383 -233z" />
<glyph unicode="*" d="M246 1066q0 41 29.5 70.5t74.5 29.5q63 0 121 -60t75 -73q24 -17 79 -41q-3 58 -11.5 88t-41 93t-32.5 98q0 46 32.5 81t71.5 35q43 0 74.5 -32.5t31.5 -84.5q0 -41 -31 -99t-39.5 -88.5t-13.5 -90.5q56 23 80 40t71 67q63 67 121 67q44 0 74 -29t30 -69q0 -43 -36.5 -76 t-96.5 -33q-19 0 -69 3q-24 1 -52 1q-37 0 -112 -4q43 -49 67 -67.5t82.5 -48.5t83.5 -64q19 -25 19 -64q0 -43 -29 -72.5t-70 -29.5q-43 0 -77.5 35.5t-47.5 126.5q-8 59 -17.5 86t-40.5 79q-33 -53 -44 -82t-19 -83q-13 -91 -46 -125t-77 -34q-41 0 -70.5 28t-29.5 67 q0 40 22.5 71.5t83 65t83.5 50.5t67 61l-107 4q-28 0 -53 -1q-59 -4 -81 -4q-57 0 -93 32t-36 76z" />
<glyph unicode="+" horiz-adv-x="1167" d="M80 612v132h481v480h131v-480h481v-132h-481v-476h-131v476h-481z" />
<glyph unicode="," horiz-adv-x="512" d="M-58 -287q153 87 190 132q29 35 29 70q0 39 -51.5 86.5t-68.5 80.5q-13 25 -13 64q0 65 48.5 112t117.5 47q67 0 116.5 -53t49.5 -132q0 -125 -95.5 -246t-299.5 -203z" />
<glyph unicode="-" horiz-adv-x="682" d="M13 345l65 208h582l-62 -208h-585z" />
<glyph unicode="." horiz-adv-x="512" d="M-27 136q0 68 48 116t116 48q69 0 117 -48t48 -116t-48.5 -116t-116.5 -48t-116 48t-48 116z" />
<glyph unicode="/" horiz-adv-x="569" d="M-166 -31l874 1415h141l-873 -1415h-142z" />
<glyph unicode="0" d="M113 357q0 230 83 461q69 192 171.5 331.5t187 187t170.5 47.5q97 0 166 -56.5t99.5 -150.5t30.5 -186q0 -159 -41.5 -328t-115.5 -311t-164 -238q-57 -60 -138.5 -101t-166.5 -41q-79 0 -143.5 48t-101.5 140t-37 197zM314 142q0 -49 26.5 -77t65.5 -28q41 0 67 22 q53 45 88 152q82 251 207 691q55 194 55 305q0 51 -26.5 80t-64.5 29q-30 0 -52 -11.5t-47.5 -46.5t-63.5 -149q-71 -208 -157 -508q-66 -231 -79 -296q-19 -93 -19 -163z" />
<glyph unicode="1" d="M48 0l11 37q102 2 142 17t65.5 49t57.5 143l196 676q45 154 47 163q6 26 6 49q0 45 -27.5 71.5t-78.5 26.5q-25 0 -99 -8l-8 37l509 123h42l-331 -1138q-26 -89 -26 -113t18.5 -49.5t40 -33t129.5 -13.5l-11 -37h-683z" />
<glyph unicode="2" d="M8 0v37q281 260 474 478q162 181 203.5 276.5t41.5 192.5q0 91 -57.5 148t-143.5 57q-139 0 -238 -153l-37 17q52 148 135 225q115 106 270 106q144 0 238.5 -89t94.5 -206q0 -103 -46 -203.5t-190 -252.5q-110 -116 -446 -403h261q126 0 176.5 28.5t94.5 114.5h47 l-158 -373h-720z" />
<glyph unicode="3" d="M25 99q0 46 32 76t79 30q24 0 46 -10q38 -16 114 -67.5t126 -51.5q62 0 109 63q69 93 69 233q0 109 -44 191t-113 121.5t-182 52.5l13 43q139 20 224 59q114 50 166 117t52 144q0 66 -47 113t-117 47q-55 0 -102 -29t-102 -101l-40 20q84 126 168.5 180t189.5 54 q132 0 214 -74.5t82 -178.5q0 -82 -40 -143t-118 -106q-57 -33 -179 -67q111 -48 156 -108q67 -89 67 -215q0 -236 -204 -390q-171 -130 -396 -130q-120 0 -181 45q-42 31 -42 82z" />
<glyph unicode="4" d="M36 286l49 168l812 930h131l-272 -930h157l-53 -168h-153l-92 -314h-227l91 314h-443zM183 454h347l167 593z" />
<glyph unicode="5" d="M78 107q0 44 31.5 75.5t74.5 31.5q36 0 64 -12q17 -8 102 -77q54 -44 111 -44q76 0 128 66q70 86 70 219q0 120 -58 222.5t-158 155.5q-77 41 -199 44l276 568h512l-67 -234h-475l-60 -122q144 -23 238.5 -77t152.5 -156.5t58 -222.5q0 -144 -77.5 -279t-215.5 -214.5 t-292 -79.5q-111 0 -163.5 41.5t-52.5 94.5z" />
<glyph unicode="6" d="M123 382q0 212 93.5 409t237.5 332.5t309 205.5q129 55 282 66v-39q-152 -42 -270 -152q-146 -136 -251 -371q93 31 161 31q113 0 188.5 -84.5t75.5 -239.5q0 -200 -112 -366q-138 -202 -366 -202q-156 0 -252 107t-96 303zM349 184q0 -76 32.5 -113t81.5 -37q39 0 70 28 q51 46 95 184q69 218 69 363q0 74 -41 124q-32 39 -76 39q-35 0 -89 -15q-68 -178 -112 -364q-30 -126 -30 -209z" />
<glyph unicode="7" d="M241 996l183 360h710v-45l-796 -1339l-80 45l653 1098h-327q-131 0 -192.5 -26.5t-112.5 -92.5h-38z" />
<glyph unicode="8" d="M76 297q0 95 43.5 175t128.5 145q62 47 173 91q-63 84 -94.5 163.5t-31.5 154.5q0 153 102.5 255.5t271.5 102.5q156 0 246 -85.5t90 -206.5q0 -80 -38 -145t-109 -115q-46 -32 -141 -66q116 -152 144.5 -215.5t28.5 -141.5q0 -183 -125.5 -310t-318.5 -127 q-173 0 -271.5 92.5t-98.5 232.5zM298 220q0 -94 36.5 -138.5t95.5 -44.5q72 0 124 66q73 91 73 219q0 84 -34 156t-136 185q-51 -44 -72 -78q-32 -51 -59.5 -151.5t-27.5 -213.5zM551 1099q0 -72 26 -134.5t98 -152.5q53 38 70 80q38 95 38 253q0 98 -30.5 138.5 t-71.5 40.5q-53 0 -81 -39q-49 -68 -49 -186z" />
<glyph unicode="9" d="M87 12q153 42 284.5 164.5t237.5 356.5q-94 -32 -161 -32q-113 0 -189 85t-76 240q0 200 113 366q137 202 366 202q156 0 251.5 -107t95.5 -304q0 -212 -93.5 -408.5t-237.5 -332t-308 -205.5q-129 -55 -283 -66v41zM435 757q0 -74 42 -124q31 -39 76 -39q35 0 88 15 q68 178 113 364q29 126 29 209q0 75 -32.5 112.5t-81.5 37.5q-38 0 -69 -28q-52 -46 -96 -184q-69 -218 -69 -363z" />
<glyph unicode=":" horiz-adv-x="682" d="M82 136q0 68 48 116t116 48q69 0 117 -48t48 -116t-48.5 -116t-116.5 -48t-116 48t-48 116zM263 760q0 68 48 116.5t117 48.5q68 0 116 -48.5t48 -116.5t-48 -116t-117 -48q-68 0 -116 48t-48 116z" />
<glyph unicode=";" horiz-adv-x="682" d="M1 -287q153 87 190 132q29 35 29 70q0 39 -51.5 86.5t-68.5 80.5q-13 25 -13 64q0 65 48.5 112t117.5 47q67 0 116.5 -53t49.5 -132q0 -125 -95.5 -246t-299.5 -203zM265 759q0 69 48.5 118t117.5 49q70 0 118.5 -49t48.5 -118q0 -68 -49 -117t-118 -49q-68 0 -117 49 t-49 117z" />
<glyph unicode="&#x3c;" horiz-adv-x="1167" d="M80 631v81l1092 451v-138l-845 -353l845 -347v-140z" />
<glyph unicode="=" horiz-adv-x="1167" d="M80 447v130h1094v-130h-1094zM80 774v130h1094v-130h-1094z" />
<glyph unicode="&#x3e;" horiz-adv-x="1167" d="M80 185v139l845 352l-845 347v140l1092 -445v-82z" />
<glyph unicode="?" d="M181 135q0 68 47.5 115.5t116.5 47.5q68 0 115.5 -47.5t47.5 -115.5t-48 -116t-115 -48q-68 0 -116 48t-48 116zM277 1142q0 118 100.5 181.5t232.5 63.5q111 0 195.5 -36t127 -101.5t42.5 -136.5q0 -102 -51 -181q-71 -110 -248 -219.5t-226.5 -170.5t-64.5 -160h-41 q0 107 34.5 183t181.5 250q105 124 146 220q27 63 27 134q0 85 -40.5 130.5t-100.5 45.5q-43 0 -68.5 -22.5t-25.5 -49.5q0 -19 18 -50q35 -63 35 -110q0 -50 -39.5 -88.5t-95.5 -38.5q-58 0 -98.5 42.5t-40.5 113.5z" />
<glyph unicode="@" horiz-adv-x="1704" d="M-8 436q0 262 124 485.5t348 344.5t496 121q221 0 386.5 -88.5t248.5 -248.5t83 -338q0 -207 -89.5 -378t-223 -252.5t-287.5 -81.5q-99 0 -151 49t-52 126q0 54 24 141q-83 -138 -129 -191q-63 -71 -125 -104q-40 -21 -91 -21q-71 0 -119.5 56.5t-48.5 165.5 q0 112 32.5 219.5t88.5 202t129.5 169.5t165.5 124q47 26 101 26q56 0 92.5 -35t49.5 -122l34 119l244 10l-183 -628q-31 -104 -31 -156q0 -32 23.5 -55.5t57.5 -23.5q69 0 178.5 79.5t181 227t71.5 314.5q0 276 -177.5 453.5t-462.5 177.5q-246 0 -447 -115.5t-319 -335.5 t-118 -472q0 -346 220.5 -566.5t561.5 -220.5q281 0 504 151t316 400h61q-120 -294 -349.5 -450.5t-533.5 -156.5q-385 0 -635 248.5t-250 629.5zM644 275q0 -44 18.5 -68t40.5 -24q19 0 55 28q51 39 109 132t95 206.5t37 209.5q0 69 -26 105q-19 27 -45 27q-38 0 -75 -42 q-50 -57 -107 -190q-102 -239 -102 -384z" />
<glyph unicode="A" horiz-adv-x="1366" d="M-116 0l10 37q54 9 96 38q56 40 161 165l961 1147h45l-45 -1110q-3 -87 -3 -105q0 -68 27.5 -99t91.5 -36l-10 -37h-587l11 37q87 8 100 14q28 14 51 58.5t28 154.5l9 173h-420l-84 -104l-96 -115q-28 -37 -41 -67q-10 -23 -10 -46q0 -24 25.5 -44.5t84.5 -23.5v-37h-405 zM479 519h351l26 442z" />
<glyph unicode="B" horiz-adv-x="1366" d="M-52 0l13 37q82 0 117.5 15t57 46.5t50.5 131.5l242 834q37 127 37 170q0 35 -29.5 58t-128.5 27l10 37h536q179 0 256 -19q101 -24 156.5 -93.5t55.5 -157.5q0 -72 -44 -147t-131.5 -123.5t-268.5 -89.5q188 -53 261 -136t73 -193q0 -103 -72 -203.5t-191 -147 t-436 -46.5h-564zM427 79q50 -2 75 -2q223 0 310 124.5t87 266.5q0 68 -33.5 120.5t-86.5 73t-179 20.5zM624 757q136 2 214.5 43t126 134.5t47.5 176.5q0 78 -49 127q-47 47 -125 47h-6l-55 -2z" />
<glyph unicode="C" horiz-adv-x="1366" d="M134 505q0 224 119 427.5t342.5 329t444.5 125.5q84 0 209 -36q64 -18 89 -18q50 0 101 54h37l-100 -431h-39q-7 176 -86.5 262.5t-207.5 86.5q-138 0 -275 -118t-232 -361q-77 -197 -77 -389q0 -172 84.5 -262.5t231.5 -90.5q119 0 217 52t198 169h48 q-124 -186 -250.5 -261t-309.5 -75q-245 0 -394.5 148.5t-149.5 387.5z" />
<glyph unicode="D" horiz-adv-x="1479" d="M-74 0l12 37q98 0 148.5 40.5t83.5 151.5l246 855q24 84 24 138q0 46 -28 68t-143 29l12 37h464q367 0 529.5 -148.5t162.5 -416.5q0 -189 -75 -317q-147 -250 -349 -362t-519 -112h-568zM454 146q0 -28 23 -45q30 -23 89 -23q141 0 252 88q142 113 216.5 304t74.5 379 q0 136 -43 237t-133 154q-63 36 -160 36l-298 -1028q-21 -71 -21 -102z" />
<glyph unicode="E" horiz-adv-x="1366" d="M-72 0l12 37q102 0 149 38.5t85 169.5l255 873q21 73 21 115q0 38 -27 58.5t-123 27.5l11 37h1081l-87 -339h-36q-4 100 -31 141q-42 64 -111.5 93.5t-225.5 29.5h-127l-151 -526h46q182 0 265.5 48t141.5 170h37l-152 -528h-35q9 53 9 86q0 55 -32.5 90t-84.5 50 q-34 10 -141 10h-78l-130 -455q-17 -60 -17 -89q0 -23 22 -37q32 -20 121 -20q171 0 322 72.5t271 219.5h41l-141 -372h-1160z" />
<glyph unicode="F" horiz-adv-x="1366" d="M0 0l11 37q98 0 143 36.5t81 159.5l242 830q38 131 40 168q-2 35 -32 59.5t-123 28.5l10 37h1108l-91 -358h-37q-6 112 -35 166.5t-95.5 85t-212.5 30.5h-171l-150 -512q153 2 199 12q75 15 136 63.5t102 134.5h39l-155 -535h-40q10 52 10 83q0 62 -25.5 99t-65.5 50.5 t-220 17.5l-122 -423l-24 -85q-5 -25 -5 -49q0 -35 13.5 -55t43.5 -31.5t114 -12.5l-11 -37h-677z" />
<glyph unicode="G" horiz-adv-x="1479" d="M142 561q0 384 341 633q267 193 606 193q59 0 109 -6q37 -5 130 -28q60 -15 82 -15q44 0 83 49h37l-94 -435h-38q-8 190 -85.5 273.5t-217.5 83.5q-144 0 -288 -101.5t-245.5 -313t-101.5 -444.5q0 -200 90 -305.5t211 -105.5q51 0 124 29l104 358q26 90 26 118 q0 37 -31.5 62.5t-108.5 25.5l10 38h585l-9 -38q-52 -3 -81.5 -19.5t-46.5 -48.5q-10 -19 -31 -98l-123 -417q-210 -80 -442 -80q-179 0 -304.5 65t-208 206t-82.5 321z" />
<glyph unicode="H" horiz-adv-x="1593" d="M-66 0l11 37q96 0 140.5 37.5t82.5 168.5l252 868q22 75 22 118q0 41 -26.5 62t-126.5 28l11 37h663l-15 -37q-92 0 -139 -39.5t-86 -168.5l-114 -379h496l110 379q22 78 22 119q0 40 -27 61t-130 28l11 37h674l-11 -37q-99 0 -150 -42t-87 -166l-252 -868 q-25 -85 -25 -122t27 -56q35 -26 127 -28l-10 -37h-661l15 37q96 0 141.5 37.5t83.5 168.5l117 404h-494l-116 -404q-25 -83 -25 -123q0 -36 30.5 -58.5t120.5 -24.5l-10 -37h-652z" />
<glyph unicode="I" horiz-adv-x="797" d="M-72 0l11 37q101 0 148 38.5t85 168.5l250 868q23 80 23 121q0 37 -28 58t-134 28l11 37h662l-13 -37q-90 0 -137.5 -40t-83.5 -167l-248 -868q-27 -92 -27 -123q0 -36 28 -56q36 -26 136 -28l-10 -37h-673z" />
<glyph unicode="J" d="M-16 172q0 73 45.5 121.5t103.5 48.5q52 0 87.5 -33t35.5 -81q0 -44 -43 -95q-26 -32 -26 -51q0 -16 14 -27q24 -18 55 -18q58 0 108 76t145 399l178 606q23 80 23 115q0 37 -28 58t-135 28l11 37h666l-11 -37q-92 0 -142.5 -41.5t-84.5 -159.5l-145 -508 q-79 -275 -138.5 -385t-169 -183t-278.5 -73q-137 0 -204 57.5t-67 145.5z" />
<glyph unicode="K" horiz-adv-x="1366" d="M-66 0l11 37q79 2 118 21t62 59t55 153l228 789q39 136 39 173q0 34 -31.5 59t-119.5 28l11 37h638l-11 -37q-64 0 -98 -19q-45 -26 -73 -76q-19 -33 -52 -153l-92 -324l353 324q103 95 115 114q16 25 16 53q0 30 -21.5 52t-74.5 29l11 37h511l-11 -37q-59 -5 -96 -17 q-49 -16 -112 -54.5t-128 -90.5l-93 -86l-215 -193l160 -500q78 -247 121 -292t112 -49l-11 -37h-587l11 37q58 5 86 33.5t28 70.5q0 45 -31 143l-144 462l-143 -495q-24 -83 -24 -120q0 -42 33 -67.5t119 -26.5l-11 -37h-659z" />
<glyph unicode="L" horiz-adv-x="1251" d="M-66 0l11 37q97 0 141.5 37.5t82.5 168.5l252 871q21 72 21 113q0 40 -30 64t-118 28l11 37h651l-11 -37q-94 -2 -140.5 -42t-82.5 -163l-230 -797q-44 -152 -44 -185q0 -20 22.5 -37.5t72.5 -17.5q166 0 320.5 76t261.5 227h42l-150 -380h-1083z" />
<glyph unicode="M" horiz-adv-x="1821" d="M-69 0l9 37q81 3 124 34q76 56 110 172l293 1002q-42 46 -75.5 60t-112.5 14l12 37h484l100 -932l645 932h475l-12 -37q-98 0 -149 -42t-87 -166l-250 -868q-24 -82 -24 -122q0 -37 30 -59.5t118 -24.5l-9 -37h-677l12 37q109 0 161 41.5t88 164.5l255 879l-776 -1122 h-41l-122 1144l-259 -901q-16 -55 -16 -92q0 -50 34.5 -80.5t117.5 -33.5l-10 -37h-448z" />
<glyph unicode="N" horiz-adv-x="1479" d="M-66 0l9 37q57 0 81 10q42 16 82 61.5t65 131.5l287 985q-53 59 -89 76t-108 18l11 37h458l424 -904l191 656q15 54 15 96q0 50 -31.5 80t-108.5 35l11 37h430l-10 -37q-82 -5 -135.5 -46t-90.5 -165l-331 -1123h-38l-544 1156l-263 -901q-13 -47 -13 -84 q0 -54 35.5 -86.5t113.5 -32.5l-9 -37h-442z" />
<glyph unicode="O" horiz-adv-x="1479" d="M109 444q0 222 127 447.5t342.5 361t425.5 135.5q123 0 233.5 -62t172 -173t61.5 -224q0 -253 -161 -507.5t-362 -368.5q-152 -85 -372 -85q-164 0 -265 67t-151.5 183t-50.5 226zM428 295q0 -122 53 -184.5t136 -62.5q110 0 187 73q153 145 249.5 425.5t96.5 499.5 q0 137 -51.5 198.5t-127.5 61.5q-79 0 -134.5 -28.5t-115.5 -95.5t-122 -191.5t-116.5 -338.5t-54.5 -357z" />
<glyph unicode="P" horiz-adv-x="1251" d="M-61 0l11 37q84 1 119 16.5t58 50.5q17 23 51 141l251 861q26 86 26 123t-33 62.5t-120 27.5l11 37h537q221 0 318 -56q150 -88 150 -264q0 -170 -149.5 -299.5t-402.5 -129.5q-76 0 -185 16l-110 -378q-23 -80 -23 -113q0 -46 30 -69.5t136 -25.5l-13 -37h-662zM601 700 q65 -8 108 -8q138 0 217 126t79 263q0 93 -51 144.5t-141 51.5q-19 0 -47 -2z" />
<glyph unicode="Q" horiz-adv-x="1479" d="M109 444q0 222 127.5 447.5t342 360.5t425.5 135q122 0 233 -61t172 -172.5t61 -231.5q0 -179 -87 -367.5t-235.5 -328.5t-299.5 -203q-102 -43 -236 -54l-176 -160q99 20 162 20q87 0 245 -42t249 -42q100 0 185 36q53 22 109 75l30 -28q-101 -123 -238 -188.5 t-345 -65.5q-117 0 -273 33.5t-248 33.5q-73 0 -156 -22l-19 25l369 325q-130 22 -199 70q-94 64 -146 175.5t-52 229.5zM428 295q0 -122 53 -184.5t136 -62.5q110 0 187 73q153 145 249.5 425.5t96.5 499.5q0 137 -51.5 198.5t-127.5 61.5q-79 0 -134.5 -28.5t-115.5 -95.5 t-122 -191.5t-116.5 -338.5t-54.5 -357z" />
<glyph unicode="R" horiz-adv-x="1366" d="M-65 0l12 37q98 0 143.5 38t83.5 170l252 870q21 73 21 115q0 40 -26 61t-121 28l10 37h562q241 0 339 -84t98 -216q0 -139 -114 -251q-72 -70 -255 -121l122 -411q49 -165 85.5 -199t121.5 -37v-37h-422l-192 662l-33 -2q-11 0 -34 2l-120 -411q-26 -87 -26 -128 q0 -38 31 -61t129 -25l-14 -37h-653zM602 722q35 -2 59 -2q146 0 240 100t94 262q0 96 -50 146t-132 50q-20 0 -47 -1z" />
<glyph unicode="S" horiz-adv-x="1139" d="M-45 -31l121 517h38q13 -136 55 -231.5t120 -149t178 -53.5q99 0 165.5 65.5t66.5 153.5q0 75 -37.5 144t-171 201t-184.5 236q-37 77 -37 164q0 151 119 261t311 110q87 0 229 -39q83 -23 117 -23q29 0 52 12.5t54 49.5h44l-113 -460h-33q-11 108 -39 173 q-42 94 -111.5 145t-150.5 51q-78 0 -136.5 -59.5t-58.5 -134.5q0 -74 40.5 -145.5t191.5 -215.5q121 -115 162.5 -198t41.5 -180q0 -109 -58 -201t-168.5 -142.5t-250.5 -50.5q-86 0 -216.5 25.5t-173.5 25.5q-34 0 -61 -10.5t-67 -40.5h-39z" />
<glyph unicode="T" horiz-adv-x="1251" d="M163 0l12 37q103 0 150 38.5t86 172.5l302 1021q-156 -5 -261 -68t-192 -210h-39l107 365h1091l-103 -365h-36q2 29 2 51q0 104 -61 161.5t-206 65.5l-302 -1021q-25 -85 -25 -126q0 -38 31 -60.5t126 -24.5l-9 -37h-673z" />
<glyph unicode="U" horiz-adv-x="1479" d="M192 309q0 71 40 210l172 594q23 80 23 119q0 38 -28.5 59t-132.5 28l11 37h676l-12 -37q-98 0 -149.5 -42t-86.5 -164l-173 -594q-43 -149 -43 -239q0 -82 66 -143t184 -61q108 0 183.5 39.5t125.5 110.5q66 95 118 272l177 615q15 53 15 88q0 62 -44 95q-31 23 -128 23 l11 37h459l-9 -37q-79 -6 -122 -38q-69 -51 -103 -168l-180 -622q-84 -291 -228 -406.5t-366 -115.5q-126 0 -222 36t-141 81t-69 111.5t-24 111.5z" />
<glyph unicode="V" horiz-adv-x="1366" d="M243 1319l12 37h570l-11 -37q-73 0 -110.5 -44t-43.5 -182l-32 -707l529 614q103 119 127 165t24 80q0 25 -22 44.5t-84 29.5l14 37h374v-37q-48 -12 -78 -35q-44 -33 -136 -140l-1012 -1175h-44l44 1134q3 99 3 104q0 55 -26.5 81t-97.5 31z" />
<glyph unicode="W" horiz-adv-x="1821" d="M252 1319l15 37h548l-11 -37h-27q-54 0 -87.5 -35.5t-40.5 -132.5l-53 -688l409 559l10 129q4 40 4 64q0 49 -26.5 75t-87.5 29l10 37h552l-11 -37q-73 0 -108 -35.5t-43 -132.5l-52 -688l394 542q101 139 125 189q17 34 17 58q0 23 -22.5 41.5t-86.5 25.5l10 37h362 l-9 -37q-49 -9 -81 -34q-45 -35 -117 -134l-861 -1182h-59l69 915l-667 -915h-60l92 1160q4 51 4 84q0 53 -24.5 78t-86.5 28z" />
<glyph unicode="X" horiz-adv-x="1366" d="M-124 0l10 37q53 10 91 33q93 56 229 182l410 375l-211 492q-56 130 -90.5 161.5t-108.5 38.5v37h599l-11 -37q-63 -5 -85 -25t-22 -53q0 -39 35 -122l120 -284l167 153q140 127 179 190q23 37 23 67q0 27 -24.5 49t-78.5 25l12 37h443l-9 -37q-50 -9 -92 -36 q-67 -43 -224 -187l-365 -335l205 -477q71 -163 106.5 -198t105.5 -49l-10 -37h-601l12 37q63 1 92 25.5t29 60.5q0 49 -56 177l-110 255l-250 -233q-119 -110 -138.5 -143.5t-19.5 -63.5t28 -53t92 -25l-12 -37h-470z" />
<glyph unicode="Y" horiz-adv-x="1251" d="M190 0l10 37h7q71 0 115 21q46 21 69 55q16 24 47 128l104 358l-114 494q-29 128 -70 175q-31 36 -113 51l11 37h651l-12 -37q-95 0 -138.5 -38.5t-43.5 -91.5q0 -33 18 -115l88 -401l219 302q84 116 105 163.5t21 83.5t-27 63t-87 34l11 37h407v-37q-55 -6 -95 -36 t-156 -190l-385 -530l-90 -314q-29 -97 -29 -113q0 -43 33 -71t111 -28h38l-11 -37h-694z" />
<glyph unicode="Z" horiz-adv-x="1251" d="M-56 0v37l1036 1241h-127q-244 0 -362 -60.5t-202 -205.5h-40l116 344h1025v-37l-1037 -1245h81q243 0 390 71.5t272 236.5h42l-142 -382h-1052z" />
<glyph unicode="[" horiz-adv-x="682" d="M-59 -377l504 1733h433l-11 -37h-33q-73 0 -108 -15.5t-59.5 -49.5t-51.5 -126l-371 -1270q-31 -108 -31 -142q0 -14 8 -25q11 -14 33 -23q16 -6 68 -6h61l-11 -39h-431z" />
<glyph unicode="\" horiz-adv-x="569" d="M160 1384h120l136 -1415h-122z" />
<glyph unicode="]" horiz-adv-x="682" d="M-227 -377l11 39h33q73 0 108 15.5t59.5 49t51.5 125.5l371 1270q31 107 31 142q0 14 -8 25q-11 15 -33 23q-16 7 -68 7h-61l11 37h431l-504 -1733h-433z" />
<glyph unicode="^" horiz-adv-x="1167" d="M208 666l411 718h82l404 -718h-159l-295 512l-290 -512h-153z" />
<glyph unicode="_" d="M-180 -311h1062v-131h-1062v131z" />
<glyph unicode="`" horiz-adv-x="682" d="M244 1387h294l107 -347h-78z" />
<glyph unicode="a" d="M40 218q0 141 86 323.5t226 293.5q115 92 216 92q56 0 90 -32.5t50 -118.5l36 123l237 14l-194 -665l-20 -81q-3 -15 -3 -22q0 -12 8.5 -21t17.5 -9q21 0 58 32q15 13 72 92l35 -18q-71 -130 -151.5 -189.5t-173.5 -59.5q-57 0 -87 29.5t-30 74.5q0 39 32 145l24 81 q-116 -199 -223 -282q-62 -48 -132 -48q-92 0 -133 75.5t-41 170.5zM301 256q0 -53 17.5 -76.5t38.5 -23.5q45 0 91 52q66 74 119 181q94 188 94 334q0 81 -25 117q-18 25 -49 25t-64 -30q-67 -62 -144.5 -251.5t-77.5 -327.5z" />
<glyph unicode="b" d="M19 69l306 1061q22 75 22 103q0 24 -20 38q-24 17 -71 17h-14l11 40l334 59h60l-173 -603q79 86 132 114.5t115 28.5q120 0 179.5 -86.5t59.5 -199.5q0 -270 -196 -482q-174 -187 -396 -187q-165 0 -349 97zM263 59q47 -30 85 -30q53 0 89 21q57 34 119.5 123t104.5 215 t42 251q0 71 -32 108t-74 37q-70 0 -122 -68q-35 -44 -76 -187z" />
<glyph unicode="c" horiz-adv-x="909" d="M54 261q0 164 89 322.5t235 251t287 92.5q113 0 170 -50t57 -124q0 -67 -43 -114t-96 -47q-46 0 -76.5 30t-30.5 71q0 54 54 94q37 28 37 49q0 18 -15 29q-20 16 -52 16q-84 0 -158 -68q-98 -90 -150 -228t-52 -262q0 -98 53 -156.5t126 -58.5q64 0 138.5 33t141.5 100 l30 -27q-97 -116 -191 -170q-125 -72 -259 -72q-90 0 -159.5 38.5t-102.5 108t-33 142.5z" />
<glyph unicode="d" d="M41 211q0 149 66 294t152.5 242t165 138.5t154.5 41.5q39 0 69.5 -16t69.5 -60l74 249q27 92 27 132q0 24 -18 41t-48 17q-14 0 -35 -3l10 39l329 61h60l-325 -1119q-31 -105 -31 -127q0 -11 8 -19t17 -8q17 0 39 17q37 28 90 106l36 -19q-141 -246 -310 -246 q-60 0 -92.5 31.5t-32.5 80.5q0 47 26 134l30 102q-125 -221 -217 -294q-70 -54 -136 -54q-75 0 -126.5 61t-51.5 178zM302 254q0 -48 17 -71t38 -23q35 0 70 32q85 76 167.5 261.5t82.5 299.5q0 61 -24 89t-56 28t-69 -33q-71 -64 -148.5 -257.5t-77.5 -325.5z" />
<glyph unicode="e" horiz-adv-x="909" d="M45 237q0 164 95.5 328t260 263t330.5 99q84 0 127 -40t43 -101q0 -73 -42 -142q-58 -94 -146 -151.5t-197 -87.5q-73 -20 -196 -30q-9 -65 -9 -107q0 -75 43.5 -120t116.5 -45q70 0 140.5 34t163.5 119l30 -27q-115 -139 -224 -198t-241 -59q-167 0 -231 80t-64 185z M329 427q88 13 136.5 35.5t95 72t80.5 125t34 141.5q0 28 -15.5 44t-39.5 16q-48 0 -108 -67q-110 -122 -183 -367z" />
<glyph unicode="f" horiz-adv-x="682" d="M-328 -333q0 41 33 71t87 30q45 0 69 -23t24 -58q0 -32 -15 -47.5t-15 -20.5l5 -7q6 -5 14 -5q30 0 51 19q53 47 79 114q18 46 69 243l204 799h-139l33 117h7q70 0 102 19q34 20 72 90q110 203 232 291t272 88q96 0 139.5 -37t43.5 -96q0 -52 -29 -82.5t-72 -30.5 q-40 0 -66 25t-26 60q0 25 16.5 53t16.5 38q0 11 -7.5 18t-19.5 7q-59 0 -121 -73q-102 -117 -164 -370h145l-35 -117h-141l-117 -462q-82 -327 -160 -474t-182.5 -217.5t-239.5 -70.5q-85 0 -125 32.5t-40 76.5z" />
<glyph unicode="g" d="M-106 -224q0 61 54.5 113t233.5 92q-61 34 -82 62q-29 38 -29 79q0 67 53.5 118t179.5 101q-98 39 -141.5 100.5t-43.5 143.5q0 87 52.5 165.5t155 127.5t235.5 49q85 0 151 -19q34 -10 79 -42h266l-32 -110h-138q32 -59 32 -112q0 -91 -49.5 -168t-146 -123t-214.5 -46 q-31 0 -68.5 4.5t-81.5 12.5q-66 -34 -83 -54q-12 -14 -12 -29q0 -18 15 -31q26 -23 77 -34q204 -44 269 -71q89 -37 134.5 -95t45.5 -140q0 -125 -115 -218.5t-356 -93.5q-243 0 -358 80q-83 58 -83 138zM74 -215q0 -65 68.5 -117.5t218.5 -52.5q125 0 181 45.5t56 106.5 q0 54 -51.5 88t-197.5 71q-68 18 -111 32q-95 -37 -129.5 -80t-34.5 -93zM365 464q0 -49 28.5 -77.5t70.5 -28.5q41 0 71 28q57 55 99 175.5t42 218.5q0 44 -27 71t-66 27q-49 0 -83 -32q-54 -49 -94.5 -164t-40.5 -218z" />
<glyph unicode="h" horiz-adv-x="1139" d="M25 0l328 1130q20 72 20 103q0 25 -20 39q-22 16 -66 16h-14l7 40l333 59h60l-260 -901q135 199 196 269q91 101 156.5 136.5t125.5 35.5q51 0 87.5 -38.5t36.5 -102.5q0 -54 -24 -135l-127 -426q-17 -56 -17 -75q0 -9 7 -16.5t16 -7.5q12 0 24 10q32 25 68 80 q9 14 29 42l39 -22q-86 -142 -163 -195t-146 -53q-62 0 -97 32t-35 80q0 44 24 125l124 426q12 44 12 64q0 11 -8.5 19.5t-19.5 8.5q-36 0 -99 -60q-130 -123 -260 -386l-89 -297h-248z" />
<glyph unicode="i" horiz-adv-x="569" d="M41 101q0 37 17 94l139 478q20 69 20 104q0 22 -19 39t-52 17q-15 0 -36 -1l13 40l339 55h60l-205 -711q-17 -61 -17 -80q0 -11 9 -20.5t19 -9.5q17 0 34 15q45 37 108 134l34 -20q-151 -263 -321 -263q-65 0 -103.5 36.5t-38.5 92.5zM314 1240q0 61 42.5 104t103.5 43 q62 0 104.5 -43t42.5 -104t-43 -104t-104 -43q-60 0 -103 43t-43 104z" />
<glyph unicode="j" horiz-adv-x="569" d="M-330 -334q0 42 33.5 74.5t85.5 32.5q40 0 63 -21.5t23 -51.5q0 -29 -27 -58q-11 -12 -11 -18q0 -7 6.5 -12.5t19.5 -5.5q44 0 76 50q22 33 78 248l204 770q22 83 22 104q0 20 -22 38.5t-58 18.5q-11 0 -26 -1l11 38l337 55h60l-213 -787q-66 -241 -148 -381 q-57 -98 -152.5 -149.5t-196.5 -51.5q-84 0 -124.5 33t-40.5 75zM312 1238q0 62 43.5 105.5t105.5 43.5t105 -43.5t43 -105.5q0 -61 -43.5 -104.5t-104.5 -43.5q-62 0 -105.5 43.5t-43.5 104.5z" />
<glyph unicode="k" d="M12 0l332 1129q21 72 21 97q0 23 -10 37.5t-27.5 21.5t-69.5 7l9 37l340 58h60l-276 -946l229 212l76 68q33 34 46 58q8 15 8 28q0 21 -20 35t-97 19l11 38h407l-10 -38q-72 -17 -117 -39q-35 -17 -86 -56q-76 -59 -109 -91l-44 -41l61 -276q35 -160 52 -185 q11 -15 26 -15q35 0 83 82q7 11 19 31l37 -23q-75 -140 -169 -213q-63 -49 -114 -49t-85 36.5t-68 191.5l-50 227l-110 -98l-100 -343h-255z" />
<glyph unicode="l" horiz-adv-x="569" d="M30 93q0 37 24 119l270 922q22 76 22 101q0 24 -21 38q-24 17 -71 17h-14l11 38l337 59h60l-331 -1126q-29 -100 -29 -125q0 -13 8.5 -22t18.5 -9q18 0 34 14q48 39 107 132l39 -18q-95 -152 -187 -217q-63 -44 -134 -44q-66 0 -105 35.5t-39 85.5z" />
<glyph unicode="m" horiz-adv-x="1593" d="M20 0l188 643q28 95 28 135q0 16 -8 27.5t-26 18t-69 6.5l10 38l341 59h60l-128 -430q129 198 188 267q87 101 143.5 132t113.5 31q65 0 94 -39t29 -86q0 -49 -27 -144l-45 -161q130 200 187 266q88 102 153 138q45 26 96 26q53 0 88.5 -35.5t35.5 -92.5q0 -64 -30 -166 l-111 -373q-25 -83 -25 -107q0 -8 6.5 -15t14.5 -7q11 0 19 7q36 29 76 85q9 12 27 37l34 -22q-69 -129 -151.5 -189t-152.5 -60q-61 0 -98 33.5t-37 78.5q0 43 25 130l113 390q23 81 23 101q0 7 -7 13.5t-14 6.5q-13 0 -26 -6q-19 -10 -58.5 -52t-113.5 -150.5 t-102.5 -169.5t-56.5 -158l-61 -206h-253l187 653q15 53 15 73q0 7 -6.5 13t-13.5 6q-37 0 -117 -97q-122 -150 -222 -361l-81 -287h-255z" />
<glyph unicode="n" horiz-adv-x="1139" d="M26 0l187 642q27 95 27 135q0 17 -8 28.5t-26 18t-68 6.5l11 38l337 59h61l-124 -429q125 188 187 257q91 100 157 136t124 36q52 0 89 -38.5t37 -100.5q0 -56 -24 -136l-128 -427q-16 -56 -16 -73q0 -10 7.5 -18t15.5 -8q10 0 21 8q35 29 71 82q9 14 29 42l38 -23 q-147 -247 -309 -247q-62 0 -97 32t-35 80q0 42 24 125l125 427q13 42 13 62q0 11 -9 19.5t-21 8.5q-38 0 -92 -52q-138 -132 -267 -393l-82 -297h-255z" />
<glyph unicode="o" d="M50 251q0 139 55.5 260.5t141 212t196.5 147t230 56.5q79 0 148.5 -36.5t105 -101.5t35.5 -144q0 -162 -90.5 -324t-238.5 -255.5t-298 -93.5q-136 0 -210.5 81t-74.5 198zM298 131q0 -46 28 -76t66 -30q39 0 69 24q44 36 108 161.5t105 277t41 277.5q0 52 -25 80.5 t-58 28.5q-53 0 -88 -31q-70 -63 -158 -294.5t-88 -417.5z" />
<glyph unicode="p" d="M-250 -438l10 37q64 2 106.5 41t79.5 168l244 841q27 94 27 133q0 17 -8 28.5t-24 16.5t-72 5l11 39l331 56h60l-45 -163q105 96 172 129.5t133 33.5q94 0 145 -72.5t51 -177.5q0 -287 -199 -509q-176 -196 -384 -196q-37 0 -63 7t-73 31l-52 -180q-28 -98 -28 -149 q0 -32 22 -50.5t103 -31.5l-9 -37h-538zM280 103q30 -49 54 -65.5t56 -16.5t62.5 17.5t75.5 70.5t86.5 136t66.5 188.5t25 201.5q0 77 -27.5 112t-66.5 35q-35 0 -66 -18q-45 -26 -106 -97z" />
<glyph unicode="q" d="M39 221q0 129 59.5 270.5t157 250t196.5 159.5q50 26 113 26q62 0 100.5 -36t53.5 -118l38 126h233l-295 -1011q-30 -104 -36 -131q-9 -44 -9 -74q0 -31 25 -51q33 -27 104 -33l-11 -37h-529l10 37q59 9 87.5 27.5t50.5 62t50 147.5l133 453q-112 -192 -208 -263 q-74 -54 -147 -54t-117 54q-59 72 -59 195zM301 260q0 -52 22 -81q16 -21 41 -21q35 0 70 32q84 75 164.5 250t80.5 284q0 69 -27.5 104t-61.5 35q-36 0 -73 -33q-66 -59 -134 -233q-82 -214 -82 -337z" />
<glyph unicode="r" horiz-adv-x="797" d="M35 0l165 663q18 74 18 98q0 27 -9.5 42t-26 22t-68.5 7l9 29l302 66h60l-151 -562q186 411 280 506q55 56 116 56q42 0 68 -30.5t26 -86.5q0 -97 -47 -163q-30 -42 -67 -42q-40 0 -60 37t-28 43.5t-17 6.5q-10 0 -21 -6q-22 -12 -57.5 -58.5t-87.5 -155.5t-81 -184.5 t-81 -287.5h-242z" />
<glyph unicode="s" horiz-adv-x="797" d="M-1 -28l49 333h32q35 -121 65.5 -172.5t81.5 -82t98 -30.5q55 0 91 34.5t36 82.5q0 47 -23.5 91t-108.5 137q-117 127 -154 196q-26 50 -26 114q0 108 78.5 180t220.5 72q62 0 152 -22q45 -11 72 -11q39 0 63 33h36l-44 -309h-37q-8 120 -73.5 189t-140.5 69 q-46 0 -76 -27t-30 -65q0 -32 13 -60t58 -76q158 -170 192 -234t34 -137q0 -79 -40 -149.5t-119.5 -113t-165.5 -42.5q-58 0 -143 23q-56 16 -84 16q-25 0 -39 -7.5t-31 -31.5h-37z" />
<glyph unicode="t" horiz-adv-x="569" d="M39 94q0 58 26 149l158 541h-136l20 74q128 47 216 110t212 203h52l-80 -272h131l-35 -115h-129l-167 -580q-16 -54 -16 -82q0 -13 9 -22.5t20 -9.5q17 0 35 14q46 35 107 122l35 -22q-69 -120 -152 -176t-163 -56q-68 0 -105.5 34.5t-37.5 87.5z" />
<glyph unicode="u" horiz-adv-x="1139" d="M70 110q0 51 25 137l113 400q28 98 28 132q0 15 -8 26.5t-26.5 18t-68.5 6.5l10 38l341 59h60l-194 -680q-14 -47 -14 -65q0 -9 7 -14q8 -8 19 -8q46 0 123 82q110 119 231 342l91 306l253 9l-192 -660q-24 -84 -24 -96q0 -8 7.5 -16.5t15.5 -8.5q14 0 27 12 q36 29 95 117l34 -24q-139 -251 -306 -251q-62 0 -97.5 31.5t-35.5 82.5q0 54 25 137l49 169q-130 -189 -189 -255q-90 -99 -151.5 -132t-117.5 -33q-53 0 -91.5 39t-38.5 99z" />
<glyph unicode="v" horiz-adv-x="909" d="M57 802v36l333 89q97 -265 97 -674v-25q147 140 202.5 227t55.5 145q0 46 -34.5 93.5t-43 67.5t-8.5 44q0 52 34 87t86 35q55 0 85 -35q42 -49 42 -116q0 -69 -24.5 -135.5t-84 -157t-132.5 -164.5q-134 -136 -383 -347h-36q3 82 3 124q0 114 -17.5 329.5t-39.5 287.5 q-17 53 -45 77q-19 16 -49 16q-17 0 -41 -4z" />
<glyph unicode="w" horiz-adv-x="1366" d="M57 799v37l344 91q28 -78 38 -147q17 -106 17 -247q0 -50 -4 -152l387 546h42l74 -702q151 149 197 235.5t46 144.5q0 22 -10 44t-40 61t-34 49q-7 19 -7 46q0 51 35 86.5t88 35.5t84 -36q44 -52 44 -120q0 -111 -106 -291t-484 -508h-40l-62 614l-432 -614h-43 q15 278 15 520q0 158 -17 228q-10 41 -35.5 62t-55.5 21q-16 0 -41 -4z" />
<glyph unicode="x" d="M-93 80q0 51 33 84t84 33q27 0 61 -16q50 -24 72 -24q29 0 52 12q30 15 76 65q28 31 103 132q-96 356 -150 426q-34 45 -86 45q-27 0 -66 -8l7 38l349 60q95 -149 134 -328q98 145 148 203q67 78 110.5 101.5t92.5 23.5q55 0 84.5 -30t29.5 -81q0 -48 -29.5 -78.5 t-73.5 -30.5q-32 0 -73.5 11.5t-57.5 11.5q-42 0 -80 -30q-52 -41 -128 -175q85 -300 136 -366q30 -39 61 -39q26 0 45 13q29 21 89 105l36 -21q-88 -142 -172 -200q-64 -45 -126 -45q-64 0 -106.5 28.5t-75.5 93t-78 206.5q-117 -149 -183.5 -217.5t-110.5 -89.5t-94 -21 q-52 0 -82.5 30t-30.5 78z" />
<glyph unicode="y" horiz-adv-x="909" d="M-192 -307q0 55 36.5 93t85.5 38q61 0 112 -64q34 -43 56 -43q23 0 45 13q30 16 84 74q6 125 6 189q0 86 -8 242l-17 381q-9 105 -45 151q-28 34 -73 34q-17 0 -38 -3v39l308 90q37 -46 52 -87q27 -71 38 -196q21 -246 29 -525q107 141 245 373q42 70 42 132 q0 39 -48.5 74t-60.5 54.5t-12 50.5q0 50 36.5 87t88.5 37q55 0 95.5 -42t40.5 -99q0 -67 -37.5 -155.5t-175.5 -303.5q-177 -275 -347 -476q-109 -128 -176 -184.5t-139 -89.5q-43 -19 -85 -19q-57 0 -97.5 40t-40.5 95z" />
<glyph unicode="z" horiz-adv-x="797" d="M-21 0l580 688h-208q-89 0 -128.5 -22t-74.5 -86h-43l83 319h625l-568 -671q64 -19 95 -57q40 -50 58 -149.5t41 -126t47 -26.5q16 0 30 14.5t14 32.5q0 19 -12 62q-8 29 -8 56q0 56 35.5 94t85.5 38q45 0 75.5 -33.5t30.5 -87.5q0 -83 -76 -151t-187 -68 q-128 0 -251 118q-50 47 -81 64q-18 9 -46 9q-24 0 -53 -17h-64z" />
<glyph unicode="{" horiz-adv-x="713" d="M87 -160q0 83 85.5 236.5t85.5 235.5q0 57 -35 95t-110 50l17 61q86 14 148 58.5t94 114.5t38.5 211t36.5 207t104.5 135.5t167 104t215.5 38.5l-13 -45q-92 -17 -152.5 -59.5t-86.5 -102.5t-33.5 -196.5t-39.5 -207t-94.5 -131t-137.5 -98.5q-57 -28 -174 -58 q121 -41 169 -87q75 -71 75 -176q0 -79 -80.5 -227.5t-80.5 -222.5q0 -56 31 -91t114 -52l-13 -47q-98 -1 -150 17q-86 29 -133.5 90.5t-47.5 146.5z" />
<glyph unicode="|" horiz-adv-x="451" d="M159 -442v1829h130v-1829h-130z" />
<glyph unicode="}" horiz-adv-x="713" d="M-191 -414l13 46q92 17 152.5 59t86.5 102.5t33.5 197t39.5 207t94.5 130.5t137.5 99q57 28 174 58q-121 41 -169 87q-75 71 -75 175q0 79 80.5 228t80.5 223q0 56 -31 91t-114 52l13 46q98 1 150 -16q86 -29 133.5 -90.5t47.5 -146.5q0 -83 -85.5 -236.5t-85.5 -235.5 q0 -57 35 -95t110 -50l-17 -61q-86 -14 -148 -58.5t-94 -115t-38 -211t-36.5 -206.5t-105 -135.5t-167 -104t-215.5 -39.5z" />
<glyph unicode="~" horiz-adv-x="1167" d="M39 387q8 164 81.5 243.5t178.5 79.5q53 0 104 -14q101 -29 279 -105q96 -42 147 -56q30 -8 65 -8q71 0 119.5 47t57.5 135h57q-6 -159 -82.5 -241t-186.5 -82q-53 0 -112.5 17t-262.5 102q-146 61 -211 61q-68 0 -113.5 -41.5t-62.5 -137.5h-58z" />
<glyph unicode="&#xa1;" horiz-adv-x="797" d="M40 -311q0 44 17 97t105 236q146 306 230 537h38q-49 -264 -73 -537.5t-74.5 -368.5t-131.5 -95q-44 0 -77.5 38.5t-33.5 92.5zM321 811q0 68 47.5 115.5t115.5 47.5t115.5 -47.5t47.5 -115.5q0 -67 -47.5 -115t-115.5 -48q-67 0 -115 48t-48 115z" />
<glyph unicode="&#xa2;" d="M109 261q0 162 80 312t219 252q89 65 228 102l119 392h69l-118 -392q115 -2 168 -39q73 -52 73 -138q0 -65 -43.5 -111.5t-96.5 -46.5q-45 0 -75.5 29.5t-30.5 69.5q0 56 56 98q35 26 35 48q0 17 -14 27q-20 16 -52 16q-14 0 -36 -3l-224 -748q61 -22 91 -22 q41 0 120 32.5t147 102.5l29 -30q-81 -93 -149 -142.5t-131 -70.5t-153 -24l-106 -356h-70l108 356q-93 20 -139.5 53.5t-75 98t-28.5 134.5zM365 321q0 -68 47 -148l201 674q-59 -38 -94 -82q-64 -80 -109 -200.5t-45 -243.5z" />
<glyph unicode="&#xa3;" d="M73 124q0 89 61 145.5t181 57.5q3 86 15 285h-181l45 147h148q62 332 189 478.5t322 146.5q109 0 165.5 -47.5t56.5 -110.5q0 -50 -35.5 -85.5t-83.5 -35.5q-47 0 -83 33q-28 26 -28 70q0 23 9 41q15 30 15 38q0 10 -13 21t-36 11q-47 0 -76 -48q-18 -32 -56 -212 q-50 -233 -67 -300h214l-46 -147h-203q-59 -177 -116 -315q51 -19 168 -76t177 -57q51 0 94 63h38q-55 -135 -137.5 -195t-188.5 -60q-59 0 -113.5 19t-147.5 75q-28 -47 -64 -70.5t-79 -23.5q-59 0 -101.5 43t-42.5 109zM143 99q0 -28 16.5 -45t40.5 -17t39 12.5t43 69.5 q-54 38 -85 38q-21 0 -37.5 -16.5t-16.5 -41.5z" />
<glyph unicode="&#xa4;" d="M61 1070l93 92l133 -135q124 90 261 90q134 0 271 -90l138 135l89 -87l-140 -140q87 -122 87 -260q0 -135 -87 -265l129 -128l-92 -91l-130 129q-80 -50 -136.5 -67.5t-126.5 -17.5q-74 0 -132.5 19t-130.5 66l-133 -129l-88 91l131 128q-88 117 -88 261q0 70 22 140 t66 124zM237 675q0 -130 92 -221.5t221 -91.5q130 0 221.5 91.5t91.5 221.5q0 129 -91.5 220.5t-221.5 91.5t-221.5 -91.5t-91.5 -220.5z" />
<glyph unicode="&#xa5;" d="M-19 348l21 67h379l55 193l-2 10h-388l21 67h354l-84 444q-23 120 -54 158q-21 26 -74 32l12 37h515l-10 -37q-80 -6 -107.5 -31t-27.5 -69q0 -41 15 -124l76 -410l238 365q90 137 90 202q0 24 -23 44t-77 23l10 37h338l-11 -37q-31 -2 -54 -19q-31 -22 -85 -104 l-340 -511h334l-22 -67h-357l-41 -61l-39 -142h394l-22 -67h-391l-27 -98q-25 -90 -25 -123q0 -22 16.5 -44.5t45 -34t102.5 -11.5l-10 -37h-646l12 37q108 0 154.5 36.5t80.5 157.5l34 117h-380z" />
<glyph unicode="&#xa6;" horiz-adv-x="451" d="M159 289h130v-731h-130v731zM159 657v730h130v-730h-130z" />
<glyph unicode="&#xa7;" d="M-28 -167q0 55 33 89t81 34q46 0 77 -32t31 -85q0 -25 -6 -51q-10 -46 -10 -63q0 -38 39 -70.5t113 -32.5q99 0 156.5 52t57.5 122q0 67 -34 123q-35 56 -167.5 161t-188.5 206q-41 75 -41 160q0 120 65.5 222t192.5 189q-30 47 -45.5 92t-15.5 87q0 144 110.5 247.5 t289.5 103.5q169 0 272 -89.5t103 -200.5q0 -50 -32.5 -84t-80.5 -34q-50 0 -80.5 31t-30.5 87q0 26 5 52q9 44 9 60q0 41 -39 74.5t-115 33.5q-99 0 -157 -54.5t-58 -125.5q0 -65 36 -122t171.5 -166t190.5 -211q42 -77 42 -164q0 -115 -64.5 -214.5t-196.5 -191.5 q27 -52 40.5 -96.5t13.5 -81.5q0 -129 -113 -230.5t-289 -101.5q-162 0 -263.5 87t-101.5 188zM281 592q0 -67 36 -129t165 -177q86 -76 168 -165q73 60 103 111.5t30 110.5q0 72 -39.5 136.5t-181.5 181.5q-90 74 -160 152q-121 -108 -121 -221z" />
<glyph unicode="&#xa8;" horiz-adv-x="682" d="M185 1214q0 55 39 94t94 39t94 -39t39 -94t-39 -94t-94 -39t-94 39t-39 94zM558 1214q0 54 38.5 93t93.5 39t93.5 -39t38.5 -93q0 -55 -39 -93.5t-93 -38.5q-55 0 -93.5 38.5t-38.5 93.5z" />
<glyph unicode="&#xa9;" horiz-adv-x="1530" d="M110 678q0 185 95.5 355.5t265.5 262t348 91.5q179 0 349 -91.5t265.5 -262t95.5 -355.5q0 -184 -94 -353t-263 -262.5t-353 -93.5t-352.5 93.5t-262.5 262.5t-94 353zM199 678q0 -161 82 -308.5t230 -229.5t308 -82q161 0 308.5 82t229.5 229.5t82 308.5t-83 310.5 t-231.5 229.5t-305.5 80q-156 0 -304.5 -80t-232 -229.5t-83.5 -310.5zM387 668q0 191 125 315t315 124q86 0 197 -40q32 -12 46 -12q18 0 30.5 12t15.5 39h38v-264h-38q-20 101 -87.5 158.5t-158.5 57.5q-110 0 -184 -87.5t-74 -276.5q0 -202 72.5 -288t180.5 -86 q148 0 261 138v-70q-121 -127 -318 -127q-188 0 -304.5 113.5t-116.5 293.5z" />
<glyph unicode="&#xaa;" horiz-adv-x="545" d="M140 950q0 162 119 298t223 136q38 0 59 -18.5t31 -68.5l21 70l158 8l-124 -396q-16 -50 -16 -63q0 -7 5.5 -12.5t12.5 -5.5q9 0 18 7q24 17 65 67l23 -13q-90 -148 -206 -148q-43 0 -64 19.5t-21 47.5q0 23 14 67l21 64q-80 -125 -128 -161.5t-99 -36.5 q-49 0 -80.5 36.5t-31.5 102.5zM309 983q0 -29 15 -48q8 -12 23 -12q58 0 126.5 125t68.5 223q0 40 -16 62q-11 14 -31 14q-28 0 -53 -21.5t-79 -148.5t-54 -194z" />
<glyph unicode="&#xab;" d="M83 450l442 461h64l-257 -461l59 -460h-59zM508 450l441 461h61l-256 -461l64 -460h-64z" />
<glyph unicode="&#xac;" horiz-adv-x="1241" d="M73 774v128h1094v-455h-129v329z" />
<glyph unicode="&#xad;" horiz-adv-x="682" d="M13 345l65 208h582l-62 -208h-585z" />
<glyph unicode="&#xae;" horiz-adv-x="1530" d="M110 678q0 185 95.5 355.5t265.5 262t348 91.5q179 0 349 -91.5t265.5 -262t95.5 -355.5q0 -184 -94 -353t-263 -262.5t-353 -93.5t-352.5 93.5t-262.5 262.5t-94 353zM199 678q0 -161 82 -308.5t230 -229.5t308 -82q161 0 308.5 82t229.5 229.5t82 308.5t-83 310.5 t-231.5 229.5t-305.5 80q-156 0 -304.5 -80t-232 -229.5t-83.5 -310.5zM424 281v34q62 0 80 21q25 29 25 115v472q0 82 -17.5 104.5t-71.5 28.5v34h362q183 0 254 -44q101 -63 101 -175q0 -71 -44.5 -126.5t-134.5 -80.5l137 -250q30 -54 62 -81q15 -13 43 -18v-34h-242 l-205 368h-46v-198q0 -85 22.5 -109t97.5 -27v-34h-423zM727 700q34 -5 57 -5q65 0 111.5 49t46.5 131q0 84 -43.5 127.5t-133.5 43.5h-38v-346z" />
<glyph unicode="&#xaf;" d="M257 1462v131h1062v-131h-1062z" />
<glyph unicode="&#xb0;" horiz-adv-x="819" d="M180 1038q0 144 101 245t245 101t245 -101t101 -245q0 -143 -101.5 -244.5t-244.5 -101.5t-244.5 101.5t-101.5 244.5zM311 1039q0 -89 63 -152t152 -63t152 63t63 152t-63 152t-152 63q-90 0 -152.5 -63t-62.5 -152z" />
<glyph unicode="&#xb1;" horiz-adv-x="1124" d="M30 267h482v345h-481v132h481v480h131v-480h481v-132h-481l1 -344h480v-132h-1093z" />
<glyph unicode="&#xb2;" horiz-adv-x="614" d="M101 664v27q303 242 384 357q40 58 40 122q0 46 -29 73.5t-78 27.5q-76 0 -135 -81l-40 16q36 88 101 133t150 45q96 0 153 -49.5t57 -110.5q0 -82 -75 -166.5t-316 -263.5h131q73 0 98.5 13.5t52.5 59.5h52l-100 -203h-446z" />
<glyph unicode="&#xb3;" horiz-adv-x="614" d="M111 721q0 25 17 39q26 21 61 21q33 0 96 -38q46 -27 74 -27q30 0 56 33q35 45 35 111q0 90 -63 140q-41 32 -138 41l11 33q144 17 213 72q46 37 46 85q0 32 -23.5 54.5t-61.5 22.5q-30 0 -56 -15t-60 -55l-42 18q52 68 104 98t121 30q87 0 137 -42t50 -93q0 -56 -40 -94 q-53 -53 -148 -68q62 -29 85 -59q36 -47 36 -106q0 -103 -100.5 -188t-262.5 -85q-82 0 -121 27q-26 18 -26 45z" />
<glyph unicode="&#xb4;" horiz-adv-x="682" d="M402 1037l119 350h308l-337 -350h-90z" />
<glyph unicode="&#xb5;" horiz-adv-x="1180" d="M-128 -335q0 64 73.5 184t97.5 176t66 199l195 675h255l-161 -557q-24 -83 -26 -90q-7 -36 -7 -61q0 -32 20.5 -52.5t49.5 -20.5q57 0 126 73q92 97 161 335l107 373h255l-179 -616q-33 -111 -33 -143q0 -23 15.5 -39.5t34.5 -16.5q18 0 38 20q40 37 76 120l36 -19 q-43 -123 -112.5 -178t-153.5 -55q-76 0 -121.5 45.5t-45.5 119.5q0 36 7 87q-113 -157 -199 -210q-66 -42 -145 -42q-58 0 -99 25q-25 14 -54 63q-25 -76 -35 -131.5t-14.5 -148.5t-15.5 -127q-15 -47 -47 -71.5t-68 -24.5q-40 0 -68.5 30.5t-28.5 77.5z" />
<glyph unicode="&#xb6;" d="M-40 903q0 102 25 168.5t79.5 127t111.5 93.5t131 46q96 18 321 18h440v-44h-44q-59 0 -89 -18t-45 -52q-11 -25 -11 -133v-1551h-99v1722h-182v-1722h-100v871q-186 8 -301.5 62t-176 164.5t-60.5 247.5z" />
<glyph unicode="&#xb7;" horiz-adv-x="512" d="M155 681q0 68 48 116.5t117 48.5q68 0 116 -48.5t48 -116.5t-48 -116t-116 -48q-69 0 -117 48t-48 116z" />
<glyph unicode="&#xb8;" horiz-adv-x="682" d="M11 -346l12 31q75 -14 112 -14q67 0 103 30.5t36 72.5q0 35 -23 58.5t-53 23.5q-22 0 -55 -8l-13 30l168 122h76l-69 -52q82 -11 121.5 -52.5t39.5 -99.5q0 -70 -62.5 -121t-199.5 -51q-111 0 -193 30z" />
<glyph unicode="&#xb9;" horiz-adv-x="614" d="M123 664l11 31q84 2 108 18t47 86l116 346q30 89 30 105q0 20 -12 31.5t-37 11.5q-18 0 -70 -5l-8 31l353 65l-199 -591q-14 -42 -14 -54q0 -11 7.5 -22t17.5 -14q15 -6 52 -6l36 -2l-11 -31h-427z" />
<glyph unicode="&#xba;" horiz-adv-x="614" d="M176 981q0 93 56.5 191.5t155 155t191.5 56.5q87 0 138 -48t51 -124q0 -90 -56 -188t-154.5 -155.5t-193.5 -57.5q-89 0 -138.5 47t-49.5 123zM337 909q0 -29 18 -47.5t45 -18.5q28 0 48 19q53 49 106.5 178.5t53.5 244.5q0 32 -15.5 49.5t-38.5 17.5q-36 0 -59 -20 q-43 -38 -100.5 -174.5t-57.5 -248.5z" />
<glyph unicode="&#xbb;" d="M14 -10l256 461l-64 460h64l246 -460l-441 -461h-61zM435 -10l257 461l-59 460h59l249 -460l-443 -461h-63z" />
<glyph unicode="&#xbc;" horiz-adv-x="1536" d="M121 664l11 31q84 2 108 18t47 86l116 346q30 89 30 105q0 20 -12 31.5t-37 11.5q-18 0 -70 -5l-8 31l353 65l-199 -591q-14 -42 -14 -54q0 -11 7.5 -22t17.5 -14q15 -6 52 -6l36 -2l-11 -31h-427zM269 -59l959 1443h136l-963 -1443h-132zM830 101l32 94l484 480h98 l-160 -480h92l-35 -94h-90l-55 -160h-152l54 160h-268zM945 195h187l84 270z" />
<glyph unicode="&#xbd;" horiz-adv-x="1536" d="M121 664l11 31q84 2 108 18t47 86l116 346q30 89 30 105q0 20 -12 31.5t-37 11.5q-18 0 -70 -5l-8 31l353 65l-199 -591q-14 -42 -14 -54q0 -11 7.5 -22t17.5 -14q15 -6 52 -6q1 0 36 -2l-11 -31h-427zM221 -59l959 1443h136l-963 -1443h-132zM816 -18q253 202 358 325 q67 78 67 155q0 45 -29 73t-78 28q-76 0 -135 -82l-40 17q35 88 100 132.5t151 44.5q96 0 153 -49t57 -111q0 -81 -75 -166t-317 -263h131q73 0 98.5 13.5t53.5 59.5h51l-99 -204h-447v27z" />
<glyph unicode="&#xbe;" horiz-adv-x="1536" d="M109 721q0 25 17 39q26 21 61 21q33 0 96 -38q46 -27 74 -27q30 0 56 33q35 45 35 111q0 90 -63 140q-41 32 -138 41l11 33q144 17 213 72q46 37 46 85q0 32 -23.5 54.5t-61.5 22.5q-30 0 -56 -15t-60 -55l-42 18q52 68 104 98t121 30q87 0 137 -42t50 -93q0 -56 -40 -94 q-53 -53 -148 -68q62 -29 85 -59q36 -47 36 -106q0 -103 -100.5 -188t-262.5 -85q-82 0 -121 27q-26 18 -26 45zM268 -59l959 1443h137l-963 -1443h-133zM830 101l31 94l484 480h98l-160 -480h93l-36 -94h-90l-54 -160h-153l54 160h-267zM944 195h187l84 270z" />
<glyph unicode="&#xbf;" d="M9 -167q0 102 51 181q72 110 248.5 219.5t226 170.5t65.5 160h40q0 -107 -34 -183t-182 -250q-104 -124 -145 -220q-27 -64 -27 -134q0 -85 40 -130.5t100 -45.5q43 0 68.5 22.5t25.5 49.5q0 18 -18 50q-35 63 -35 109q0 51 39.5 89.5t95.5 38.5q58 0 98.5 -42.5 t40.5 -114.5q0 -118 -100 -181.5t-233 -63.5q-111 0 -195.5 36.5t-127 102t-42.5 136.5zM476 811q0 68 47.5 116t116.5 48q68 0 115.5 -48t47.5 -116t-48 -116t-115 -48q-68 0 -116 48t-48 116z" />
<glyph unicode="&#xc0;" horiz-adv-x="1366" d="M-116 0l10 37q54 9 96 38q56 40 161 165l961 1147h45l-45 -1110q-3 -87 -3 -105q0 -68 27.5 -99t91.5 -36l-10 -37h-587l11 37q87 8 100 14q28 14 51 58.5t28 154.5l9 173h-420l-84 -104l-96 -115q-28 -37 -41 -67q-10 -23 -10 -46q0 -24 25.5 -44.5t84.5 -23.5v-37h-405 zM479 519h351l26 442zM876 1808h294l107 -347h-78z" />
<glyph unicode="&#xc1;" horiz-adv-x="1366" d="M-116 0l10 37q54 9 96 38q56 40 161 165l961 1147h45l-45 -1110q-3 -87 -3 -105q0 -68 27.5 -99t91.5 -36l-10 -37h-587l11 37q87 8 100 14q28 14 51 58.5t28 154.5l9 173h-420l-84 -104l-96 -115q-28 -37 -41 -67q-10 -23 -10 -46q0 -24 25.5 -44.5t84.5 -23.5v-37h-405 zM479 519h351l26 442zM1083 1437l119 350h308l-337 -350h-90z" />
<glyph unicode="&#xc2;" horiz-adv-x="1366" d="M-116 0l10 37q54 9 96 38q56 40 161 165l961 1147h45l-45 -1110q-3 -87 -3 -105q0 -68 27.5 -99t91.5 -36l-10 -37h-587l11 37q87 8 100 14q28 14 51 58.5t28 154.5l9 173h-420l-84 -104l-96 -115q-28 -37 -41 -67q-10 -23 -10 -46q0 -24 25.5 -44.5t84.5 -23.5v-37h-405 zM479 519h351l26 442zM768 1453l306 340h227l102 -340h-102l-134 203l-294 -203h-105z" />
<glyph unicode="&#xc3;" horiz-adv-x="1366" d="M-116 0l10 37q54 9 96 38q56 40 161 165l961 1147h45l-45 -1110q-3 -87 -3 -105q0 -68 27.5 -99t91.5 -36l-10 -37h-587l11 37q87 8 100 14q28 14 51 58.5t28 154.5l9 173h-420l-84 -104l-96 -115q-28 -37 -41 -67q-10 -23 -10 -46q0 -24 25.5 -44.5t84.5 -23.5v-37h-405 zM479 519h351l26 442zM815 1486q8 144 67 210.5t134 66.5q79 0 212 -64q56 -26 81 -26q30 0 50 20.5t26 69.5h63q-2 -138 -60.5 -208t-131.5 -70q-70 0 -212 65q-59 27 -87 27t-48.5 -21t-27.5 -70h-66z" />
<glyph unicode="&#xc4;" horiz-adv-x="1366" d="M-116 0l10 37q54 9 96 38q56 40 161 165l961 1147h45l-45 -1110q-3 -87 -3 -105q0 -68 27.5 -99t91.5 -36l-10 -37h-587l11 37q87 8 100 14q28 14 51 58.5t28 154.5l9 173h-420l-84 -104l-96 -115q-28 -37 -41 -67q-10 -23 -10 -46q0 -24 25.5 -44.5t84.5 -23.5v-37h-405 zM479 519h351l26 442zM840 1610q0 55 39 94t94 39t94 -39t39 -94t-39 -94t-94 -39t-94 39t-39 94zM1213 1610q0 54 38.5 93t93.5 39t93.5 -39t38.5 -93q0 -55 -39 -93.5t-93 -38.5q-55 0 -93.5 38.5t-38.5 93.5z" />
<glyph unicode="&#xc5;" horiz-adv-x="1366" d="M-116 0l10 37q54 9 96 38q56 40 161 165l961 1147h45l-45 -1110q-3 -87 -3 -105q0 -68 27.5 -99t91.5 -36l-10 -37h-587l11 37q87 8 100 14q28 14 51 58.5t28 154.5l9 173h-420l-84 -104l-96 -115q-28 -37 -41 -67q-10 -23 -10 -46q0 -24 25.5 -44.5t84.5 -23.5v-37h-405 zM479 519h351l26 442zM930 1521q0 86 60.5 147t147.5 61t147.5 -61t60.5 -147t-60.5 -147t-147.5 -61q-86 0 -147 61t-61 147zM1005 1521q0 -55 39 -94t94 -39q56 0 95 39t39 94t-39 94t-95 39q-55 0 -94 -39t-39 -94z" />
<glyph unicode="&#xc6;" horiz-adv-x="1933" d="M-115 0l11 37q56 13 97 44q60 43 150 155l708 874q61 75 69 91q13 26 13 51q0 29 -27.5 47t-140.5 20l15 37h1183l-84 -341h-39q0 128 -78.5 196.5t-286.5 68.5h-98l-156 -529h47q173 0 255 47.5t140 169.5h38l-153 -526h-36q9 40 9 63q0 52 -29 102q-22 38 -63 53 t-167 15h-62l-120 -408q-27 -90 -27 -125q0 -26 23 -43.5t81 -17.5q193 0 336 71.5t268 216.5h40l-138 -369h-1107l11 37q90 0 129 32.5t84 173.5l71 220h-428l-132 -159q-109 -131 -109 -201q0 -27 21 -43.5t88 -22.5v-37h-406zM487 543h385l215 737z" />
<glyph unicode="&#xc7;" horiz-adv-x="1366" d="M134 505q0 224 119 427.5t342.5 329t444.5 125.5q84 0 209 -36q64 -18 89 -18q50 0 101 54h37l-100 -431h-39q-7 176 -86.5 262.5t-207.5 86.5q-138 0 -275 -118t-232 -361q-77 -197 -77 -389q0 -172 84.5 -262.5t231.5 -90.5q119 0 217 52t198 169h48 q-124 -186 -250.5 -261t-309.5 -75q-245 0 -394.5 148.5t-149.5 387.5zM378 -346l12 31q75 -14 112 -14q67 0 103 30.5t36 72.5q0 35 -23 58.5t-53 23.5q-22 0 -55 -8l-13 30l168 122h76l-69 -52q82 -11 121.5 -52.5t39.5 -99.5q0 -70 -62.5 -121t-199.5 -51q-111 0 -193 30 z" />
<glyph unicode="&#xc8;" horiz-adv-x="1366" d="M-72 0l12 37q102 0 149 38.5t85 169.5l255 873q21 73 21 115q0 38 -27 58.5t-123 27.5l11 37h1081l-87 -339h-36q-4 100 -31 141q-42 64 -111.5 93.5t-225.5 29.5h-127l-151 -526h46q182 0 265.5 48t141.5 170h37l-152 -528h-35q9 53 9 86q0 55 -32.5 90t-84.5 50 q-34 10 -141 10h-78l-130 -455q-17 -60 -17 -89q0 -23 22 -37q32 -20 121 -20q171 0 322 72.5t271 219.5h41l-141 -372h-1160zM634 1808h294l107 -347h-78z" />
<glyph unicode="&#xc9;" horiz-adv-x="1366" d="M-72 0l12 37q102 0 149 38.5t85 169.5l255 873q21 73 21 115q0 38 -27 58.5t-123 27.5l11 37h1081l-87 -339h-36q-4 100 -31 141q-42 64 -111.5 93.5t-225.5 29.5h-127l-151 -526h46q182 0 265.5 48t141.5 170h37l-152 -528h-35q9 53 9 86q0 55 -32.5 90t-84.5 50 q-34 10 -141 10h-78l-130 -455q-17 -60 -17 -89q0 -23 22 -37q32 -20 121 -20q171 0 322 72.5t271 219.5h41l-141 -372h-1160zM842 1437l119 350h308l-337 -350h-90z" />
<glyph unicode="&#xca;" horiz-adv-x="1366" d="M-72 0l12 37q102 0 149 38.5t85 169.5l255 873q21 73 21 115q0 38 -27 58.5t-123 27.5l11 37h1081l-87 -339h-36q-4 100 -31 141q-42 64 -111.5 93.5t-225.5 29.5h-127l-151 -526h46q182 0 265.5 48t141.5 170h37l-152 -528h-35q9 53 9 86q0 55 -32.5 90t-84.5 50 q-34 10 -141 10h-78l-130 -455q-17 -60 -17 -89q0 -23 22 -37q32 -20 121 -20q171 0 322 72.5t271 219.5h41l-141 -372h-1160zM587 1453l306 340h227l102 -340h-102l-134 203l-294 -203h-105z" />
<glyph unicode="&#xcb;" horiz-adv-x="1366" d="M-72 0l12 37q102 0 149 38.5t85 169.5l255 873q21 73 21 115q0 38 -27 58.5t-123 27.5l11 37h1081l-87 -339h-36q-4 100 -31 141q-42 64 -111.5 93.5t-225.5 29.5h-127l-151 -526h46q182 0 265.5 48t141.5 170h37l-152 -528h-35q9 53 9 86q0 55 -32.5 90t-84.5 50 q-34 10 -141 10h-78l-130 -455q-17 -60 -17 -89q0 -23 22 -37q32 -20 121 -20q171 0 322 72.5t271 219.5h41l-141 -372h-1160zM634 1610q0 55 39 94t94 39t94 -39t39 -94t-39 -94t-94 -39t-94 39t-39 94zM1007 1610q0 54 38.5 93t93.5 39t93.5 -39t38.5 -93q0 -55 -39 -93.5 t-93 -38.5q-55 0 -93.5 38.5t-38.5 93.5z" />
<glyph unicode="&#xcc;" horiz-adv-x="797" d="M-72 0l11 37q101 0 148 38.5t85 168.5l250 868q23 80 23 121q0 37 -28 58t-134 28l11 37h662l-13 -37q-90 0 -137.5 -40t-83.5 -167l-248 -868q-27 -92 -27 -123q0 -36 28 -56q36 -26 136 -28l-10 -37h-673zM407 1808h294l107 -347h-78z" />
<glyph unicode="&#xcd;" horiz-adv-x="797" d="M-72 0l11 37q101 0 148 38.5t85 168.5l250 868q23 80 23 121q0 37 -28 58t-134 28l11 37h662l-13 -37q-90 0 -137.5 -40t-83.5 -167l-248 -868q-27 -92 -27 -123q0 -36 28 -56q36 -26 136 -28l-10 -37h-673zM606 1437l119 350h308l-337 -350h-90z" />
<glyph unicode="&#xce;" horiz-adv-x="797" d="M-72 0l11 37q101 0 148 38.5t85 168.5l250 868q23 80 23 121q0 37 -28 58t-134 28l11 37h662l-13 -37q-90 0 -137.5 -40t-83.5 -167l-248 -868q-27 -92 -27 -123q0 -36 28 -56q36 -26 136 -28l-10 -37h-673zM324 1453l306 340h227l102 -340h-102l-134 203l-294 -203h-105 z" />
<glyph unicode="&#xcf;" horiz-adv-x="797" d="M-72 0l11 37q101 0 148 38.5t85 168.5l250 868q23 80 23 121q0 37 -28 58t-134 28l11 37h662l-13 -37q-90 0 -137.5 -40t-83.5 -167l-248 -868q-27 -92 -27 -123q0 -36 28 -56q36 -26 136 -28l-10 -37h-673zM359 1610q0 55 39 94t94 39t94 -39t39 -94t-39 -94t-94 -39 t-94 39t-39 94zM732 1610q0 54 38.5 93t93.5 39t93.5 -39t38.5 -93q0 -55 -39 -93.5t-93 -38.5q-55 0 -93.5 38.5t-38.5 93.5z" />
<glyph unicode="&#xd0;" horiz-adv-x="1479" d="M-66 0l10 38q97 0 144.5 38t80.5 152l126 448h-176l22 76h179l95 334q31 107 31 149q0 38 -33 62.5t-130 25.5l12 33h458q369 0 533 -149.5t164 -415.5q0 -190 -77 -318q-149 -250 -352 -361.5t-521 -111.5h-566zM455 152q0 -33 27.5 -55t92.5 -22q231 0 394 263 q142 227 142 513q0 218 -97.5 325.5t-239.5 102.5l-154 -527h308l-23 -76h-306l-125 -429q-19 -66 -19 -95z" />
<glyph unicode="&#xd1;" horiz-adv-x="1479" d="M-66 0l9 37q57 0 81 10q42 16 82 61.5t65 131.5l287 985q-53 59 -89 76t-108 18l11 37h458l424 -904l191 656q15 54 15 96q0 50 -31.5 80t-108.5 35l11 37h430l-10 -37q-82 -5 -135.5 -46t-90.5 -165l-331 -1123h-38l-544 1156l-263 -901q-13 -47 -13 -84 q0 -54 35.5 -86.5t113.5 -32.5l-9 -37h-442zM682 1447q8 144 67 210.5t134 66.5q79 0 212 -64q56 -26 81 -26q30 0 50 20.5t26 69.5h63q-2 -138 -60.5 -208t-131.5 -70q-70 0 -212 65q-59 27 -87 27t-48.5 -21t-27.5 -70h-66z" />
<glyph unicode="&#xd2;" horiz-adv-x="1479" d="M109 444q0 222 127 447.5t342.5 361t425.5 135.5q123 0 233.5 -62t172 -173t61.5 -224q0 -253 -161 -507.5t-362 -368.5q-152 -85 -372 -85q-164 0 -265 67t-151.5 183t-50.5 226zM428 295q0 -122 53 -184.5t136 -62.5q110 0 187 73q153 145 249.5 425.5t96.5 499.5 q0 137 -51.5 198.5t-127.5 61.5q-79 0 -134.5 -28.5t-115.5 -95.5t-122 -191.5t-116.5 -338.5t-54.5 -357zM736 1808h294l107 -347h-78z" />
<glyph unicode="&#xd3;" horiz-adv-x="1479" d="M109 444q0 222 127 447.5t342.5 361t425.5 135.5q123 0 233.5 -62t172 -173t61.5 -224q0 -253 -161 -507.5t-362 -368.5q-152 -85 -372 -85q-164 0 -265 67t-151.5 183t-50.5 226zM428 295q0 -122 53 -184.5t136 -62.5q110 0 187 73q153 145 249.5 425.5t96.5 499.5 q0 137 -51.5 198.5t-127.5 61.5q-79 0 -134.5 -28.5t-115.5 -95.5t-122 -191.5t-116.5 -338.5t-54.5 -357zM883 1466l119 350h308l-337 -350h-90z" />
<glyph unicode="&#xd4;" horiz-adv-x="1479" d="M109 444q0 222 127 447.5t342.5 361t425.5 135.5q123 0 233.5 -62t172 -173t61.5 -224q0 -253 -161 -507.5t-362 -368.5q-152 -85 -372 -85q-164 0 -265 67t-151.5 183t-50.5 226zM428 295q0 -122 53 -184.5t136 -62.5q110 0 187 73q153 145 249.5 425.5t96.5 499.5 q0 137 -51.5 198.5t-127.5 61.5q-79 0 -134.5 -28.5t-115.5 -95.5t-122 -191.5t-116.5 -338.5t-54.5 -357zM654 1428l306 340h227l102 -340h-102l-134 203l-294 -203h-105z" />
<glyph unicode="&#xd5;" horiz-adv-x="1479" d="M109 444q0 222 127 447.5t342.5 361t425.5 135.5q123 0 233.5 -62t172 -173t61.5 -224q0 -253 -161 -507.5t-362 -368.5q-152 -85 -372 -85q-164 0 -265 67t-151.5 183t-50.5 226zM428 295q0 -122 53 -184.5t136 -62.5q110 0 187 73q153 145 249.5 425.5t96.5 499.5 q0 137 -51.5 198.5t-127.5 61.5q-79 0 -134.5 -28.5t-115.5 -95.5t-122 -191.5t-116.5 -338.5t-54.5 -357zM716 1447q8 144 67 210.5t134 66.5q79 0 212 -64q56 -26 81 -26q30 0 50 20.5t26 69.5h63q-2 -138 -60.5 -208t-131.5 -70q-70 0 -212 65q-59 27 -87 27t-48.5 -21 t-27.5 -70h-66z" />
<glyph unicode="&#xd6;" horiz-adv-x="1479" d="M109 444q0 222 127 447.5t342.5 361t425.5 135.5q123 0 233.5 -62t172 -173t61.5 -224q0 -253 -161 -507.5t-362 -368.5q-152 -85 -372 -85q-164 0 -265 67t-151.5 183t-50.5 226zM428 295q0 -122 53 -184.5t136 -62.5q110 0 187 73q153 145 249.5 425.5t96.5 499.5 q0 137 -51.5 198.5t-127.5 61.5q-79 0 -134.5 -28.5t-115.5 -95.5t-122 -191.5t-116.5 -338.5t-54.5 -357zM716 1585q0 55 39 94t94 39t94 -39t39 -94t-39 -94t-94 -39t-94 39t-39 94zM1089 1585q0 54 38.5 93t93.5 39t93.5 -39t38.5 -93q0 -55 -39 -93.5t-93 -38.5 q-55 0 -93.5 38.5t-38.5 93.5z" />
<glyph unicode="&#xd7;" horiz-adv-x="1167" d="M154 1019l93 93l340 -340l340 339l92 -92l-339 -340l340 -340l-93 -93l-340 340l-338 -337l-92 92l337 337z" />
<glyph unicode="&#xd8;" horiz-adv-x="1479" d="M85 21l123 125q-54 81 -76 146.5t-22 147.5q0 230 125.5 455t332.5 358.5t417 133.5q103 0 187 -31q65 -25 146 -90l118 121l52 -55l-121 -121q56 -81 79 -146t23 -140q0 -227 -134.5 -456.5t-344.5 -365t-420 -135.5q-94 0 -164 27.5t-149 95.5l-119 -122zM429 264 q16 -119 63.5 -166t125.5 -47q100 0 163 51q127 100 235.5 355t130.5 533zM429 370l718 722q-13 121 -60 168.5t-126 47.5q-97 0 -163 -48q-121 -88 -227 -329t-142 -561z" />
<glyph unicode="&#xd9;" horiz-adv-x="1479" d="M192 309q0 71 40 210l172 594q23 80 23 119q0 38 -28.5 59t-132.5 28l11 37h676l-12 -37q-98 0 -149.5 -42t-86.5 -164l-173 -594q-43 -149 -43 -239q0 -82 66 -143t184 -61q108 0 183.5 39.5t125.5 110.5q66 95 118 272l177 615q15 53 15 88q0 62 -44 95q-31 23 -128 23 l11 37h459l-9 -37q-79 -6 -122 -38q-69 -51 -103 -168l-180 -622q-84 -291 -228 -406.5t-366 -115.5q-126 0 -222 36t-141 81t-69 111.5t-24 111.5zM747 1808h294l107 -347h-78z" />
<glyph unicode="&#xda;" horiz-adv-x="1479" d="M192 309q0 71 40 210l172 594q23 80 23 119q0 38 -28.5 59t-132.5 28l11 37h676l-12 -37q-98 0 -149.5 -42t-86.5 -164l-173 -594q-43 -149 -43 -239q0 -82 66 -143t184 -61q108 0 183.5 39.5t125.5 110.5q66 95 118 272l177 615q15 53 15 88q0 62 -44 95q-31 23 -128 23 l11 37h459l-9 -37q-79 -6 -122 -38q-69 -51 -103 -168l-180 -622q-84 -291 -228 -406.5t-366 -115.5q-126 0 -222 36t-141 81t-69 111.5t-24 111.5zM858 1466l119 350h308l-337 -350h-90z" />
<glyph unicode="&#xdb;" horiz-adv-x="1479" d="M192 309q0 71 40 210l172 594q23 80 23 119q0 38 -28.5 59t-132.5 28l11 37h676l-12 -37q-98 0 -149.5 -42t-86.5 -164l-173 -594q-43 -149 -43 -239q0 -82 66 -143t184 -61q108 0 183.5 39.5t125.5 110.5q66 95 118 272l177 615q15 53 15 88q0 62 -44 95q-31 23 -128 23 l11 37h459l-9 -37q-79 -6 -122 -38q-69 -51 -103 -168l-180 -622q-84 -291 -228 -406.5t-366 -115.5q-126 0 -222 36t-141 81t-69 111.5t-24 111.5zM623 1428l306 340h227l102 -340h-102l-134 203l-294 -203h-105z" />
<glyph unicode="&#xdc;" horiz-adv-x="1479" d="M192 309q0 71 40 210l172 594q23 80 23 119q0 38 -28.5 59t-132.5 28l11 37h676l-12 -37q-98 0 -149.5 -42t-86.5 -164l-173 -594q-43 -149 -43 -239q0 -82 66 -143t184 -61q108 0 183.5 39.5t125.5 110.5q66 95 118 272l177 615q15 53 15 88q0 62 -44 95q-31 23 -128 23 l11 37h459l-9 -37q-79 -6 -122 -38q-69 -51 -103 -168l-180 -622q-84 -291 -228 -406.5t-366 -115.5q-126 0 -222 36t-141 81t-69 111.5t-24 111.5zM661 1585q0 55 39 94t94 39t94 -39t39 -94t-39 -94t-94 -39t-94 39t-39 94zM1034 1585q0 54 38.5 93t93.5 39t93.5 -39 t38.5 -93q0 -55 -39 -93.5t-93 -38.5q-55 0 -93.5 38.5t-38.5 93.5z" />
<glyph unicode="&#xdd;" horiz-adv-x="1251" d="M190 0l10 37q76 -1 122 20.5t69 55.5q16 24 47 128l104 358l-114 494q-29 128 -70 175q-31 36 -113 51l11 37h651l-12 -37q-95 0 -138.5 -38.5t-43.5 -91.5q0 -33 18 -115l88 -401l219 302q84 116 105 163.5t21 83.5t-27 63t-87 34l11 37h407v-37q-55 -6 -95 -36 t-156 -190l-385 -530l-90 -314q-29 -97 -29 -113q0 -43 33 -71t111 -28h38l-11 -37h-694zM922 1437l119 350h308l-337 -350h-90z" />
<glyph unicode="&#xde;" horiz-adv-x="1251" d="M-63 0l11 37q98 1 144 38t81 158l247 852q31 107 31 153q0 36 -29.5 57.5t-121.5 23.5l11 37h647l-11 -37q-93 1 -141 -36.5t-83 -154.5l-23 -77h44q123 0 174 -8q99 -15 167 -54t108.5 -106t40.5 -145q0 -120 -71.5 -223.5t-199.5 -157t-418 -53.5h-62l-10 -36 q-31 -108 -31 -146q0 -34 28 -55.5t123 -29.5l-9 -37h-647zM506 383q151 0 206 21q82 31 144.5 132.5t62.5 236.5q0 73 -31 120.5t-88 66.5q-32 11 -124 11z" />
<glyph unicode="&#xdf;" d="M-349 -333q0 37 30 64.5t79 27.5q40 0 58 -17q23 -23 23 -54q0 -19 -13 -35q-19 -24 -19 -32q0 -5 6 -10q8 -6 17 -6q19 0 34.5 7.5t25.5 19.5q23 27 43 73q12 27 58 181l78 262l161 607q78 297 137 402t159 167.5t221 62.5q143 0 215 -67.5t72 -180.5q0 -103 -54 -185 t-148 -128q-64 -32 -193 -49q111 -21 163.5 -55.5t86 -101.5t33.5 -144q0 -210 -141 -378q-106 -126 -244 -126q-76 0 -119.5 42.5t-43.5 107.5q0 52 27.5 83t63.5 31q26 0 43 -19.5t17 -51.5q0 -36 -14 -72.5t-14 -56.5q0 -10 7 -17t18 -7q18 0 27 10q21 21 68 197 q72 269 72 366q0 52 -17 100q-11 30 -36 49q-16 12 -62 21l12 37q75 24 109 58q52 51 90 151t38 212q0 66 -26 96t-62 30q-51 0 -92 -63.5t-105 -307.5l-162 -616q-94 -358 -145 -469q-71 -150 -181.5 -237.5t-245.5 -87.5q-78 0 -116.5 33t-38.5 76z" />
<glyph unicode="&#xe0;" d="M40 218q0 141 86 323.5t226 293.5q115 92 216 92q56 0 90 -32.5t50 -118.5l36 123l237 14l-194 -665l-20 -81q-3 -15 -3 -22q0 -12 8.5 -21t17.5 -9q21 0 58 32q15 13 72 92l35 -18q-71 -130 -151.5 -189.5t-173.5 -59.5q-57 0 -87 29.5t-30 74.5q0 39 32 145l24 81 q-116 -199 -223 -282q-62 -48 -132 -48q-92 0 -133 75.5t-41 170.5zM301 256q0 -53 17.5 -76.5t38.5 -23.5q45 0 91 52q66 74 119 181q94 188 94 334q0 81 -25 117q-18 25 -49 25t-64 -30q-67 -62 -144.5 -251.5t-77.5 -327.5zM427 1387h294l107 -347h-78z" />
<glyph unicode="&#xe1;" d="M40 218q0 141 86 323.5t226 293.5q115 92 216 92q56 0 90 -32.5t50 -118.5l36 123l237 14l-194 -665l-20 -81q-3 -15 -3 -22q0 -12 8.5 -21t17.5 -9q21 0 58 32q15 13 72 92l35 -18q-71 -130 -151.5 -189.5t-173.5 -59.5q-57 0 -87 29.5t-30 74.5q0 39 32 145l24 81 q-116 -199 -223 -282q-62 -48 -132 -48q-92 0 -133 75.5t-41 170.5zM301 256q0 -53 17.5 -76.5t38.5 -23.5q45 0 91 52q66 74 119 181q94 188 94 334q0 81 -25 117q-18 25 -49 25t-64 -30q-67 -62 -144.5 -251.5t-77.5 -327.5zM562 1037l119 350h308l-337 -350h-90z" />
<glyph unicode="&#xe2;" d="M40 218q0 141 86 323.5t226 293.5q115 92 216 92q56 0 90 -32.5t50 -118.5l36 123l237 14l-194 -665l-20 -81q-3 -15 -3 -22q0 -12 8.5 -21t17.5 -9q21 0 58 32q15 13 72 92l35 -18q-71 -130 -151.5 -189.5t-173.5 -59.5q-57 0 -87 29.5t-30 74.5q0 39 32 145l24 81 q-116 -199 -223 -282q-62 -48 -132 -48q-92 0 -133 75.5t-41 170.5zM301 256q0 -53 17.5 -76.5t38.5 -23.5q45 0 91 52q66 74 119 181q94 188 94 334q0 81 -25 117q-18 25 -49 25t-64 -30q-67 -62 -144.5 -251.5t-77.5 -327.5zM321 1047l306 340h227l102 -340h-102l-134 203 l-294 -203h-105z" />
<glyph unicode="&#xe3;" d="M40 218q0 141 86 323.5t226 293.5q115 92 216 92q56 0 90 -32.5t50 -118.5l36 123l237 14l-194 -665l-20 -81q-3 -15 -3 -22q0 -12 8.5 -21t17.5 -9q21 0 58 32q15 13 72 92l35 -18q-71 -130 -151.5 -189.5t-173.5 -59.5q-57 0 -87 29.5t-30 74.5q0 39 32 145l24 81 q-116 -199 -223 -282q-62 -48 -132 -48q-92 0 -133 75.5t-41 170.5zM301 256q0 -53 17.5 -76.5t38.5 -23.5q45 0 91 52q66 74 119 181q94 188 94 334q0 81 -25 117q-18 25 -49 25t-64 -30q-67 -62 -144.5 -251.5t-77.5 -327.5zM353 1079q8 144 67 210.5t134 66.5 q79 0 212 -64q56 -26 81 -26q30 0 50 20.5t26 69.5h63q-2 -138 -60.5 -208t-131.5 -70q-70 0 -212 65q-59 27 -87 27t-48.5 -21t-27.5 -70h-66z" />
<glyph unicode="&#xe4;" d="M40 218q0 141 86 323.5t226 293.5q115 92 216 92q56 0 90 -32.5t50 -118.5l36 123l237 14l-194 -665l-20 -81q-3 -15 -3 -22q0 -12 8.5 -21t17.5 -9q21 0 58 32q15 13 72 92l35 -18q-71 -130 -151.5 -189.5t-173.5 -59.5q-57 0 -87 29.5t-30 74.5q0 39 32 145l24 81 q-116 -199 -223 -282q-62 -48 -132 -48q-92 0 -133 75.5t-41 170.5zM301 256q0 -53 17.5 -76.5t38.5 -23.5q45 0 91 52q66 74 119 181q94 188 94 334q0 81 -25 117q-18 25 -49 25t-64 -30q-67 -62 -144.5 -251.5t-77.5 -327.5zM359 1214q0 55 39 94t94 39t94 -39t39 -94 t-39 -94t-94 -39t-94 39t-39 94zM732 1214q0 54 38.5 93t93.5 39t93.5 -39t38.5 -93q0 -55 -39 -93.5t-93 -38.5q-55 0 -93.5 38.5t-38.5 93.5z" />
<glyph unicode="&#xe5;" d="M40 218q0 141 86 323.5t226 293.5q115 92 216 92q56 0 90 -32.5t50 -118.5l36 123l237 14l-194 -665l-20 -81q-3 -15 -3 -22q0 -12 8.5 -21t17.5 -9q21 0 58 32q15 13 72 92l35 -18q-71 -130 -151.5 -189.5t-173.5 -59.5q-57 0 -87 29.5t-30 74.5q0 39 32 145l24 81 q-116 -199 -223 -282q-62 -48 -132 -48q-92 0 -133 75.5t-41 170.5zM301 256q0 -53 17.5 -76.5t38.5 -23.5q45 0 91 52q66 74 119 181q94 188 94 334q0 81 -25 117q-18 25 -49 25t-64 -30q-67 -62 -144.5 -251.5t-77.5 -327.5zM506 1218q0 86 60.5 147t147.5 61t147.5 -61 t60.5 -147t-60.5 -147t-147.5 -61q-86 0 -147 61t-61 147zM581 1218q0 -55 39 -94t94 -39q56 0 95 39t39 94t-39 94t-95 39q-55 0 -94 -39t-39 -94z" />
<glyph unicode="&#xe6;" horiz-adv-x="1479" d="M38 205q0 148 72.5 302t171 253.5t181.5 139.5q56 27 119 27q64 0 101 -32.5t57 -121.5l45 126l213 13l-34 -106q98 69 169 95t151 26q95 0 139 -38.5t44 -99.5q0 -139 -143.5 -264t-458.5 -151q-7 -55 -7 -92q0 -84 49 -134t123 -50q159 0 313 165l30 -31 q-118 -139 -228.5 -199.5t-234.5 -60.5q-111 0 -182 39t-101 102t-34 169q-87 -129 -140 -185q-70 -73 -134 -104q-43 -21 -97 -21q-77 0 -130.5 61.5t-53.5 171.5zM301 257q0 -53 21 -78.5t49 -25.5q30 0 75 39q90 79 167.5 247.5t77.5 284.5q0 72 -32 116q-19 27 -52 27 q-34 0 -55 -15q-57 -39 -114.5 -140.5t-110.5 -285.5q-26 -87 -26 -169zM875 429q124 17 193 60.5t120 134t51 159.5q0 34 -18.5 54.5t-45.5 20.5q-51 0 -115 -70q-111 -119 -185 -359z" />
<glyph unicode="&#xe7;" horiz-adv-x="909" d="M54 261q0 164 89 322.5t235 251t287 92.5q113 0 170 -50t57 -124q0 -67 -43 -114t-96 -47q-46 0 -76.5 30t-30.5 71q0 54 54 94q37 28 37 49q0 18 -15 29q-20 16 -52 16q-84 0 -158 -68q-98 -90 -150 -228t-52 -262q0 -98 53 -156.5t126 -58.5q64 0 138.5 33t141.5 100 l30 -27q-97 -116 -191 -170q-125 -72 -259 -72q-90 0 -159.5 38.5t-102.5 108t-33 142.5zM74 -346l12 31q75 -14 112 -14q67 0 103 30.5t36 72.5q0 35 -23 58.5t-53 23.5q-22 0 -55 -8l-13 30l168 122h76l-69 -52q82 -11 121.5 -52.5t39.5 -99.5q0 -70 -62.5 -121 t-199.5 -51q-111 0 -193 30z" />
<glyph unicode="&#xe8;" horiz-adv-x="909" d="M45 237q0 164 95.5 328t260 263t330.5 99q84 0 127 -40t43 -101q0 -73 -42 -142q-58 -94 -146 -151.5t-197 -87.5q-73 -20 -196 -30q-9 -65 -9 -107q0 -75 43.5 -120t116.5 -45q70 0 140.5 34t163.5 119l30 -27q-115 -139 -224 -198t-241 -59q-167 0 -231 80t-64 185z M329 427q88 13 136.5 35.5t95 72t80.5 125t34 141.5q0 28 -15.5 44t-39.5 16q-48 0 -108 -67q-110 -122 -183 -367zM386 1387h294l107 -347h-78z" />
<glyph unicode="&#xe9;" horiz-adv-x="909" d="M45 237q0 164 95.5 328t260 263t330.5 99q84 0 127 -40t43 -101q0 -73 -42 -142q-58 -94 -146 -151.5t-197 -87.5q-73 -20 -196 -30q-9 -65 -9 -107q0 -75 43.5 -120t116.5 -45q70 0 140.5 34t163.5 119l30 -27q-115 -139 -224 -198t-241 -59q-167 0 -231 80t-64 185z M329 427q88 13 136.5 35.5t95 72t80.5 125t34 141.5q0 28 -15.5 44t-39.5 16q-48 0 -108 -67q-110 -122 -183 -367zM611 1037l119 350h308l-337 -350h-90z" />
<glyph unicode="&#xea;" horiz-adv-x="909" d="M45 237q0 164 95.5 328t260 263t330.5 99q84 0 127 -40t43 -101q0 -73 -42 -142q-58 -94 -146 -151.5t-197 -87.5q-73 -20 -196 -30q-9 -65 -9 -107q0 -75 43.5 -120t116.5 -45q70 0 140.5 34t163.5 119l30 -27q-115 -139 -224 -198t-241 -59q-167 0 -231 80t-64 185z M268 1047l306 340h227l102 -340h-102l-134 203l-294 -203h-105zM329 427q88 13 136.5 35.5t95 72t80.5 125t34 141.5q0 28 -15.5 44t-39.5 16q-48 0 -108 -67q-110 -122 -183 -367z" />
<glyph unicode="&#xeb;" horiz-adv-x="909" d="M45 237q0 164 95.5 328t260 263t330.5 99q84 0 127 -40t43 -101q0 -73 -42 -142q-58 -94 -146 -151.5t-197 -87.5q-73 -20 -196 -30q-9 -65 -9 -107q0 -75 43.5 -120t116.5 -45q70 0 140.5 34t163.5 119l30 -27q-115 -139 -224 -198t-241 -59q-167 0 -231 80t-64 185z M306 1214q0 55 39 94t94 39t94 -39t39 -94t-39 -94t-94 -39t-94 39t-39 94zM329 427q88 13 136.5 35.5t95 72t80.5 125t34 141.5q0 28 -15.5 44t-39.5 16q-48 0 -108 -67q-110 -122 -183 -367zM679 1214q0 54 38.5 93t93.5 39t93.5 -39t38.5 -93q0 -55 -39 -93.5t-93 -38.5 q-55 0 -93.5 38.5t-38.5 93.5z" />
<glyph unicode="&#xec;" horiz-adv-x="569" d="M45 101q0 37 17 94l139 478q20 69 20 104q0 22 -19 39t-52 17q-15 0 -36 -1l13 40l339 55h60l-205 -711q-17 -61 -17 -80q0 -11 9 -20.5t19 -9.5q17 0 34 15q45 37 108 134l34 -20q-151 -263 -321 -263q-65 0 -103.5 36.5t-38.5 92.5zM155 1387h294l107 -347h-78z" />
<glyph unicode="&#xed;" horiz-adv-x="569" d="M45 101q0 37 17 94l139 478q20 69 20 104q0 22 -19 39t-52 17q-15 0 -36 -1l13 40l339 55h60l-205 -711q-17 -61 -17 -80q0 -11 9 -20.5t19 -9.5q17 0 34 15q45 37 108 134l34 -20q-151 -263 -321 -263q-65 0 -103.5 36.5t-38.5 92.5zM313 1037l119 350h308l-337 -350 h-90z" />
<glyph unicode="&#xee;" horiz-adv-x="569" d="M45 101q0 37 17 94l139 478q20 69 20 104q0 22 -19 39t-52 17q-15 0 -36 -1l13 40l339 55h60l-205 -711q-17 -61 -17 -80q0 -11 9 -20.5t19 -9.5q17 0 34 15q45 37 108 134l34 -20q-151 -263 -321 -263q-65 0 -103.5 36.5t-38.5 92.5zM61 1047l306 340h227l102 -340h-102 l-134 203l-294 -203h-105z" />
<glyph unicode="&#xef;" horiz-adv-x="569" d="M45 101q0 37 17 94l139 478q20 69 20 104q0 22 -19 39t-52 17q-15 0 -36 -1l13 40l339 55h60l-205 -711q-17 -61 -17 -80q0 -11 9 -20.5t19 -9.5q17 0 34 15q45 37 108 134l34 -20q-151 -263 -321 -263q-65 0 -103.5 36.5t-38.5 92.5zM99 1214q0 55 39 94t94 39t94 -39 t39 -94t-39 -94t-94 -39t-94 39t-39 94zM472 1214q0 54 38.5 93t93.5 39t93.5 -39t38.5 -93q0 -55 -39 -93.5t-93 -38.5q-55 0 -93.5 38.5t-38.5 93.5z" />
<glyph unicode="&#xf0;" d="M52 256q0 162 81.5 313t217.5 240.5t238 89.5q72 0 142 -45q0 92 -7.5 149.5t-29.5 137.5l-213 -115l-29 57l221 121q-32 68 -47.5 93.5t-46.5 64.5l29 25q69 -54 147 -140l211 115l30 -58l-202 -107q173 -248 173 -520q0 -167 -73 -314q-56 -114 -146 -202 t-193.5 -138.5t-204.5 -50.5q-142 0 -220 76t-78 208zM296 139q0 -57 26.5 -86t67.5 -29q43 0 85 37q77 69 141 251q94 264 94 420q0 56 -25 85t-64 29q-52 0 -91 -34q-67 -60 -141 -260q-93 -255 -93 -413z" />
<glyph unicode="&#xf1;" horiz-adv-x="1139" d="M26 0l187 642q27 95 27 135q0 17 -8 28.5t-26 18t-68 6.5l11 38l337 59h61l-124 -429q125 188 187 257q91 100 157 136t124 36q52 0 89 -38.5t37 -100.5q0 -56 -24 -136l-128 -427q-16 -56 -16 -73q0 -10 7.5 -18t15.5 -8q10 0 21 8q35 29 71 82q9 14 29 42l38 -23 q-147 -247 -309 -247q-62 0 -97 32t-35 80q0 42 24 125l125 427q13 42 13 62q0 11 -9 19.5t-21 8.5q-38 0 -92 -52q-138 -132 -267 -393l-82 -297h-255zM352 1079q8 144 67 210.5t134 66.5q79 0 212 -64q56 -26 81 -26q30 0 50 20.5t26 69.5h63q-2 -138 -60.5 -208 t-131.5 -70q-70 0 -212 65q-59 27 -87 27t-48.5 -21t-27.5 -70h-66z" />
<glyph unicode="&#xf2;" d="M50 251q0 139 55.5 260.5t141 212t196.5 147t230 56.5q79 0 148.5 -36.5t105 -101.5t35.5 -144q0 -162 -90.5 -324t-238.5 -255.5t-298 -93.5q-136 0 -210.5 81t-74.5 198zM298 131q0 -46 28 -76t66 -30q39 0 69 24q44 36 108 161.5t105 277t41 277.5q0 52 -25 80.5 t-58 28.5q-53 0 -88 -31q-70 -63 -158 -294.5t-88 -417.5zM416 1387h294l107 -347h-78z" />
<glyph unicode="&#xf3;" d="M50 251q0 139 55.5 260.5t141 212t196.5 147t230 56.5q79 0 148.5 -36.5t105 -101.5t35.5 -144q0 -162 -90.5 -324t-238.5 -255.5t-298 -93.5q-136 0 -210.5 81t-74.5 198zM298 131q0 -46 28 -76t66 -30q39 0 69 24q44 36 108 161.5t105 277t41 277.5q0 52 -25 80.5 t-58 28.5q-53 0 -88 -31q-70 -63 -158 -294.5t-88 -417.5zM599 1037l119 350h308l-337 -350h-90z" />
<glyph unicode="&#xf4;" d="M50 251q0 139 55.5 260.5t141 212t196.5 147t230 56.5q79 0 148.5 -36.5t105 -101.5t35.5 -144q0 -162 -90.5 -324t-238.5 -255.5t-298 -93.5q-136 0 -210.5 81t-74.5 198zM298 131q0 -46 28 -76t66 -30q39 0 69 24q44 36 108 161.5t105 277t41 277.5q0 52 -25 80.5 t-58 28.5q-53 0 -88 -31q-70 -63 -158 -294.5t-88 -417.5zM321 1047l306 340h227l102 -340h-102l-134 203l-294 -203h-105z" />
<glyph unicode="&#xf5;" d="M50 251q0 139 55.5 260.5t141 212t196.5 147t230 56.5q79 0 148.5 -36.5t105 -101.5t35.5 -144q0 -162 -90.5 -324t-238.5 -255.5t-298 -93.5q-136 0 -210.5 81t-74.5 198zM298 131q0 -46 28 -76t66 -30q39 0 69 24q44 36 108 161.5t105 277t41 277.5q0 52 -25 80.5 t-58 28.5q-53 0 -88 -31q-70 -63 -158 -294.5t-88 -417.5zM353 1079q8 144 67 210.5t134 66.5q79 0 212 -64q56 -26 81 -26q30 0 50 20.5t26 69.5h63q-2 -138 -60.5 -208t-131.5 -70q-70 0 -212 65q-59 27 -87 27t-48.5 -21t-27.5 -70h-66z" />
<glyph unicode="&#xf6;" d="M50 251q0 139 55.5 260.5t141 212t196.5 147t230 56.5q79 0 148.5 -36.5t105 -101.5t35.5 -144q0 -162 -90.5 -324t-238.5 -255.5t-298 -93.5q-136 0 -210.5 81t-74.5 198zM298 131q0 -46 28 -76t66 -30q39 0 69 24q44 36 108 161.5t105 277t41 277.5q0 52 -25 80.5 t-58 28.5q-53 0 -88 -31q-70 -63 -158 -294.5t-88 -417.5zM359 1214q0 55 39 94t94 39t94 -39t39 -94t-39 -94t-94 -39t-94 39t-39 94zM732 1214q0 54 38.5 93t93.5 39t93.5 -39t38.5 -93q0 -55 -39 -93.5t-93 -38.5q-55 0 -93.5 38.5t-38.5 93.5z" />
<glyph unicode="&#xf7;" horiz-adv-x="1124" d="M50 612v132h1093v-132h-1093zM494 351q0 42 30 72.5t73 30.5t73 -30.5t30 -72.5q0 -43 -30 -73t-73 -30q-42 0 -72.5 30t-30.5 73zM496 1014q0 42 30 72t72 30q43 0 73 -30t30 -72t-30 -72t-73 -30q-42 0 -72 30t-30 72z" />
<glyph unicode="&#xf8;" d="M31 18l68 67q-49 84 -49 172q0 163 89.5 323t241.5 253.5t299 93.5q51 0 100.5 -18t97.5 -55l69 67l46 -47l-74 -71q43 -80 43 -156q0 -165 -91.5 -326.5t-238 -255t-298.5 -93.5q-61 0 -108 16q-36 12 -83 48l-67 -64zM297 139q0 -53 27.5 -83t66.5 -30q43 0 78 31 q67 60 121 184q29 70 102 338l-393 -386q-2 -31 -2 -54zM314 300l397 389q6 44 6 73q0 52 -25.5 81t-63.5 29t-70.5 -19.5t-77 -88t-79.5 -169.5q-7 -22 -87 -295z" />
<glyph unicode="&#xf9;" horiz-adv-x="1139" d="M70 110q0 51 25 137l113 400q28 98 28 132q0 15 -8 26.5t-26.5 18t-68.5 6.5l10 38l341 59h60l-194 -680q-14 -47 -14 -65q0 -9 7 -14q8 -8 19 -8q46 0 123 82q110 119 231 342l91 306l253 9l-192 -660q-24 -84 -24 -96q0 -8 7.5 -16.5t15.5 -8.5q14 0 27 12 q36 29 95 117l34 -24q-139 -251 -306 -251q-62 0 -97.5 31.5t-35.5 82.5q0 54 25 137l49 169q-130 -189 -189 -255q-90 -99 -151.5 -132t-117.5 -33q-53 0 -91.5 39t-38.5 99zM433 1387h294l107 -347h-78z" />
<glyph unicode="&#xfa;" horiz-adv-x="1139" d="M70 110q0 51 25 137l113 400q28 98 28 132q0 15 -8 26.5t-26.5 18t-68.5 6.5l10 38l341 59h60l-194 -680q-14 -47 -14 -65q0 -9 7 -14q8 -8 19 -8q46 0 123 82q110 119 231 342l91 306l253 9l-192 -660q-24 -84 -24 -96q0 -8 7.5 -16.5t15.5 -8.5q14 0 27 12 q36 29 95 117l34 -24q-139 -251 -306 -251q-62 0 -97.5 31.5t-35.5 82.5q0 54 25 137l49 169q-130 -189 -189 -255q-90 -99 -151.5 -132t-117.5 -33q-53 0 -91.5 39t-38.5 99zM564 1037l119 350h308l-337 -350h-90z" />
<glyph unicode="&#xfb;" horiz-adv-x="1139" d="M70 110q0 51 25 137l113 400q28 98 28 132q0 15 -8 26.5t-26.5 18t-68.5 6.5l10 38l341 59h60l-194 -680q-14 -47 -14 -65q0 -9 7 -14q8 -8 19 -8q46 0 123 82q110 119 231 342l91 306l253 9l-192 -660q-24 -84 -24 -96q0 -8 7.5 -16.5t15.5 -8.5q14 0 27 12 q36 29 95 117l34 -24q-139 -251 -306 -251q-62 0 -97.5 31.5t-35.5 82.5q0 54 25 137l49 169q-130 -189 -189 -255q-90 -99 -151.5 -132t-117.5 -33q-53 0 -91.5 39t-38.5 99zM337 1047l306 340h227l102 -340h-102l-134 203l-294 -203h-105z" />
<glyph unicode="&#xfc;" horiz-adv-x="1139" d="M70 110q0 51 25 137l113 400q28 98 28 132q0 15 -8 26.5t-26.5 18t-68.5 6.5l10 38l341 59h60l-194 -680q-14 -47 -14 -65q0 -9 7 -14q8 -8 19 -8q46 0 123 82q110 119 231 342l91 306l253 9l-192 -660q-24 -84 -24 -96q0 -8 7.5 -16.5t15.5 -8.5q14 0 27 12 q36 29 95 117l34 -24q-139 -251 -306 -251q-62 0 -97.5 31.5t-35.5 82.5q0 54 25 137l49 169q-130 -189 -189 -255q-90 -99 -151.5 -132t-117.5 -33q-53 0 -91.5 39t-38.5 99zM335 1214q0 55 39 94t94 39t94 -39t39 -94t-39 -94t-94 -39t-94 39t-39 94zM708 1214 q0 54 38.5 93t93.5 39t93.5 -39t38.5 -93q0 -55 -39 -93.5t-93 -38.5q-55 0 -93.5 38.5t-38.5 93.5z" />
<glyph unicode="&#xfd;" horiz-adv-x="909" d="M-192 -307q0 55 36.5 93t85.5 38q61 0 112 -64q34 -43 56 -43q23 0 45 13q30 16 84 74q6 125 6 189q0 86 -8 242l-17 381q-9 105 -45 151q-28 34 -73 34q-17 0 -38 -3v39l308 90q37 -46 52 -87q27 -71 38 -196q21 -246 29 -525q107 141 245 373q42 70 42 132 q0 39 -48.5 74t-60.5 54.5t-12 50.5q0 50 36.5 87t88.5 37q55 0 95.5 -42t40.5 -99q0 -67 -37.5 -155.5t-175.5 -303.5q-177 -275 -347 -476q-109 -128 -176 -184.5t-139 -89.5q-43 -19 -85 -19q-57 0 -97.5 40t-40.5 95zM531 1037l119 350h308l-337 -350h-90z" />
<glyph unicode="&#xfe;" d="M-250 -442l10 39q64 2 106 40.5t80 170.5l378 1302q26 91 26 132q0 18 -8 29.5t-23.5 16.5t-68.5 4v39l399 56l-179 -623q105 96 172 129.5t133 33.5q94 0 145 -72.5t51 -177.5q0 -287 -188 -496t-397 -209q-38 0 -64 7t-72 31l-50 -180q-28 -103 -28 -153 q0 -30 22.5 -49t102.5 -31l-9 -39h-538zM280 103q30 -49 54 -65.5t56 -16.5q52 0 112 60q92 91 148 247t56 307q0 77 -27.5 112t-66.5 35q-35 0 -66 -18q-45 -26 -106 -97z" />
<glyph unicode="&#xff;" horiz-adv-x="909" d="M-192 -307q0 55 36.5 93t85.5 38q61 0 112 -64q34 -43 56 -43q23 0 45 13q30 16 84 74q6 125 6 189q0 86 -8 242l-17 381q-9 105 -45 151q-28 34 -73 34q-17 0 -38 -3v39l308 90q37 -46 52 -87q27 -71 38 -196q21 -246 29 -525q107 141 245 373q42 70 42 132 q0 39 -48.5 74t-60.5 54.5t-12 50.5q0 50 36.5 87t88.5 37q55 0 95.5 -42t40.5 -99q0 -67 -37.5 -155.5t-175.5 -303.5q-177 -275 -347 -476q-109 -128 -176 -184.5t-139 -89.5q-43 -19 -85 -19q-57 0 -97.5 40t-40.5 95zM269 1214q0 55 39 94t94 39t94 -39t39 -94t-39 -94 t-94 -39t-94 39t-39 94zM642 1214q0 54 38.5 93t93.5 39t93.5 -39t38.5 -93q0 -55 -39 -93.5t-93 -38.5q-55 0 -93.5 38.5t-38.5 93.5z" />
<glyph unicode="&#x152;" horiz-adv-x="1933" d="M127 464q0 229 122 442t333.5 337t429.5 124q74 0 187 -7q55 -4 224 -4h540l-86 -339h-38q0 123 -78 193.5t-259 70.5h-44l-154 -525q159 2 235.5 46.5t143.5 169.5h37l-153 -525h-35q9 47 9 82q0 49 -22.5 81.5t-75.5 52.5t-162 18l-112 -387q-34 -118 -34 -156 q0 -21 19 -38t55 -17q141 0 287.5 73t261.5 214h42l-142 -370h-579q-189 0 -245 -2q-223 -9 -229 -9q-142 0 -253.5 62t-168 171t-56.5 242zM429 310q0 -92 48 -167t150 -75q88 0 156.5 64t121.5 247l155 534l44 154q9 41 9 86q0 65 -37 102t-100 37q-96 0 -161 -56 q-150 -128 -268 -401.5t-118 -524.5z" />
<glyph unicode="&#x153;" horiz-adv-x="1479" d="M46 258q0 163 91.5 321t236.5 253t289 95q100 0 154 -34.5t96 -118.5q108 87 188 120t175 33q102 0 147.5 -39.5t45.5 -100.5q0 -80 -64 -175t-178.5 -151t-337.5 -85q-16 -61 -16 -99q0 -70 49.5 -122t119.5 -52q71 0 142 36t157 121l34 -29q-117 -140 -227.5 -199.5 t-236.5 -59.5q-96 0 -161 37q-50 28 -98 103q-63 -69 -119 -96q-89 -44 -191 -44q-149 0 -222.5 81t-73.5 205zM291 137q0 -52 28.5 -82t70.5 -30q52 0 106 63q74 86 146.5 324t72.5 348q0 52 -26.5 81t-66.5 29q-41 0 -85 -40q-73 -65 -151 -274q-95 -256 -95 -419z M897 422q124 30 190 77.5t109.5 138t43.5 164.5q0 30 -14 44.5t-38 14.5q-50 0 -121 -79q-107 -118 -170 -360z" />
<glyph unicode="&#x178;" horiz-adv-x="1251" d="M190 0l10 37q76 -1 122 20.5t69 55.5q16 24 47 128l104 358l-114 494q-29 128 -70 175q-31 36 -113 51l11 37h651l-12 -37q-95 0 -138.5 -38.5t-43.5 -91.5q0 -33 18 -115l88 -401l219 302q84 116 105 163.5t21 83.5t-27 63t-87 34l11 37h407v-37q-55 -6 -95 -36 t-156 -190l-385 -530l-90 -314q-29 -97 -29 -113q0 -43 33 -71t111 -28h38l-11 -37h-694zM623 1610q0 55 39 94t94 39t94 -39t39 -94t-39 -94t-94 -39t-94 39t-39 94zM996 1610q0 54 38.5 93t93.5 39t93.5 -39t38.5 -93q0 -55 -39 -93.5t-93 -38.5q-55 0 -93.5 38.5 t-38.5 93.5z" />
<glyph unicode="&#x2c6;" horiz-adv-x="682" d="M151 1047l306 340h227l102 -340h-102l-134 203l-294 -203h-105z" />
<glyph unicode="&#x2dc;" horiz-adv-x="682" d="M182 1079q8 144 67 210.5t134 66.5q79 0 212 -64q56 -26 81 -26q30 0 50 20.5t26 69.5h63q-2 -138 -60.5 -208t-131.5 -70q-70 0 -212 65q-59 27 -87 27t-48.5 -21t-27.5 -70h-66z" />
<glyph unicode="&#x2000;" horiz-adv-x="908" />
<glyph unicode="&#x2001;" horiz-adv-x="1816" />
<glyph unicode="&#x2002;" horiz-adv-x="908" />
<glyph unicode="&#x2003;" horiz-adv-x="1816" />
<glyph unicode="&#x2004;" horiz-adv-x="605" />
<glyph unicode="&#x2005;" horiz-adv-x="454" />
<glyph unicode="&#x2006;" horiz-adv-x="302" />
<glyph unicode="&#x2007;" horiz-adv-x="302" />
<glyph unicode="&#x2008;" horiz-adv-x="227" />
<glyph unicode="&#x2009;" horiz-adv-x="363" />
<glyph unicode="&#x200a;" horiz-adv-x="100" />
<glyph unicode="&#x2010;" horiz-adv-x="682" d="M13 345l65 208h582l-62 -208h-585z" />
<glyph unicode="&#x2011;" horiz-adv-x="682" d="M13 345l65 208h582l-62 -208h-585z" />
<glyph unicode="&#x2012;" horiz-adv-x="682" d="M13 345l65 208h582l-62 -208h-585z" />
<glyph unicode="&#x2013;" d="M-15 413v121h1057v-121h-1057z" />
<glyph unicode="&#x2014;" horiz-adv-x="2048" d="M-20 412v122h2087v-122h-2087z" />
<glyph unicode="&#x2018;" horiz-adv-x="682" d="M291 939q0 125 84 231q107 135 311 217l23 -41q-153 -87 -190 -133q-29 -34 -29 -70q0 -39 51.5 -86t68.5 -81q13 -25 13 -63q0 -66 -48.5 -113t-117.5 -47q-67 0 -116.5 53t-49.5 133z" />
<glyph unicode="&#x2019;" horiz-adv-x="682" d="M294 795q153 86 190 132q29 34 29 70q0 39 -51.5 86.5t-68.5 80.5q-13 25 -13 64q0 65 48.5 112t117.5 47q67 0 116.5 -53t49.5 -132q0 -125 -95.5 -246t-299.5 -203z" />
<glyph unicode="&#x201a;" horiz-adv-x="682" d="M28 -287q153 87 190 132q29 35 29 70q0 39 -51.5 86.5t-68.5 80.5q-13 25 -13 64q0 65 48.5 112t117.5 47q67 0 116.5 -53t49.5 -132q0 -125 -95.5 -246t-299.5 -203z" />
<glyph unicode="&#x201c;" d="M242 936q0 124 76 223q101 130 319 228l24 -41q-140 -74 -189 -132q-32 -39 -32 -74t51.5 -83t69.5 -83q13 -25 13 -58q0 -67 -48 -115t-119 -48q-70 0 -117.5 51.5t-47.5 131.5zM683 937q0 124 84 230q106 136 311 220l25 -44q-143 -75 -188 -129q-31 -38 -31 -77 q0 -36 55 -86q77 -69 77 -136t-48.5 -116.5t-114.5 -49.5q-68 0 -119 54.5t-51 133.5z" />
<glyph unicode="&#x201d;" d="M242 793q143 75 188 129q32 38 32 76q0 37 -56 87q-77 69 -77 136t49 116.5t115 49.5q67 0 118.5 -54.5t51.5 -132.5q0 -123 -84 -229q-106 -135 -312 -220zM685 790q139 74 188 132q32 39 32 74t-51 83t-69 83q-13 25 -13 59q0 67 48 115t118 48t118 -51.5t48 -132.5 q0 -124 -77 -222q-101 -131 -318 -229z" />
<glyph unicode="&#x201e;" d="M-60 -286q143 74 188 128q32 38 32 77q0 36 -56 86q-77 69 -77 136q0 68 49 117.5t115 49.5q67 0 118.5 -54.5t51.5 -133.5q0 -123 -84 -229q-106 -135 -312 -219zM383 -290q140 75 188 132q32 39 32 74t-51 83t-69 83q-13 25 -13 58q0 67 48 115t118 48t118 -51.5 t48 -131.5q0 -124 -77 -222q-101 -131 -318 -229z" />
<glyph unicode="&#x2022;" horiz-adv-x="717" d="M100 676q0 118 83 201.5t203 83.5q119 0 202 -83.5t83 -201.5t-83.5 -202t-201.5 -84q-119 0 -202.5 83.5t-83.5 202.5z" />
<glyph unicode="&#x2026;" horiz-adv-x="2048" d="M175 141q0 69 48.5 118t117.5 49q70 0 118.5 -49t48.5 -118t-49 -117.5t-118 -48.5t-117.5 48.5t-48.5 117.5zM858 141q0 69 48.5 117.5t117.5 48.5t117.5 -48.5t48.5 -117.5t-48.5 -117.5t-117.5 -48.5t-117.5 48.5t-48.5 117.5zM1541 139q0 69 48.5 117.5t117.5 48.5 q70 0 118 -48.5t48 -117.5t-48.5 -117.5t-117.5 -48.5t-117.5 48.5t-48.5 117.5z" />
<glyph unicode="&#x202f;" horiz-adv-x="363" />
<glyph unicode="&#x2039;" horiz-adv-x="682" d="M120 451l443 461h63l-258 -461l61 -462h-61z" />
<glyph unicode="&#x203a;" horiz-adv-x="682" d="M57 -11l258 461l-62 462h62l248 -462l-443 -461h-63z" />
<glyph unicode="&#x205f;" horiz-adv-x="454" />
<glyph unicode="&#x20ac;" d="M33 576l23 78h96l5 16q8 30 21 67h-95l23 78h103q99 231 290 391q212 178 444 178q109 0 182 -30q22 -9 102 -58l-85 -299h-39q11 56 11 104q0 201 -175 201q-125 0 -247 -159q-98 -127 -177 -328h441l-23 -78h-446q-15 -42 -27 -83h446l-23 -78h-443q-42 -168 -42 -286 q0 -224 151 -224q114 0 211 73q50 37 162 161l36 -35q-121 -142 -196 -196q-134 -97 -300 -97q-351 0 -351 399q0 96 23 205h-101z" />
<glyph unicode="&#x2122;" horiz-adv-x="2048" d="M-3 1130v226h777v-226h-35q-4 88 -49 131t-145 43h-38v-587q0 -85 18 -106q22 -28 85 -28v-34h-454v34q59 4 73.5 12t22 29t7.5 96v584h-35q-96 0 -141.5 -41t-52.5 -133h-33zM884 549v34q57 3 75 12.5t26.5 30.5t8.5 92v468q0 71 -9.5 91.5t-27.5 30.5t-73 10v38h368 l231 -495l229 495h347v-38q-48 0 -66 -10t-26.5 -30t-8.5 -94v-472q0 -76 15 -96q24 -29 86 -33v-34h-461v34q73 2 93.5 24t20.5 105v506l-320 -669h-24l-318 669v-502q0 -68 6 -84q8 -22 31 -35t78 -14v-34h-281z" />
<glyph unicode="&#x25fc;" horiz-adv-x="925" d="M0 0v925h925v-925h-925z" />
<glyph unicode="&#xfb01;" horiz-adv-x="1139" d="M-367 -333q0 41 32.5 71t84.5 30q45 0 70.5 -23.5t25.5 -58.5q0 -30 -19 -52l-10 -14q0 -5 4 -8q9 -6 22 -6q42 0 92 78q31 47 93 288l209 809h-139l31 118q84 -2 119.5 19.5t72.5 94.5q103 205 204 277q138 97 321 97q124 0 180.5 -44t56.5 -105q0 -50 -33.5 -83.5 t-81.5 -33.5q-46 0 -78 28t-32 62q0 27 16 59q12 22 12 33q0 14 -15 27q-16 12 -48 12q-60 0 -103 -31q-61 -43 -102 -122q-27 -51 -78 -237l-15 -53h257q138 0 234 28h50l-177 -619q-44 -153 -44 -174q0 -13 8 -22t18 -9q18 0 36 15q46 38 109 135l33 -19 q-92 -154 -183 -218q-62 -44 -141 -44q-63 0 -99 34t-36 87q0 42 26 130l166 558h-284l-114 -445q-86 -337 -160.5 -478t-181.5 -220.5t-237 -79.5q-91 0 -131.5 32t-40.5 77z" />
<glyph unicode="&#xfb02;" horiz-adv-x="1139" d="M-368 -333q0 40 32 70.5t83 30.5q48 0 73.5 -23t25.5 -53q0 -33 -20 -56l-11 -15q0 -5 5 -8q9 -5 22 -5q41 0 92 77q34 53 95 287l208 811h-141l31 116q84 0 120 21t73 93q74 141 128 204t115 99t130.5 53.5t145.5 17.5q37 0 73.5 -6t73.5 -18l218 24l-314 -1079 q-45 -154 -45 -173q0 -12 9 -22t18 -10q14 0 36 19q50 42 104 131l37 -20q-90 -153 -180 -216q-62 -45 -142 -45q-64 0 -101.5 34.5t-37.5 81.5q0 41 27 137l162 558h-279l-116 -450q-86 -337 -160.5 -478.5t-180.5 -219t-237 -77.5q-92 0 -132 32.5t-40 76.5zM527 899h285 l75 254q-18 14 -23 24q-6 15 -6 43q0 21 16 49q12 20 12 34t-16 27q-17 12 -48 12q-79 0 -143 -69q-85 -90 -139 -320z" />
</font>
</defs>
</svg>
